<?xml version="1.0" encoding="utf-8" standalone="no"?>
<!DOCTYPE svg PUBLIC "-//W3C//DTD SVG 1.1//EN"
  "http://www.w3.org/Graphics/SVG/1.1/DTD/svg11.dtd">
<svg xmlns:xlink="http://www.w3.org/1999/xlink" width="755.846875pt" height="422.555469pt" viewBox="0 0 755.846875 422.555469" xmlns="http://www.w3.org/2000/svg" version="1.1">
 <metadata>
  <rdf:RDF xmlns:dc="http://purl.org/dc/elements/1.1/" xmlns:cc="http://creativecommons.org/ns#" xmlns:rdf="http://www.w3.org/1999/02/22-rdf-syntax-ns#">
   <cc:Work>
    <dc:type rdf:resource="http://purl.org/dc/dcmitype/StillImage"/>
    <dc:date>2021-12-07T13:54:22.667215</dc:date>
    <dc:format>image/svg+xml</dc:format>
    <dc:creator>
     <cc:Agent>
      <dc:title>Matplotlib v3.5.0, https://matplotlib.org/</dc:title>
     </cc:Agent>
    </dc:creator>
   </cc:Work>
  </rdf:RDF>
 </metadata>
 <defs>
  <style type="text/css">*{stroke-linejoin: round; stroke-linecap: butt}</style>
 </defs>
 <g id="figure_1">
  <g id="patch_1">
   <path d="M -0 422.555469 
L 755.846875 422.555469 
L 755.846875 0 
L -0 0 
z
" style="fill: #ffffff"/>
  </g>
  <g id="axes_1">
   <g id="patch_2">
    <path d="M 79.046875 362.394375 
L 748.646875 362.394375 
L 748.646875 36.234375 
L 79.046875 36.234375 
z
" style="fill: #ffffff"/>
   </g>
   <g id="patch_3">
    <path d="M 82.368304 362.394375 
L 94.325446 362.394375 
L 94.325446 349.14278 
L 82.368304 349.14278 
z
" clip-path="url(#p3df3625915)" style="fill: #90cd97"/>
   </g>
   <g id="patch_4">
    <path d="M 95.654018 362.394375 
L 107.611161 362.394375 
L 107.611161 308.279182 
L 95.654018 308.279182 
z
" clip-path="url(#p3df3625915)" style="fill: #90cd97"/>
   </g>
   <g id="patch_5">
    <path d="M 108.939732 362.394375 
L 120.896875 362.394375 
L 120.896875 310.331091 
L 108.939732 310.331091 
z
" clip-path="url(#p3df3625915)" style="fill: #90cd97"/>
   </g>
   <g id="patch_6">
    <path d="M 122.225446 362.394375 
L 134.182589 362.394375 
L 134.182589 310.751926 
L 122.225446 310.751926 
z
" clip-path="url(#p3df3625915)" style="fill: #90cd97"/>
   </g>
   <g id="patch_7">
    <path d="M 135.511161 362.394375 
L 147.468304 362.394375 
L 147.468304 310.600461 
L 135.511161 310.600461 
z
" clip-path="url(#p3df3625915)" style="fill: #90cd97"/>
   </g>
   <g id="patch_8">
    <path d="M 148.796875 362.394375 
L 160.754018 362.394375 
L 160.754018 309.231436 
L 148.796875 309.231436 
z
" clip-path="url(#p3df3625915)" style="fill: #90cd97"/>
   </g>
   <g id="patch_9">
    <path d="M 162.082589 362.394375 
L 174.039732 362.394375 
L 174.039732 302.796606 
L 162.082589 302.796606 
z
" clip-path="url(#p3df3625915)" style="fill: #90cd97"/>
   </g>
   <g id="patch_10">
    <path d="M 175.368304 362.394375 
L 187.325446 362.394375 
L 187.325446 304.975221 
L 175.368304 304.975221 
z
" clip-path="url(#p3df3625915)" style="fill: #90cd97"/>
   </g>
   <g id="patch_11">
    <path d="M 188.654018 362.394375 
L 200.611161 362.394375 
L 200.611161 307.023514 
L 188.654018 307.023514 
z
" clip-path="url(#p3df3625915)" style="fill: #90cd97"/>
   </g>
   <g id="patch_12">
    <path d="M 201.939732 362.394375 
L 213.896875 362.394375 
L 213.896875 311.069617 
L 201.939732 311.069617 
z
" clip-path="url(#p3df3625915)" style="fill: #90cd97"/>
   </g>
   <g id="patch_13">
    <path d="M 215.225446 362.394375 
L 227.182589 362.394375 
L 227.182589 311.191264 
L 215.225446 311.191264 
z
" clip-path="url(#p3df3625915)" style="fill: #90cd97"/>
   </g>
   <g id="patch_14">
    <path d="M 228.511161 362.394375 
L 240.468304 362.394375 
L 240.468304 307.9768 
L 228.511161 307.9768 
z
" clip-path="url(#p3df3625915)" style="fill: #90cd97"/>
   </g>
   <g id="patch_15">
    <path d="M 241.796875 362.394375 
L 253.754018 362.394375 
L 253.754018 313.35252 
L 241.796875 313.35252 
z
" clip-path="url(#p3df3625915)" style="fill: #90cd97"/>
   </g>
   <g id="patch_16">
    <path d="M 255.082589 362.394375 
L 267.039732 362.394375 
L 267.039732 343.57647 
L 255.082589 343.57647 
z
" clip-path="url(#p3df3625915)" style="fill: #90cd97"/>
   </g>
   <g id="patch_17">
    <path d="M 268.368304 362.394375 
L 280.325446 362.394375 
L 280.325446 390.345886 
L 268.368304 390.345886 
z
" clip-path="url(#p3df3625915)" style="fill: #90cd97"/>
   </g>
   <g id="patch_18">
    <path d="M 281.654018 362.394375 
L 293.611161 362.394375 
L 293.611161 310.503257 
L 281.654018 310.503257 
z
" clip-path="url(#p3df3625915)" style="fill: #90cd97"/>
   </g>
   <g id="patch_19">
    <path d="M 294.939732 362.394375 
L 306.896875 362.394375 
L 306.896875 310.181275 
L 294.939732 310.181275 
z
" clip-path="url(#p3df3625915)" style="fill: #90cd97"/>
   </g>
   <g id="patch_20">
    <path d="M 308.225446 362.394375 
L 320.182589 362.394375 
L 320.182589 307.709282 
L 308.225446 307.709282 
z
" clip-path="url(#p3df3625915)" style="fill: #90cd97"/>
   </g>
   <g id="patch_21">
    <path d="M 321.511161 362.394375 
L 333.468304 362.394375 
L 333.468304 304.169302 
L 321.511161 304.169302 
z
" clip-path="url(#p3df3625915)" style="fill: #90cd97"/>
   </g>
   <g id="patch_22">
    <path d="M 334.796875 362.394375 
L 346.754018 362.394375 
L 346.754018 302.061338 
L 334.796875 302.061338 
z
" clip-path="url(#p3df3625915)" style="fill: #90cd97"/>
   </g>
   <g id="patch_23">
    <path d="M 348.082589 362.394375 
L 360.039732 362.394375 
L 360.039732 301.103422 
L 348.082589 301.103422 
z
" clip-path="url(#p3df3625915)" style="fill: #90cd97"/>
   </g>
   <g id="patch_24">
    <path d="M 361.368304 362.394375 
L 373.325446 362.394375 
L 373.325446 301.263009 
L 361.368304 301.263009 
z
" clip-path="url(#p3df3625915)" style="fill: #90cd97"/>
   </g>
   <g id="patch_25">
    <path d="M 374.654018 362.394375 
L 386.611161 362.394375 
L 386.611161 298.04283 
L 374.654018 298.04283 
z
" clip-path="url(#p3df3625915)" style="fill: #90cd97"/>
   </g>
   <g id="patch_26">
    <path d="M 387.939732 362.394375 
L 399.896875 362.394375 
L 399.896875 303.021332 
L 387.939732 303.021332 
z
" clip-path="url(#p3df3625915)" style="fill: #90cd97"/>
   </g>
   <g id="patch_27">
    <path d="M 401.225446 362.394375 
L 413.182589 362.394375 
L 413.182589 303.878835 
L 401.225446 303.878835 
z
" clip-path="url(#p3df3625915)" style="fill: #90cd97"/>
   </g>
   <g id="patch_28">
    <path d="M 414.511161 362.394375 
L 426.468304 362.394375 
L 426.468304 304.562594 
L 414.511161 304.562594 
z
" clip-path="url(#p3df3625915)" style="fill: #90cd97"/>
   </g>
   <g id="patch_29">
    <path d="M 427.796875 362.394375 
L 439.754018 362.394375 
L 439.754018 307.244029 
L 427.796875 307.244029 
z
" clip-path="url(#p3df3625915)" style="fill: #90cd97"/>
   </g>
   <g id="patch_30">
    <path d="M 441.082589 362.394375 
L 453.039732 362.394375 
L 453.039732 300.82101 
L 441.082589 300.82101 
z
" clip-path="url(#p3df3625915)" style="fill: #90cd97"/>
   </g>
   <g id="patch_31">
    <path d="M 454.368304 362.394375 
L 466.325446 362.394375 
L 466.325446 302.27486 
L 454.368304 302.27486 
z
" clip-path="url(#p3df3625915)" style="fill: #90cd97"/>
   </g>
   <g id="patch_32">
    <path d="M 467.654018 362.394375 
L 479.611161 362.394375 
L 479.611161 299.701776 
L 467.654018 299.701776 
z
" clip-path="url(#p3df3625915)" style="fill: #90cd97"/>
   </g>
   <g id="patch_33">
    <path d="M 480.939732 362.394375 
L 492.896875 362.394375 
L 492.896875 299.077805 
L 480.939732 299.077805 
z
" clip-path="url(#p3df3625915)" style="fill: #90cd97"/>
   </g>
   <g id="patch_34">
    <path d="M 494.225446 362.394375 
L 506.182589 362.394375 
L 506.182589 310.496191 
L 494.225446 310.496191 
z
" clip-path="url(#p3df3625915)" style="fill: #90cd97"/>
   </g>
   <g id="patch_35">
    <path d="M 507.511161 362.394375 
L 519.468304 362.394375 
L 519.468304 317.869618 
L 507.511161 317.869618 
z
" clip-path="url(#p3df3625915)" style="fill: #90cd97"/>
   </g>
   <g id="patch_36">
    <path d="M 520.796875 362.394375 
L 532.754018 362.394375 
L 532.754018 314.704358 
L 520.796875 314.704358 
z
" clip-path="url(#p3df3625915)" style="fill: #90cd97"/>
   </g>
   <g id="patch_37">
    <path d="M 534.082589 362.394375 
L 546.039732 362.394375 
L 546.039732 312.365983 
L 534.082589 312.365983 
z
" clip-path="url(#p3df3625915)" style="fill: #90cd97"/>
   </g>
   <g id="patch_38">
    <path d="M 547.368304 362.394375 
L 559.325446 362.394375 
L 559.325446 313.376938 
L 547.368304 313.376938 
z
" clip-path="url(#p3df3625915)" style="fill: #90cd97"/>
   </g>
   <g id="patch_39">
    <path d="M 560.654018 362.394375 
L 572.611161 362.394375 
L 572.611161 311.022615 
L 560.654018 311.022615 
z
" clip-path="url(#p3df3625915)" style="fill: #90cd97"/>
   </g>
   <g id="patch_40">
    <path d="M 573.939732 362.394375 
L 585.896875 362.394375 
L 585.896875 310.448388 
L 573.939732 310.448388 
z
" clip-path="url(#p3df3625915)" style="fill: #90cd97"/>
   </g>
   <g id="patch_41">
    <path d="M 587.225446 362.394375 
L 599.182589 362.394375 
L 599.182589 308.418684 
L 587.225446 308.418684 
z
" clip-path="url(#p3df3625915)" style="fill: #90cd97"/>
   </g>
   <g id="patch_42">
    <path d="M 600.511161 362.394375 
L 612.468304 362.394375 
L 612.468304 307.103512 
L 600.511161 307.103512 
z
" clip-path="url(#p3df3625915)" style="fill: #90cd97"/>
   </g>
   <g id="patch_43">
    <path d="M 613.796875 362.394375 
L 625.754018 362.394375 
L 625.754018 308.411725 
L 613.796875 308.411725 
z
" clip-path="url(#p3df3625915)" style="fill: #90cd97"/>
   </g>
   <g id="patch_44">
    <path d="M 627.082589 362.394375 
L 639.039732 362.394375 
L 639.039732 315.847996 
L 627.082589 315.847996 
z
" clip-path="url(#p3df3625915)" style="fill: #90cd97"/>
   </g>
   <g id="patch_45">
    <path d="M 640.368304 362.394375 
L 652.325446 362.394375 
L 652.325446 310.954808 
L 640.368304 310.954808 
z
" clip-path="url(#p3df3625915)" style="fill: #90cd97"/>
   </g>
   <g id="patch_46">
    <path d="M 653.654018 362.394375 
L 665.611161 362.394375 
L 665.611161 308.133452 
L 653.654018 308.133452 
z
" clip-path="url(#p3df3625915)" style="fill: #90cd97"/>
   </g>
   <g id="patch_47">
    <path d="M 666.939732 362.394375 
L 678.896875 362.394375 
L 678.896875 306.82309 
L 666.939732 306.82309 
z
" clip-path="url(#p3df3625915)" style="fill: #90cd97"/>
   </g>
   <g id="patch_48">
    <path d="M 680.225446 362.394375 
L 692.182589 362.394375 
L 692.182589 306.344184 
L 680.225446 306.344184 
z
" clip-path="url(#p3df3625915)" style="fill: #90cd97"/>
   </g>
   <g id="patch_49">
    <path d="M 693.511161 362.394375 
L 705.468304 362.394375 
L 705.468304 309.274905 
L 693.511161 309.274905 
z
" clip-path="url(#p3df3625915)" style="fill: #90cd97"/>
   </g>
   <g id="patch_50">
    <path d="M 706.796875 362.394375 
L 718.754018 362.394375 
L 718.754018 306.801418 
L 706.796875 306.801418 
z
" clip-path="url(#p3df3625915)" style="fill: #90cd97"/>
   </g>
   <g id="patch_51">
    <path d="M 720.082589 362.394375 
L 732.039732 362.394375 
L 732.039732 308.714812 
L 720.082589 308.714812 
z
" clip-path="url(#p3df3625915)" style="fill: #90cd97"/>
   </g>
   <g id="patch_52">
    <path d="M 733.368304 362.394375 
L 745.325446 362.394375 
L 745.325446 282.569785 
L 733.368304 282.569785 
z
" clip-path="url(#p3df3625915)" style="fill: #90cd97"/>
   </g>
   <g id="patch_53">
    <path d="M 82.368304 362.394375 
L 94.325446 362.394375 
L 94.325446 329.545988 
L 82.368304 329.545988 
z
" clip-path="url(#p3df3625915)" style="fill: #8c8c8c"/>
   </g>
   <g id="patch_54">
    <path d="M 95.654018 362.394375 
L 107.611161 362.394375 
L 107.611161 343.360861 
L 95.654018 343.360861 
z
" clip-path="url(#p3df3625915)" style="fill: #8c8c8c"/>
   </g>
   <g id="patch_55">
    <path d="M 108.939732 362.394375 
L 120.896875 362.394375 
L 120.896875 349.224149 
L 108.939732 349.224149 
z
" clip-path="url(#p3df3625915)" style="fill: #8c8c8c"/>
   </g>
   <g id="patch_56">
    <path d="M 122.225446 362.394375 
L 134.182589 362.394375 
L 134.182589 350.923143 
L 122.225446 350.923143 
z
" clip-path="url(#p3df3625915)" style="fill: #8c8c8c"/>
   </g>
   <g id="patch_57">
    <path d="M 135.511161 362.394375 
L 147.468304 362.394375 
L 147.468304 351.282722 
L 135.511161 351.282722 
z
" clip-path="url(#p3df3625915)" style="fill: #8c8c8c"/>
   </g>
   <g id="patch_58">
    <path d="M 148.796875 362.394375 
L 160.754018 362.394375 
L 160.754018 350.83169 
L 148.796875 350.83169 
z
" clip-path="url(#p3df3625915)" style="fill: #8c8c8c"/>
   </g>
   <g id="patch_59">
    <path d="M 162.082589 362.394375 
L 174.039732 362.394375 
L 174.039732 350.260635 
L 162.082589 350.260635 
z
" clip-path="url(#p3df3625915)" style="fill: #8c8c8c"/>
   </g>
   <g id="patch_60">
    <path d="M 175.368304 362.394375 
L 187.325446 362.394375 
L 187.325446 349.15166 
L 175.368304 349.15166 
z
" clip-path="url(#p3df3625915)" style="fill: #8c8c8c"/>
   </g>
   <g id="patch_61">
    <path d="M 188.654018 362.394375 
L 200.611161 362.394375 
L 200.611161 343.437225 
L 188.654018 343.437225 
z
" clip-path="url(#p3df3625915)" style="fill: #8c8c8c"/>
   </g>
   <g id="patch_62">
    <path d="M 201.939732 362.394375 
L 213.896875 362.394375 
L 213.896875 324.517583 
L 201.939732 324.517583 
z
" clip-path="url(#p3df3625915)" style="fill: #8c8c8c"/>
   </g>
   <g id="patch_63">
    <path d="M 215.225446 362.394375 
L 227.182589 362.394375 
L 227.182589 311.313601 
L 215.225446 311.313601 
z
" clip-path="url(#p3df3625915)" style="fill: #8c8c8c"/>
   </g>
   <g id="patch_64">
    <path d="M 228.511161 362.394375 
L 240.468304 362.394375 
L 240.468304 310.537077 
L 228.511161 310.537077 
z
" clip-path="url(#p3df3625915)" style="fill: #8c8c8c"/>
   </g>
   <g id="patch_65">
    <path d="M 241.796875 362.394375 
L 253.754018 362.394375 
L 253.754018 327.99576 
L 241.796875 327.99576 
z
" clip-path="url(#p3df3625915)" style="fill: #8c8c8c"/>
   </g>
   <g id="patch_66">
    <path d="M 255.082589 362.394375 
L 267.039732 362.394375 
L 267.039732 348.033301 
L 255.082589 348.033301 
z
" clip-path="url(#p3df3625915)" style="fill: #8c8c8c"/>
   </g>
   <g id="patch_67">
    <path d="M 268.368304 362.394375 
L 280.325446 362.394375 
L 280.325446 351.448004 
L 268.368304 351.448004 
z
" clip-path="url(#p3df3625915)" style="fill: #8c8c8c"/>
   </g>
   <g id="patch_68">
    <path d="M 281.654018 362.394375 
L 293.611161 362.394375 
L 293.611161 351.864278 
L 281.654018 351.864278 
z
" clip-path="url(#p3df3625915)" style="fill: #8c8c8c"/>
   </g>
   <g id="patch_69">
    <path d="M 294.939732 362.394375 
L 306.896875 362.394375 
L 306.896875 352.373693 
L 294.939732 352.373693 
z
" clip-path="url(#p3df3625915)" style="fill: #8c8c8c"/>
   </g>
   <g id="patch_70">
    <path d="M 308.225446 362.394375 
L 320.182589 362.394375 
L 320.182589 352.423947 
L 308.225446 352.423947 
z
" clip-path="url(#p3df3625915)" style="fill: #8c8c8c"/>
   </g>
   <g id="patch_71">
    <path d="M 321.511161 362.394375 
L 333.468304 362.394375 
L 333.468304 351.50298 
L 321.511161 351.50298 
z
" clip-path="url(#p3df3625915)" style="fill: #8c8c8c"/>
   </g>
   <g id="patch_72">
    <path d="M 334.796875 362.394375 
L 346.754018 362.394375 
L 346.754018 349.862054 
L 334.796875 349.862054 
z
" clip-path="url(#p3df3625915)" style="fill: #8c8c8c"/>
   </g>
   <g id="patch_73">
    <path d="M 348.082589 362.394375 
L 360.039732 362.394375 
L 360.039732 344.031085 
L 348.082589 344.031085 
z
" clip-path="url(#p3df3625915)" style="fill: #8c8c8c"/>
   </g>
   <g id="patch_74">
    <path d="M 361.368304 362.394375 
L 373.325446 362.394375 
L 373.325446 330.983917 
L 361.368304 330.983917 
z
" clip-path="url(#p3df3625915)" style="fill: #8c8c8c"/>
   </g>
   <g id="patch_75">
    <path d="M 374.654018 362.394375 
L 386.611161 362.394375 
L 386.611161 317.018505 
L 374.654018 317.018505 
z
" clip-path="url(#p3df3625915)" style="fill: #8c8c8c"/>
   </g>
   <g id="patch_76">
    <path d="M 387.939732 362.394375 
L 399.896875 362.394375 
L 399.896875 315.873905 
L 387.939732 315.873905 
z
" clip-path="url(#p3df3625915)" style="fill: #8c8c8c"/>
   </g>
   <g id="patch_77">
    <path d="M 401.225446 362.394375 
L 413.182589 362.394375 
L 413.182589 328.943783 
L 401.225446 328.943783 
z
" clip-path="url(#p3df3625915)" style="fill: #8c8c8c"/>
   </g>
   <g id="patch_78">
    <path d="M 414.511161 362.394375 
L 426.468304 362.394375 
L 426.468304 345.681994 
L 414.511161 345.681994 
z
" clip-path="url(#p3df3625915)" style="fill: #8c8c8c"/>
   </g>
   <g id="patch_79">
    <path d="M 427.796875 362.394375 
L 439.754018 362.394375 
L 439.754018 349.50626 
L 427.796875 349.50626 
z
" clip-path="url(#p3df3625915)" style="fill: #8c8c8c"/>
   </g>
   <g id="patch_80">
    <path d="M 441.082589 362.394375 
L 453.039732 362.394375 
L 453.039732 350.273823 
L 441.082589 350.273823 
z
" clip-path="url(#p3df3625915)" style="fill: #8c8c8c"/>
   </g>
   <g id="patch_81">
    <path d="M 454.368304 362.394375 
L 466.325446 362.394375 
L 466.325446 350.457599 
L 454.368304 350.457599 
z
" clip-path="url(#p3df3625915)" style="fill: #8c8c8c"/>
   </g>
   <g id="patch_82">
    <path d="M 467.654018 362.394375 
L 479.611161 362.394375 
L 479.611161 350.361459 
L 467.654018 350.361459 
z
" clip-path="url(#p3df3625915)" style="fill: #8c8c8c"/>
   </g>
   <g id="patch_83">
    <path d="M 480.939732 362.394375 
L 492.896875 362.394375 
L 492.896875 349.648171 
L 480.939732 349.648171 
z
" clip-path="url(#p3df3625915)" style="fill: #8c8c8c"/>
   </g>
   <g id="patch_84">
    <path d="M 494.225446 362.394375 
L 506.182589 362.394375 
L 506.182589 348.57103 
L 494.225446 348.57103 
z
" clip-path="url(#p3df3625915)" style="fill: #8c8c8c"/>
   </g>
   <g id="patch_85">
    <path d="M 507.511161 362.394375 
L 519.468304 362.394375 
L 519.468304 346.378858 
L 507.511161 346.378858 
z
" clip-path="url(#p3df3625915)" style="fill: #8c8c8c"/>
   </g>
   <g id="patch_86">
    <path d="M 520.796875 362.394375 
L 532.754018 362.394375 
L 532.754018 336.566565 
L 520.796875 336.566565 
z
" clip-path="url(#p3df3625915)" style="fill: #8c8c8c"/>
   </g>
   <g id="patch_87">
    <path d="M 534.082589 362.394375 
L 546.039732 362.394375 
L 546.039732 308.281468 
L 534.082589 308.281468 
z
" clip-path="url(#p3df3625915)" style="fill: #8c8c8c"/>
   </g>
   <g id="patch_88">
    <path d="M 547.368304 362.394375 
L 559.325446 362.394375 
L 559.325446 300.201827 
L 547.368304 300.201827 
z
" clip-path="url(#p3df3625915)" style="fill: #8c8c8c"/>
   </g>
   <g id="patch_89">
    <path d="M 560.654018 362.394375 
L 572.611161 362.394375 
L 572.611161 315.001405 
L 560.654018 315.001405 
z
" clip-path="url(#p3df3625915)" style="fill: #8c8c8c"/>
   </g>
   <g id="patch_90">
    <path d="M 573.939732 362.394375 
L 585.896875 362.394375 
L 585.896875 339.200573 
L 573.939732 339.200573 
z
" clip-path="url(#p3df3625915)" style="fill: #8c8c8c"/>
   </g>
   <g id="patch_91">
    <path d="M 587.225446 362.394375 
L 599.182589 362.394375 
L 599.182589 346.336258 
L 587.225446 346.336258 
z
" clip-path="url(#p3df3625915)" style="fill: #8c8c8c"/>
   </g>
   <g id="patch_92">
    <path d="M 600.511161 362.394375 
L 612.468304 362.394375 
L 612.468304 348.836957 
L 600.511161 348.836957 
z
" clip-path="url(#p3df3625915)" style="fill: #8c8c8c"/>
   </g>
   <g id="patch_93">
    <path d="M 613.796875 362.394375 
L 625.754018 362.394375 
L 625.754018 349.520475 
L 613.796875 349.520475 
z
" clip-path="url(#p3df3625915)" style="fill: #8c8c8c"/>
   </g>
   <g id="patch_94">
    <path d="M 627.082589 362.394375 
L 639.039732 362.394375 
L 639.039732 349.357909 
L 627.082589 349.357909 
z
" clip-path="url(#p3df3625915)" style="fill: #8c8c8c"/>
   </g>
   <g id="patch_95">
    <path d="M 640.368304 362.394375 
L 652.325446 362.394375 
L 652.325446 347.680761 
L 640.368304 347.680761 
z
" clip-path="url(#p3df3625915)" style="fill: #8c8c8c"/>
   </g>
   <g id="patch_96">
    <path d="M 653.654018 362.394375 
L 665.611161 362.394375 
L 665.611161 343.272841 
L 653.654018 343.272841 
z
" clip-path="url(#p3df3625915)" style="fill: #8c8c8c"/>
   </g>
   <g id="patch_97">
    <path d="M 666.939732 362.394375 
L 678.896875 362.394375 
L 678.896875 333.848399 
L 666.939732 333.848399 
z
" clip-path="url(#p3df3625915)" style="fill: #8c8c8c"/>
   </g>
   <g id="patch_98">
    <path d="M 680.225446 362.394375 
L 692.182589 362.394375 
L 692.182589 235.870857 
L 680.225446 235.870857 
z
" clip-path="url(#p3df3625915)" style="fill: #8c8c8c"/>
   </g>
   <g id="patch_99">
    <path d="M 693.511161 362.394375 
L 705.468304 362.394375 
L 705.468304 133.728389 
L 693.511161 133.728389 
z
" clip-path="url(#p3df3625915)" style="fill: #8c8c8c"/>
   </g>
   <g id="patch_100">
    <path d="M 706.796875 362.394375 
L 718.754018 362.394375 
L 718.754018 53.096828 
L 706.796875 53.096828 
z
" clip-path="url(#p3df3625915)" style="fill: #8c8c8c"/>
   </g>
   <g id="patch_101">
    <path d="M 720.082589 362.394375 
L 732.039732 362.394375 
L 732.039732 309.604497 
L 720.082589 309.604497 
z
" clip-path="url(#p3df3625915)" style="fill: #8c8c8c"/>
   </g>
   <g id="patch_102">
    <path d="M 733.368304 362.394375 
L 745.325446 362.394375 
L 745.325446 333.718863 
L 733.368304 333.718863 
z
" clip-path="url(#p3df3625915)" style="fill: #8c8c8c"/>
   </g>
   <g id="matplotlib.axis_1">
    <g id="xtick_1">
     <g id="line2d_1">
      <defs>
       <path id="m4b4ee5a95d" d="M 0 0 
L 0 3.5 
" style="stroke: #000000; stroke-width: 0.8"/>
      </defs>
      <g>
       <use xlink:href="#m4b4ee5a95d" x="88.346875" y="362.394375" style="stroke: #000000; stroke-width: 0.8"/>
      </g>
     </g>
     <g id="text_1">
      <!-- 2017-09 -->
      <g transform="translate(91.382188 415.355469)rotate(-90)scale(0.11 -0.11)">
       <defs>
        <path id="DejaVuSans-32" d="M 1228 531 
L 3431 531 
L 3431 0 
L 469 0 
L 469 531 
Q 828 903 1448 1529 
Q 2069 2156 2228 2338 
Q 2531 2678 2651 2914 
Q 2772 3150 2772 3378 
Q 2772 3750 2511 3984 
Q 2250 4219 1831 4219 
Q 1534 4219 1204 4116 
Q 875 4013 500 3803 
L 500 4441 
Q 881 4594 1212 4672 
Q 1544 4750 1819 4750 
Q 2544 4750 2975 4387 
Q 3406 4025 3406 3419 
Q 3406 3131 3298 2873 
Q 3191 2616 2906 2266 
Q 2828 2175 2409 1742 
Q 1991 1309 1228 531 
z
" transform="scale(0.015625)"/>
        <path id="DejaVuSans-30" d="M 2034 4250 
Q 1547 4250 1301 3770 
Q 1056 3291 1056 2328 
Q 1056 1369 1301 889 
Q 1547 409 2034 409 
Q 2525 409 2770 889 
Q 3016 1369 3016 2328 
Q 3016 3291 2770 3770 
Q 2525 4250 2034 4250 
z
M 2034 4750 
Q 2819 4750 3233 4129 
Q 3647 3509 3647 2328 
Q 3647 1150 3233 529 
Q 2819 -91 2034 -91 
Q 1250 -91 836 529 
Q 422 1150 422 2328 
Q 422 3509 836 4129 
Q 1250 4750 2034 4750 
z
" transform="scale(0.015625)"/>
        <path id="DejaVuSans-31" d="M 794 531 
L 1825 531 
L 1825 4091 
L 703 3866 
L 703 4441 
L 1819 4666 
L 2450 4666 
L 2450 531 
L 3481 531 
L 3481 0 
L 794 0 
L 794 531 
z
" transform="scale(0.015625)"/>
        <path id="DejaVuSans-37" d="M 525 4666 
L 3525 4666 
L 3525 4397 
L 1831 0 
L 1172 0 
L 2766 4134 
L 525 4134 
L 525 4666 
z
" transform="scale(0.015625)"/>
        <path id="DejaVuSans-2d" d="M 313 2009 
L 1997 2009 
L 1997 1497 
L 313 1497 
L 313 2009 
z
" transform="scale(0.015625)"/>
        <path id="DejaVuSans-39" d="M 703 97 
L 703 672 
Q 941 559 1184 500 
Q 1428 441 1663 441 
Q 2288 441 2617 861 
Q 2947 1281 2994 2138 
Q 2813 1869 2534 1725 
Q 2256 1581 1919 1581 
Q 1219 1581 811 2004 
Q 403 2428 403 3163 
Q 403 3881 828 4315 
Q 1253 4750 1959 4750 
Q 2769 4750 3195 4129 
Q 3622 3509 3622 2328 
Q 3622 1225 3098 567 
Q 2575 -91 1691 -91 
Q 1453 -91 1209 -44 
Q 966 3 703 97 
z
M 1959 2075 
Q 2384 2075 2632 2365 
Q 2881 2656 2881 3163 
Q 2881 3666 2632 3958 
Q 2384 4250 1959 4250 
Q 1534 4250 1286 3958 
Q 1038 3666 1038 3163 
Q 1038 2656 1286 2365 
Q 1534 2075 1959 2075 
z
" transform="scale(0.015625)"/>
       </defs>
       <use xlink:href="#DejaVuSans-32"/>
       <use xlink:href="#DejaVuSans-30" x="63.623047"/>
       <use xlink:href="#DejaVuSans-31" x="127.246094"/>
       <use xlink:href="#DejaVuSans-37" x="190.869141"/>
       <use xlink:href="#DejaVuSans-2d" x="254.492188"/>
       <use xlink:href="#DejaVuSans-30" x="290.576172"/>
       <use xlink:href="#DejaVuSans-39" x="354.199219"/>
      </g>
     </g>
    </g>
    <g id="xtick_2">
     <g id="line2d_2">
      <g>
       <use xlink:href="#m4b4ee5a95d" x="101.632589" y="362.394375" style="stroke: #000000; stroke-width: 0.8"/>
      </g>
     </g>
     <g id="text_2">
      <!-- 2017-10 -->
      <g transform="translate(104.667902 415.355469)rotate(-90)scale(0.11 -0.11)">
       <use xlink:href="#DejaVuSans-32"/>
       <use xlink:href="#DejaVuSans-30" x="63.623047"/>
       <use xlink:href="#DejaVuSans-31" x="127.246094"/>
       <use xlink:href="#DejaVuSans-37" x="190.869141"/>
       <use xlink:href="#DejaVuSans-2d" x="254.492188"/>
       <use xlink:href="#DejaVuSans-31" x="290.576172"/>
       <use xlink:href="#DejaVuSans-30" x="354.199219"/>
      </g>
     </g>
    </g>
    <g id="xtick_3">
     <g id="line2d_3">
      <g>
       <use xlink:href="#m4b4ee5a95d" x="114.918304" y="362.394375" style="stroke: #000000; stroke-width: 0.8"/>
      </g>
     </g>
     <g id="text_3">
      <!-- 2017-11 -->
      <g transform="translate(117.953616 415.355469)rotate(-90)scale(0.11 -0.11)">
       <use xlink:href="#DejaVuSans-32"/>
       <use xlink:href="#DejaVuSans-30" x="63.623047"/>
       <use xlink:href="#DejaVuSans-31" x="127.246094"/>
       <use xlink:href="#DejaVuSans-37" x="190.869141"/>
       <use xlink:href="#DejaVuSans-2d" x="254.492188"/>
       <use xlink:href="#DejaVuSans-31" x="290.576172"/>
       <use xlink:href="#DejaVuSans-31" x="354.199219"/>
      </g>
     </g>
    </g>
    <g id="xtick_4">
     <g id="line2d_4">
      <g>
       <use xlink:href="#m4b4ee5a95d" x="128.204018" y="362.394375" style="stroke: #000000; stroke-width: 0.8"/>
      </g>
     </g>
     <g id="text_4">
      <!-- 2017-12 -->
      <g transform="translate(131.23933 415.355469)rotate(-90)scale(0.11 -0.11)">
       <use xlink:href="#DejaVuSans-32"/>
       <use xlink:href="#DejaVuSans-30" x="63.623047"/>
       <use xlink:href="#DejaVuSans-31" x="127.246094"/>
       <use xlink:href="#DejaVuSans-37" x="190.869141"/>
       <use xlink:href="#DejaVuSans-2d" x="254.492188"/>
       <use xlink:href="#DejaVuSans-31" x="290.576172"/>
       <use xlink:href="#DejaVuSans-32" x="354.199219"/>
      </g>
     </g>
    </g>
    <g id="xtick_5">
     <g id="line2d_5">
      <g>
       <use xlink:href="#m4b4ee5a95d" x="141.489732" y="362.394375" style="stroke: #000000; stroke-width: 0.8"/>
      </g>
     </g>
     <g id="text_5">
      <!-- 2018-01 -->
      <g transform="translate(144.525045 415.355469)rotate(-90)scale(0.11 -0.11)">
       <defs>
        <path id="DejaVuSans-38" d="M 2034 2216 
Q 1584 2216 1326 1975 
Q 1069 1734 1069 1313 
Q 1069 891 1326 650 
Q 1584 409 2034 409 
Q 2484 409 2743 651 
Q 3003 894 3003 1313 
Q 3003 1734 2745 1975 
Q 2488 2216 2034 2216 
z
M 1403 2484 
Q 997 2584 770 2862 
Q 544 3141 544 3541 
Q 544 4100 942 4425 
Q 1341 4750 2034 4750 
Q 2731 4750 3128 4425 
Q 3525 4100 3525 3541 
Q 3525 3141 3298 2862 
Q 3072 2584 2669 2484 
Q 3125 2378 3379 2068 
Q 3634 1759 3634 1313 
Q 3634 634 3220 271 
Q 2806 -91 2034 -91 
Q 1263 -91 848 271 
Q 434 634 434 1313 
Q 434 1759 690 2068 
Q 947 2378 1403 2484 
z
M 1172 3481 
Q 1172 3119 1398 2916 
Q 1625 2713 2034 2713 
Q 2441 2713 2670 2916 
Q 2900 3119 2900 3481 
Q 2900 3844 2670 4047 
Q 2441 4250 2034 4250 
Q 1625 4250 1398 4047 
Q 1172 3844 1172 3481 
z
" transform="scale(0.015625)"/>
       </defs>
       <use xlink:href="#DejaVuSans-32"/>
       <use xlink:href="#DejaVuSans-30" x="63.623047"/>
       <use xlink:href="#DejaVuSans-31" x="127.246094"/>
       <use xlink:href="#DejaVuSans-38" x="190.869141"/>
       <use xlink:href="#DejaVuSans-2d" x="254.492188"/>
       <use xlink:href="#DejaVuSans-30" x="290.576172"/>
       <use xlink:href="#DejaVuSans-31" x="354.199219"/>
      </g>
     </g>
    </g>
    <g id="xtick_6">
     <g id="line2d_6">
      <g>
       <use xlink:href="#m4b4ee5a95d" x="154.775446" y="362.394375" style="stroke: #000000; stroke-width: 0.8"/>
      </g>
     </g>
     <g id="text_6">
      <!-- 2018-02 -->
      <g transform="translate(157.810759 415.355469)rotate(-90)scale(0.11 -0.11)">
       <use xlink:href="#DejaVuSans-32"/>
       <use xlink:href="#DejaVuSans-30" x="63.623047"/>
       <use xlink:href="#DejaVuSans-31" x="127.246094"/>
       <use xlink:href="#DejaVuSans-38" x="190.869141"/>
       <use xlink:href="#DejaVuSans-2d" x="254.492188"/>
       <use xlink:href="#DejaVuSans-30" x="290.576172"/>
       <use xlink:href="#DejaVuSans-32" x="354.199219"/>
      </g>
     </g>
    </g>
    <g id="xtick_7">
     <g id="line2d_7">
      <g>
       <use xlink:href="#m4b4ee5a95d" x="168.061161" y="362.394375" style="stroke: #000000; stroke-width: 0.8"/>
      </g>
     </g>
     <g id="text_7">
      <!-- 2018-03 -->
      <g transform="translate(171.096473 415.355469)rotate(-90)scale(0.11 -0.11)">
       <defs>
        <path id="DejaVuSans-33" d="M 2597 2516 
Q 3050 2419 3304 2112 
Q 3559 1806 3559 1356 
Q 3559 666 3084 287 
Q 2609 -91 1734 -91 
Q 1441 -91 1130 -33 
Q 819 25 488 141 
L 488 750 
Q 750 597 1062 519 
Q 1375 441 1716 441 
Q 2309 441 2620 675 
Q 2931 909 2931 1356 
Q 2931 1769 2642 2001 
Q 2353 2234 1838 2234 
L 1294 2234 
L 1294 2753 
L 1863 2753 
Q 2328 2753 2575 2939 
Q 2822 3125 2822 3475 
Q 2822 3834 2567 4026 
Q 2313 4219 1838 4219 
Q 1578 4219 1281 4162 
Q 984 4106 628 3988 
L 628 4550 
Q 988 4650 1302 4700 
Q 1616 4750 1894 4750 
Q 2613 4750 3031 4423 
Q 3450 4097 3450 3541 
Q 3450 3153 3228 2886 
Q 3006 2619 2597 2516 
z
" transform="scale(0.015625)"/>
       </defs>
       <use xlink:href="#DejaVuSans-32"/>
       <use xlink:href="#DejaVuSans-30" x="63.623047"/>
       <use xlink:href="#DejaVuSans-31" x="127.246094"/>
       <use xlink:href="#DejaVuSans-38" x="190.869141"/>
       <use xlink:href="#DejaVuSans-2d" x="254.492188"/>
       <use xlink:href="#DejaVuSans-30" x="290.576172"/>
       <use xlink:href="#DejaVuSans-33" x="354.199219"/>
      </g>
     </g>
    </g>
    <g id="xtick_8">
     <g id="line2d_8">
      <g>
       <use xlink:href="#m4b4ee5a95d" x="181.346875" y="362.394375" style="stroke: #000000; stroke-width: 0.8"/>
      </g>
     </g>
     <g id="text_8">
      <!-- 2018-04 -->
      <g transform="translate(184.382188 415.355469)rotate(-90)scale(0.11 -0.11)">
       <defs>
        <path id="DejaVuSans-34" d="M 2419 4116 
L 825 1625 
L 2419 1625 
L 2419 4116 
z
M 2253 4666 
L 3047 4666 
L 3047 1625 
L 3713 1625 
L 3713 1100 
L 3047 1100 
L 3047 0 
L 2419 0 
L 2419 1100 
L 313 1100 
L 313 1709 
L 2253 4666 
z
" transform="scale(0.015625)"/>
       </defs>
       <use xlink:href="#DejaVuSans-32"/>
       <use xlink:href="#DejaVuSans-30" x="63.623047"/>
       <use xlink:href="#DejaVuSans-31" x="127.246094"/>
       <use xlink:href="#DejaVuSans-38" x="190.869141"/>
       <use xlink:href="#DejaVuSans-2d" x="254.492188"/>
       <use xlink:href="#DejaVuSans-30" x="290.576172"/>
       <use xlink:href="#DejaVuSans-34" x="354.199219"/>
      </g>
     </g>
    </g>
    <g id="xtick_9">
     <g id="line2d_9">
      <g>
       <use xlink:href="#m4b4ee5a95d" x="194.632589" y="362.394375" style="stroke: #000000; stroke-width: 0.8"/>
      </g>
     </g>
     <g id="text_9">
      <!-- 2018-05 -->
      <g transform="translate(197.667902 415.355469)rotate(-90)scale(0.11 -0.11)">
       <defs>
        <path id="DejaVuSans-35" d="M 691 4666 
L 3169 4666 
L 3169 4134 
L 1269 4134 
L 1269 2991 
Q 1406 3038 1543 3061 
Q 1681 3084 1819 3084 
Q 2600 3084 3056 2656 
Q 3513 2228 3513 1497 
Q 3513 744 3044 326 
Q 2575 -91 1722 -91 
Q 1428 -91 1123 -41 
Q 819 9 494 109 
L 494 744 
Q 775 591 1075 516 
Q 1375 441 1709 441 
Q 2250 441 2565 725 
Q 2881 1009 2881 1497 
Q 2881 1984 2565 2268 
Q 2250 2553 1709 2553 
Q 1456 2553 1204 2497 
Q 953 2441 691 2322 
L 691 4666 
z
" transform="scale(0.015625)"/>
       </defs>
       <use xlink:href="#DejaVuSans-32"/>
       <use xlink:href="#DejaVuSans-30" x="63.623047"/>
       <use xlink:href="#DejaVuSans-31" x="127.246094"/>
       <use xlink:href="#DejaVuSans-38" x="190.869141"/>
       <use xlink:href="#DejaVuSans-2d" x="254.492188"/>
       <use xlink:href="#DejaVuSans-30" x="290.576172"/>
       <use xlink:href="#DejaVuSans-35" x="354.199219"/>
      </g>
     </g>
    </g>
    <g id="xtick_10">
     <g id="line2d_10">
      <g>
       <use xlink:href="#m4b4ee5a95d" x="207.918304" y="362.394375" style="stroke: #000000; stroke-width: 0.8"/>
      </g>
     </g>
     <g id="text_10">
      <!-- 2018-06 -->
      <g transform="translate(210.953616 415.355469)rotate(-90)scale(0.11 -0.11)">
       <defs>
        <path id="DejaVuSans-36" d="M 2113 2584 
Q 1688 2584 1439 2293 
Q 1191 2003 1191 1497 
Q 1191 994 1439 701 
Q 1688 409 2113 409 
Q 2538 409 2786 701 
Q 3034 994 3034 1497 
Q 3034 2003 2786 2293 
Q 2538 2584 2113 2584 
z
M 3366 4563 
L 3366 3988 
Q 3128 4100 2886 4159 
Q 2644 4219 2406 4219 
Q 1781 4219 1451 3797 
Q 1122 3375 1075 2522 
Q 1259 2794 1537 2939 
Q 1816 3084 2150 3084 
Q 2853 3084 3261 2657 
Q 3669 2231 3669 1497 
Q 3669 778 3244 343 
Q 2819 -91 2113 -91 
Q 1303 -91 875 529 
Q 447 1150 447 2328 
Q 447 3434 972 4092 
Q 1497 4750 2381 4750 
Q 2619 4750 2861 4703 
Q 3103 4656 3366 4563 
z
" transform="scale(0.015625)"/>
       </defs>
       <use xlink:href="#DejaVuSans-32"/>
       <use xlink:href="#DejaVuSans-30" x="63.623047"/>
       <use xlink:href="#DejaVuSans-31" x="127.246094"/>
       <use xlink:href="#DejaVuSans-38" x="190.869141"/>
       <use xlink:href="#DejaVuSans-2d" x="254.492188"/>
       <use xlink:href="#DejaVuSans-30" x="290.576172"/>
       <use xlink:href="#DejaVuSans-36" x="354.199219"/>
      </g>
     </g>
    </g>
    <g id="xtick_11">
     <g id="line2d_11">
      <g>
       <use xlink:href="#m4b4ee5a95d" x="221.204018" y="362.394375" style="stroke: #000000; stroke-width: 0.8"/>
      </g>
     </g>
     <g id="text_11">
      <!-- 2018-07 -->
      <g transform="translate(224.23933 415.355469)rotate(-90)scale(0.11 -0.11)">
       <use xlink:href="#DejaVuSans-32"/>
       <use xlink:href="#DejaVuSans-30" x="63.623047"/>
       <use xlink:href="#DejaVuSans-31" x="127.246094"/>
       <use xlink:href="#DejaVuSans-38" x="190.869141"/>
       <use xlink:href="#DejaVuSans-2d" x="254.492188"/>
       <use xlink:href="#DejaVuSans-30" x="290.576172"/>
       <use xlink:href="#DejaVuSans-37" x="354.199219"/>
      </g>
     </g>
    </g>
    <g id="xtick_12">
     <g id="line2d_12">
      <g>
       <use xlink:href="#m4b4ee5a95d" x="234.489732" y="362.394375" style="stroke: #000000; stroke-width: 0.8"/>
      </g>
     </g>
     <g id="text_12">
      <!-- 2018-08 -->
      <g transform="translate(237.525045 415.355469)rotate(-90)scale(0.11 -0.11)">
       <use xlink:href="#DejaVuSans-32"/>
       <use xlink:href="#DejaVuSans-30" x="63.623047"/>
       <use xlink:href="#DejaVuSans-31" x="127.246094"/>
       <use xlink:href="#DejaVuSans-38" x="190.869141"/>
       <use xlink:href="#DejaVuSans-2d" x="254.492188"/>
       <use xlink:href="#DejaVuSans-30" x="290.576172"/>
       <use xlink:href="#DejaVuSans-38" x="354.199219"/>
      </g>
     </g>
    </g>
    <g id="xtick_13">
     <g id="line2d_13">
      <g>
       <use xlink:href="#m4b4ee5a95d" x="247.775446" y="362.394375" style="stroke: #000000; stroke-width: 0.8"/>
      </g>
     </g>
     <g id="text_13">
      <!-- 2018-09 -->
      <g transform="translate(250.810759 415.355469)rotate(-90)scale(0.11 -0.11)">
       <use xlink:href="#DejaVuSans-32"/>
       <use xlink:href="#DejaVuSans-30" x="63.623047"/>
       <use xlink:href="#DejaVuSans-31" x="127.246094"/>
       <use xlink:href="#DejaVuSans-38" x="190.869141"/>
       <use xlink:href="#DejaVuSans-2d" x="254.492188"/>
       <use xlink:href="#DejaVuSans-30" x="290.576172"/>
       <use xlink:href="#DejaVuSans-39" x="354.199219"/>
      </g>
     </g>
    </g>
    <g id="xtick_14">
     <g id="line2d_14">
      <g>
       <use xlink:href="#m4b4ee5a95d" x="261.061161" y="362.394375" style="stroke: #000000; stroke-width: 0.8"/>
      </g>
     </g>
     <g id="text_14">
      <!-- 2018-10 -->
      <g transform="translate(264.096473 415.355469)rotate(-90)scale(0.11 -0.11)">
       <use xlink:href="#DejaVuSans-32"/>
       <use xlink:href="#DejaVuSans-30" x="63.623047"/>
       <use xlink:href="#DejaVuSans-31" x="127.246094"/>
       <use xlink:href="#DejaVuSans-38" x="190.869141"/>
       <use xlink:href="#DejaVuSans-2d" x="254.492188"/>
       <use xlink:href="#DejaVuSans-31" x="290.576172"/>
       <use xlink:href="#DejaVuSans-30" x="354.199219"/>
      </g>
     </g>
    </g>
    <g id="xtick_15">
     <g id="line2d_15">
      <g>
       <use xlink:href="#m4b4ee5a95d" x="274.346875" y="362.394375" style="stroke: #000000; stroke-width: 0.8"/>
      </g>
     </g>
     <g id="text_15">
      <!-- 2018-11 -->
      <g transform="translate(277.382187 415.355469)rotate(-90)scale(0.11 -0.11)">
       <use xlink:href="#DejaVuSans-32"/>
       <use xlink:href="#DejaVuSans-30" x="63.623047"/>
       <use xlink:href="#DejaVuSans-31" x="127.246094"/>
       <use xlink:href="#DejaVuSans-38" x="190.869141"/>
       <use xlink:href="#DejaVuSans-2d" x="254.492188"/>
       <use xlink:href="#DejaVuSans-31" x="290.576172"/>
       <use xlink:href="#DejaVuSans-31" x="354.199219"/>
      </g>
     </g>
    </g>
    <g id="xtick_16">
     <g id="line2d_16">
      <g>
       <use xlink:href="#m4b4ee5a95d" x="287.632589" y="362.394375" style="stroke: #000000; stroke-width: 0.8"/>
      </g>
     </g>
     <g id="text_16">
      <!-- 2018-12 -->
      <g transform="translate(290.667902 415.355469)rotate(-90)scale(0.11 -0.11)">
       <use xlink:href="#DejaVuSans-32"/>
       <use xlink:href="#DejaVuSans-30" x="63.623047"/>
       <use xlink:href="#DejaVuSans-31" x="127.246094"/>
       <use xlink:href="#DejaVuSans-38" x="190.869141"/>
       <use xlink:href="#DejaVuSans-2d" x="254.492188"/>
       <use xlink:href="#DejaVuSans-31" x="290.576172"/>
       <use xlink:href="#DejaVuSans-32" x="354.199219"/>
      </g>
     </g>
    </g>
    <g id="xtick_17">
     <g id="line2d_17">
      <g>
       <use xlink:href="#m4b4ee5a95d" x="300.918304" y="362.394375" style="stroke: #000000; stroke-width: 0.8"/>
      </g>
     </g>
     <g id="text_17">
      <!-- 2019-01 -->
      <g transform="translate(303.953616 415.355469)rotate(-90)scale(0.11 -0.11)">
       <use xlink:href="#DejaVuSans-32"/>
       <use xlink:href="#DejaVuSans-30" x="63.623047"/>
       <use xlink:href="#DejaVuSans-31" x="127.246094"/>
       <use xlink:href="#DejaVuSans-39" x="190.869141"/>
       <use xlink:href="#DejaVuSans-2d" x="254.492188"/>
       <use xlink:href="#DejaVuSans-30" x="290.576172"/>
       <use xlink:href="#DejaVuSans-31" x="354.199219"/>
      </g>
     </g>
    </g>
    <g id="xtick_18">
     <g id="line2d_18">
      <g>
       <use xlink:href="#m4b4ee5a95d" x="314.204018" y="362.394375" style="stroke: #000000; stroke-width: 0.8"/>
      </g>
     </g>
     <g id="text_18">
      <!-- 2019-02 -->
      <g transform="translate(317.23933 415.355469)rotate(-90)scale(0.11 -0.11)">
       <use xlink:href="#DejaVuSans-32"/>
       <use xlink:href="#DejaVuSans-30" x="63.623047"/>
       <use xlink:href="#DejaVuSans-31" x="127.246094"/>
       <use xlink:href="#DejaVuSans-39" x="190.869141"/>
       <use xlink:href="#DejaVuSans-2d" x="254.492188"/>
       <use xlink:href="#DejaVuSans-30" x="290.576172"/>
       <use xlink:href="#DejaVuSans-32" x="354.199219"/>
      </g>
     </g>
    </g>
    <g id="xtick_19">
     <g id="line2d_19">
      <g>
       <use xlink:href="#m4b4ee5a95d" x="327.489732" y="362.394375" style="stroke: #000000; stroke-width: 0.8"/>
      </g>
     </g>
     <g id="text_19">
      <!-- 2019-03 -->
      <g transform="translate(330.525045 415.355469)rotate(-90)scale(0.11 -0.11)">
       <use xlink:href="#DejaVuSans-32"/>
       <use xlink:href="#DejaVuSans-30" x="63.623047"/>
       <use xlink:href="#DejaVuSans-31" x="127.246094"/>
       <use xlink:href="#DejaVuSans-39" x="190.869141"/>
       <use xlink:href="#DejaVuSans-2d" x="254.492188"/>
       <use xlink:href="#DejaVuSans-30" x="290.576172"/>
       <use xlink:href="#DejaVuSans-33" x="354.199219"/>
      </g>
     </g>
    </g>
    <g id="xtick_20">
     <g id="line2d_20">
      <g>
       <use xlink:href="#m4b4ee5a95d" x="340.775446" y="362.394375" style="stroke: #000000; stroke-width: 0.8"/>
      </g>
     </g>
     <g id="text_20">
      <!-- 2019-04 -->
      <g transform="translate(343.810759 415.355469)rotate(-90)scale(0.11 -0.11)">
       <use xlink:href="#DejaVuSans-32"/>
       <use xlink:href="#DejaVuSans-30" x="63.623047"/>
       <use xlink:href="#DejaVuSans-31" x="127.246094"/>
       <use xlink:href="#DejaVuSans-39" x="190.869141"/>
       <use xlink:href="#DejaVuSans-2d" x="254.492188"/>
       <use xlink:href="#DejaVuSans-30" x="290.576172"/>
       <use xlink:href="#DejaVuSans-34" x="354.199219"/>
      </g>
     </g>
    </g>
    <g id="xtick_21">
     <g id="line2d_21">
      <g>
       <use xlink:href="#m4b4ee5a95d" x="354.061161" y="362.394375" style="stroke: #000000; stroke-width: 0.8"/>
      </g>
     </g>
     <g id="text_21">
      <!-- 2019-05 -->
      <g transform="translate(357.096473 415.355469)rotate(-90)scale(0.11 -0.11)">
       <use xlink:href="#DejaVuSans-32"/>
       <use xlink:href="#DejaVuSans-30" x="63.623047"/>
       <use xlink:href="#DejaVuSans-31" x="127.246094"/>
       <use xlink:href="#DejaVuSans-39" x="190.869141"/>
       <use xlink:href="#DejaVuSans-2d" x="254.492188"/>
       <use xlink:href="#DejaVuSans-30" x="290.576172"/>
       <use xlink:href="#DejaVuSans-35" x="354.199219"/>
      </g>
     </g>
    </g>
    <g id="xtick_22">
     <g id="line2d_22">
      <g>
       <use xlink:href="#m4b4ee5a95d" x="367.346875" y="362.394375" style="stroke: #000000; stroke-width: 0.8"/>
      </g>
     </g>
     <g id="text_22">
      <!-- 2019-06 -->
      <g transform="translate(370.382187 415.355469)rotate(-90)scale(0.11 -0.11)">
       <use xlink:href="#DejaVuSans-32"/>
       <use xlink:href="#DejaVuSans-30" x="63.623047"/>
       <use xlink:href="#DejaVuSans-31" x="127.246094"/>
       <use xlink:href="#DejaVuSans-39" x="190.869141"/>
       <use xlink:href="#DejaVuSans-2d" x="254.492188"/>
       <use xlink:href="#DejaVuSans-30" x="290.576172"/>
       <use xlink:href="#DejaVuSans-36" x="354.199219"/>
      </g>
     </g>
    </g>
    <g id="xtick_23">
     <g id="line2d_23">
      <g>
       <use xlink:href="#m4b4ee5a95d" x="380.632589" y="362.394375" style="stroke: #000000; stroke-width: 0.8"/>
      </g>
     </g>
     <g id="text_23">
      <!-- 2019-07 -->
      <g transform="translate(383.667902 415.355469)rotate(-90)scale(0.11 -0.11)">
       <use xlink:href="#DejaVuSans-32"/>
       <use xlink:href="#DejaVuSans-30" x="63.623047"/>
       <use xlink:href="#DejaVuSans-31" x="127.246094"/>
       <use xlink:href="#DejaVuSans-39" x="190.869141"/>
       <use xlink:href="#DejaVuSans-2d" x="254.492188"/>
       <use xlink:href="#DejaVuSans-30" x="290.576172"/>
       <use xlink:href="#DejaVuSans-37" x="354.199219"/>
      </g>
     </g>
    </g>
    <g id="xtick_24">
     <g id="line2d_24">
      <g>
       <use xlink:href="#m4b4ee5a95d" x="393.918304" y="362.394375" style="stroke: #000000; stroke-width: 0.8"/>
      </g>
     </g>
     <g id="text_24">
      <!-- 2019-08 -->
      <g transform="translate(396.953616 415.355469)rotate(-90)scale(0.11 -0.11)">
       <use xlink:href="#DejaVuSans-32"/>
       <use xlink:href="#DejaVuSans-30" x="63.623047"/>
       <use xlink:href="#DejaVuSans-31" x="127.246094"/>
       <use xlink:href="#DejaVuSans-39" x="190.869141"/>
       <use xlink:href="#DejaVuSans-2d" x="254.492188"/>
       <use xlink:href="#DejaVuSans-30" x="290.576172"/>
       <use xlink:href="#DejaVuSans-38" x="354.199219"/>
      </g>
     </g>
    </g>
    <g id="xtick_25">
     <g id="line2d_25">
      <g>
       <use xlink:href="#m4b4ee5a95d" x="407.204018" y="362.394375" style="stroke: #000000; stroke-width: 0.8"/>
      </g>
     </g>
     <g id="text_25">
      <!-- 2019-09 -->
      <g transform="translate(410.23933 415.355469)rotate(-90)scale(0.11 -0.11)">
       <use xlink:href="#DejaVuSans-32"/>
       <use xlink:href="#DejaVuSans-30" x="63.623047"/>
       <use xlink:href="#DejaVuSans-31" x="127.246094"/>
       <use xlink:href="#DejaVuSans-39" x="190.869141"/>
       <use xlink:href="#DejaVuSans-2d" x="254.492188"/>
       <use xlink:href="#DejaVuSans-30" x="290.576172"/>
       <use xlink:href="#DejaVuSans-39" x="354.199219"/>
      </g>
     </g>
    </g>
    <g id="xtick_26">
     <g id="line2d_26">
      <g>
       <use xlink:href="#m4b4ee5a95d" x="420.489732" y="362.394375" style="stroke: #000000; stroke-width: 0.8"/>
      </g>
     </g>
     <g id="text_26">
      <!-- 2019-10 -->
      <g transform="translate(423.525045 415.355469)rotate(-90)scale(0.11 -0.11)">
       <use xlink:href="#DejaVuSans-32"/>
       <use xlink:href="#DejaVuSans-30" x="63.623047"/>
       <use xlink:href="#DejaVuSans-31" x="127.246094"/>
       <use xlink:href="#DejaVuSans-39" x="190.869141"/>
       <use xlink:href="#DejaVuSans-2d" x="254.492188"/>
       <use xlink:href="#DejaVuSans-31" x="290.576172"/>
       <use xlink:href="#DejaVuSans-30" x="354.199219"/>
      </g>
     </g>
    </g>
    <g id="xtick_27">
     <g id="line2d_27">
      <g>
       <use xlink:href="#m4b4ee5a95d" x="433.775446" y="362.394375" style="stroke: #000000; stroke-width: 0.8"/>
      </g>
     </g>
     <g id="text_27">
      <!-- 2019-11 -->
      <g transform="translate(436.810759 415.355469)rotate(-90)scale(0.11 -0.11)">
       <use xlink:href="#DejaVuSans-32"/>
       <use xlink:href="#DejaVuSans-30" x="63.623047"/>
       <use xlink:href="#DejaVuSans-31" x="127.246094"/>
       <use xlink:href="#DejaVuSans-39" x="190.869141"/>
       <use xlink:href="#DejaVuSans-2d" x="254.492188"/>
       <use xlink:href="#DejaVuSans-31" x="290.576172"/>
       <use xlink:href="#DejaVuSans-31" x="354.199219"/>
      </g>
     </g>
    </g>
    <g id="xtick_28">
     <g id="line2d_28">
      <g>
       <use xlink:href="#m4b4ee5a95d" x="447.061161" y="362.394375" style="stroke: #000000; stroke-width: 0.8"/>
      </g>
     </g>
     <g id="text_28">
      <!-- 2019-12 -->
      <g transform="translate(450.096473 415.355469)rotate(-90)scale(0.11 -0.11)">
       <use xlink:href="#DejaVuSans-32"/>
       <use xlink:href="#DejaVuSans-30" x="63.623047"/>
       <use xlink:href="#DejaVuSans-31" x="127.246094"/>
       <use xlink:href="#DejaVuSans-39" x="190.869141"/>
       <use xlink:href="#DejaVuSans-2d" x="254.492188"/>
       <use xlink:href="#DejaVuSans-31" x="290.576172"/>
       <use xlink:href="#DejaVuSans-32" x="354.199219"/>
      </g>
     </g>
    </g>
    <g id="xtick_29">
     <g id="line2d_29">
      <g>
       <use xlink:href="#m4b4ee5a95d" x="460.346875" y="362.394375" style="stroke: #000000; stroke-width: 0.8"/>
      </g>
     </g>
     <g id="text_29">
      <!-- 2020-01 -->
      <g transform="translate(463.382187 415.355469)rotate(-90)scale(0.11 -0.11)">
       <use xlink:href="#DejaVuSans-32"/>
       <use xlink:href="#DejaVuSans-30" x="63.623047"/>
       <use xlink:href="#DejaVuSans-32" x="127.246094"/>
       <use xlink:href="#DejaVuSans-30" x="190.869141"/>
       <use xlink:href="#DejaVuSans-2d" x="254.492188"/>
       <use xlink:href="#DejaVuSans-30" x="290.576172"/>
       <use xlink:href="#DejaVuSans-31" x="354.199219"/>
      </g>
     </g>
    </g>
    <g id="xtick_30">
     <g id="line2d_30">
      <g>
       <use xlink:href="#m4b4ee5a95d" x="473.632589" y="362.394375" style="stroke: #000000; stroke-width: 0.8"/>
      </g>
     </g>
     <g id="text_30">
      <!-- 2020-02 -->
      <g transform="translate(476.667902 415.355469)rotate(-90)scale(0.11 -0.11)">
       <use xlink:href="#DejaVuSans-32"/>
       <use xlink:href="#DejaVuSans-30" x="63.623047"/>
       <use xlink:href="#DejaVuSans-32" x="127.246094"/>
       <use xlink:href="#DejaVuSans-30" x="190.869141"/>
       <use xlink:href="#DejaVuSans-2d" x="254.492188"/>
       <use xlink:href="#DejaVuSans-30" x="290.576172"/>
       <use xlink:href="#DejaVuSans-32" x="354.199219"/>
      </g>
     </g>
    </g>
    <g id="xtick_31">
     <g id="line2d_31">
      <g>
       <use xlink:href="#m4b4ee5a95d" x="486.918304" y="362.394375" style="stroke: #000000; stroke-width: 0.8"/>
      </g>
     </g>
     <g id="text_31">
      <!-- 2020-03 -->
      <g transform="translate(489.953616 415.355469)rotate(-90)scale(0.11 -0.11)">
       <use xlink:href="#DejaVuSans-32"/>
       <use xlink:href="#DejaVuSans-30" x="63.623047"/>
       <use xlink:href="#DejaVuSans-32" x="127.246094"/>
       <use xlink:href="#DejaVuSans-30" x="190.869141"/>
       <use xlink:href="#DejaVuSans-2d" x="254.492188"/>
       <use xlink:href="#DejaVuSans-30" x="290.576172"/>
       <use xlink:href="#DejaVuSans-33" x="354.199219"/>
      </g>
     </g>
    </g>
    <g id="xtick_32">
     <g id="line2d_32">
      <g>
       <use xlink:href="#m4b4ee5a95d" x="500.204018" y="362.394375" style="stroke: #000000; stroke-width: 0.8"/>
      </g>
     </g>
     <g id="text_32">
      <!-- 2020-04 -->
      <g transform="translate(503.23933 415.355469)rotate(-90)scale(0.11 -0.11)">
       <use xlink:href="#DejaVuSans-32"/>
       <use xlink:href="#DejaVuSans-30" x="63.623047"/>
       <use xlink:href="#DejaVuSans-32" x="127.246094"/>
       <use xlink:href="#DejaVuSans-30" x="190.869141"/>
       <use xlink:href="#DejaVuSans-2d" x="254.492188"/>
       <use xlink:href="#DejaVuSans-30" x="290.576172"/>
       <use xlink:href="#DejaVuSans-34" x="354.199219"/>
      </g>
     </g>
    </g>
    <g id="xtick_33">
     <g id="line2d_33">
      <g>
       <use xlink:href="#m4b4ee5a95d" x="513.489732" y="362.394375" style="stroke: #000000; stroke-width: 0.8"/>
      </g>
     </g>
     <g id="text_33">
      <!-- 2020-05 -->
      <g transform="translate(516.525045 415.355469)rotate(-90)scale(0.11 -0.11)">
       <use xlink:href="#DejaVuSans-32"/>
       <use xlink:href="#DejaVuSans-30" x="63.623047"/>
       <use xlink:href="#DejaVuSans-32" x="127.246094"/>
       <use xlink:href="#DejaVuSans-30" x="190.869141"/>
       <use xlink:href="#DejaVuSans-2d" x="254.492188"/>
       <use xlink:href="#DejaVuSans-30" x="290.576172"/>
       <use xlink:href="#DejaVuSans-35" x="354.199219"/>
      </g>
     </g>
    </g>
    <g id="xtick_34">
     <g id="line2d_34">
      <g>
       <use xlink:href="#m4b4ee5a95d" x="526.775446" y="362.394375" style="stroke: #000000; stroke-width: 0.8"/>
      </g>
     </g>
     <g id="text_34">
      <!-- 2020-06 -->
      <g transform="translate(529.810759 415.355469)rotate(-90)scale(0.11 -0.11)">
       <use xlink:href="#DejaVuSans-32"/>
       <use xlink:href="#DejaVuSans-30" x="63.623047"/>
       <use xlink:href="#DejaVuSans-32" x="127.246094"/>
       <use xlink:href="#DejaVuSans-30" x="190.869141"/>
       <use xlink:href="#DejaVuSans-2d" x="254.492188"/>
       <use xlink:href="#DejaVuSans-30" x="290.576172"/>
       <use xlink:href="#DejaVuSans-36" x="354.199219"/>
      </g>
     </g>
    </g>
    <g id="xtick_35">
     <g id="line2d_35">
      <g>
       <use xlink:href="#m4b4ee5a95d" x="540.061161" y="362.394375" style="stroke: #000000; stroke-width: 0.8"/>
      </g>
     </g>
     <g id="text_35">
      <!-- 2020-07 -->
      <g transform="translate(543.096473 415.355469)rotate(-90)scale(0.11 -0.11)">
       <use xlink:href="#DejaVuSans-32"/>
       <use xlink:href="#DejaVuSans-30" x="63.623047"/>
       <use xlink:href="#DejaVuSans-32" x="127.246094"/>
       <use xlink:href="#DejaVuSans-30" x="190.869141"/>
       <use xlink:href="#DejaVuSans-2d" x="254.492188"/>
       <use xlink:href="#DejaVuSans-30" x="290.576172"/>
       <use xlink:href="#DejaVuSans-37" x="354.199219"/>
      </g>
     </g>
    </g>
    <g id="xtick_36">
     <g id="line2d_36">
      <g>
       <use xlink:href="#m4b4ee5a95d" x="553.346875" y="362.394375" style="stroke: #000000; stroke-width: 0.8"/>
      </g>
     </g>
     <g id="text_36">
      <!-- 2020-08 -->
      <g transform="translate(556.382187 415.355469)rotate(-90)scale(0.11 -0.11)">
       <use xlink:href="#DejaVuSans-32"/>
       <use xlink:href="#DejaVuSans-30" x="63.623047"/>
       <use xlink:href="#DejaVuSans-32" x="127.246094"/>
       <use xlink:href="#DejaVuSans-30" x="190.869141"/>
       <use xlink:href="#DejaVuSans-2d" x="254.492188"/>
       <use xlink:href="#DejaVuSans-30" x="290.576172"/>
       <use xlink:href="#DejaVuSans-38" x="354.199219"/>
      </g>
     </g>
    </g>
    <g id="xtick_37">
     <g id="line2d_37">
      <g>
       <use xlink:href="#m4b4ee5a95d" x="566.632589" y="362.394375" style="stroke: #000000; stroke-width: 0.8"/>
      </g>
     </g>
     <g id="text_37">
      <!-- 2020-09 -->
      <g transform="translate(569.667902 415.355469)rotate(-90)scale(0.11 -0.11)">
       <use xlink:href="#DejaVuSans-32"/>
       <use xlink:href="#DejaVuSans-30" x="63.623047"/>
       <use xlink:href="#DejaVuSans-32" x="127.246094"/>
       <use xlink:href="#DejaVuSans-30" x="190.869141"/>
       <use xlink:href="#DejaVuSans-2d" x="254.492188"/>
       <use xlink:href="#DejaVuSans-30" x="290.576172"/>
       <use xlink:href="#DejaVuSans-39" x="354.199219"/>
      </g>
     </g>
    </g>
    <g id="xtick_38">
     <g id="line2d_38">
      <g>
       <use xlink:href="#m4b4ee5a95d" x="579.918304" y="362.394375" style="stroke: #000000; stroke-width: 0.8"/>
      </g>
     </g>
     <g id="text_38">
      <!-- 2020-10 -->
      <g transform="translate(582.953616 415.355469)rotate(-90)scale(0.11 -0.11)">
       <use xlink:href="#DejaVuSans-32"/>
       <use xlink:href="#DejaVuSans-30" x="63.623047"/>
       <use xlink:href="#DejaVuSans-32" x="127.246094"/>
       <use xlink:href="#DejaVuSans-30" x="190.869141"/>
       <use xlink:href="#DejaVuSans-2d" x="254.492188"/>
       <use xlink:href="#DejaVuSans-31" x="290.576172"/>
       <use xlink:href="#DejaVuSans-30" x="354.199219"/>
      </g>
     </g>
    </g>
    <g id="xtick_39">
     <g id="line2d_39">
      <g>
       <use xlink:href="#m4b4ee5a95d" x="593.204018" y="362.394375" style="stroke: #000000; stroke-width: 0.8"/>
      </g>
     </g>
     <g id="text_39">
      <!-- 2020-11 -->
      <g transform="translate(596.23933 415.355469)rotate(-90)scale(0.11 -0.11)">
       <use xlink:href="#DejaVuSans-32"/>
       <use xlink:href="#DejaVuSans-30" x="63.623047"/>
       <use xlink:href="#DejaVuSans-32" x="127.246094"/>
       <use xlink:href="#DejaVuSans-30" x="190.869141"/>
       <use xlink:href="#DejaVuSans-2d" x="254.492188"/>
       <use xlink:href="#DejaVuSans-31" x="290.576172"/>
       <use xlink:href="#DejaVuSans-31" x="354.199219"/>
      </g>
     </g>
    </g>
    <g id="xtick_40">
     <g id="line2d_40">
      <g>
       <use xlink:href="#m4b4ee5a95d" x="606.489732" y="362.394375" style="stroke: #000000; stroke-width: 0.8"/>
      </g>
     </g>
     <g id="text_40">
      <!-- 2020-12 -->
      <g transform="translate(609.525045 415.355469)rotate(-90)scale(0.11 -0.11)">
       <use xlink:href="#DejaVuSans-32"/>
       <use xlink:href="#DejaVuSans-30" x="63.623047"/>
       <use xlink:href="#DejaVuSans-32" x="127.246094"/>
       <use xlink:href="#DejaVuSans-30" x="190.869141"/>
       <use xlink:href="#DejaVuSans-2d" x="254.492188"/>
       <use xlink:href="#DejaVuSans-31" x="290.576172"/>
       <use xlink:href="#DejaVuSans-32" x="354.199219"/>
      </g>
     </g>
    </g>
    <g id="xtick_41">
     <g id="line2d_41">
      <g>
       <use xlink:href="#m4b4ee5a95d" x="619.775446" y="362.394375" style="stroke: #000000; stroke-width: 0.8"/>
      </g>
     </g>
     <g id="text_41">
      <!-- 2021-01 -->
      <g transform="translate(622.810759 415.355469)rotate(-90)scale(0.11 -0.11)">
       <use xlink:href="#DejaVuSans-32"/>
       <use xlink:href="#DejaVuSans-30" x="63.623047"/>
       <use xlink:href="#DejaVuSans-32" x="127.246094"/>
       <use xlink:href="#DejaVuSans-31" x="190.869141"/>
       <use xlink:href="#DejaVuSans-2d" x="254.492188"/>
       <use xlink:href="#DejaVuSans-30" x="290.576172"/>
       <use xlink:href="#DejaVuSans-31" x="354.199219"/>
      </g>
     </g>
    </g>
    <g id="xtick_42">
     <g id="line2d_42">
      <g>
       <use xlink:href="#m4b4ee5a95d" x="633.061161" y="362.394375" style="stroke: #000000; stroke-width: 0.8"/>
      </g>
     </g>
     <g id="text_42">
      <!-- 2021-02 -->
      <g transform="translate(636.096473 415.355469)rotate(-90)scale(0.11 -0.11)">
       <use xlink:href="#DejaVuSans-32"/>
       <use xlink:href="#DejaVuSans-30" x="63.623047"/>
       <use xlink:href="#DejaVuSans-32" x="127.246094"/>
       <use xlink:href="#DejaVuSans-31" x="190.869141"/>
       <use xlink:href="#DejaVuSans-2d" x="254.492188"/>
       <use xlink:href="#DejaVuSans-30" x="290.576172"/>
       <use xlink:href="#DejaVuSans-32" x="354.199219"/>
      </g>
     </g>
    </g>
    <g id="xtick_43">
     <g id="line2d_43">
      <g>
       <use xlink:href="#m4b4ee5a95d" x="646.346875" y="362.394375" style="stroke: #000000; stroke-width: 0.8"/>
      </g>
     </g>
     <g id="text_43">
      <!-- 2021-03 -->
      <g transform="translate(649.382187 415.355469)rotate(-90)scale(0.11 -0.11)">
       <use xlink:href="#DejaVuSans-32"/>
       <use xlink:href="#DejaVuSans-30" x="63.623047"/>
       <use xlink:href="#DejaVuSans-32" x="127.246094"/>
       <use xlink:href="#DejaVuSans-31" x="190.869141"/>
       <use xlink:href="#DejaVuSans-2d" x="254.492188"/>
       <use xlink:href="#DejaVuSans-30" x="290.576172"/>
       <use xlink:href="#DejaVuSans-33" x="354.199219"/>
      </g>
     </g>
    </g>
    <g id="xtick_44">
     <g id="line2d_44">
      <g>
       <use xlink:href="#m4b4ee5a95d" x="659.632589" y="362.394375" style="stroke: #000000; stroke-width: 0.8"/>
      </g>
     </g>
     <g id="text_44">
      <!-- 2021-04 -->
      <g transform="translate(662.667902 415.355469)rotate(-90)scale(0.11 -0.11)">
       <use xlink:href="#DejaVuSans-32"/>
       <use xlink:href="#DejaVuSans-30" x="63.623047"/>
       <use xlink:href="#DejaVuSans-32" x="127.246094"/>
       <use xlink:href="#DejaVuSans-31" x="190.869141"/>
       <use xlink:href="#DejaVuSans-2d" x="254.492188"/>
       <use xlink:href="#DejaVuSans-30" x="290.576172"/>
       <use xlink:href="#DejaVuSans-34" x="354.199219"/>
      </g>
     </g>
    </g>
    <g id="xtick_45">
     <g id="line2d_45">
      <g>
       <use xlink:href="#m4b4ee5a95d" x="672.918304" y="362.394375" style="stroke: #000000; stroke-width: 0.8"/>
      </g>
     </g>
     <g id="text_45">
      <!-- 2021-05 -->
      <g transform="translate(675.953616 415.355469)rotate(-90)scale(0.11 -0.11)">
       <use xlink:href="#DejaVuSans-32"/>
       <use xlink:href="#DejaVuSans-30" x="63.623047"/>
       <use xlink:href="#DejaVuSans-32" x="127.246094"/>
       <use xlink:href="#DejaVuSans-31" x="190.869141"/>
       <use xlink:href="#DejaVuSans-2d" x="254.492188"/>
       <use xlink:href="#DejaVuSans-30" x="290.576172"/>
       <use xlink:href="#DejaVuSans-35" x="354.199219"/>
      </g>
     </g>
    </g>
    <g id="xtick_46">
     <g id="line2d_46">
      <g>
       <use xlink:href="#m4b4ee5a95d" x="686.204018" y="362.394375" style="stroke: #000000; stroke-width: 0.8"/>
      </g>
     </g>
     <g id="text_46">
      <!-- 2021-06 -->
      <g transform="translate(689.23933 415.355469)rotate(-90)scale(0.11 -0.11)">
       <use xlink:href="#DejaVuSans-32"/>
       <use xlink:href="#DejaVuSans-30" x="63.623047"/>
       <use xlink:href="#DejaVuSans-32" x="127.246094"/>
       <use xlink:href="#DejaVuSans-31" x="190.869141"/>
       <use xlink:href="#DejaVuSans-2d" x="254.492188"/>
       <use xlink:href="#DejaVuSans-30" x="290.576172"/>
       <use xlink:href="#DejaVuSans-36" x="354.199219"/>
      </g>
     </g>
    </g>
    <g id="xtick_47">
     <g id="line2d_47">
      <g>
       <use xlink:href="#m4b4ee5a95d" x="699.489732" y="362.394375" style="stroke: #000000; stroke-width: 0.8"/>
      </g>
     </g>
     <g id="text_47">
      <!-- 2021-07 -->
      <g transform="translate(702.525045 415.355469)rotate(-90)scale(0.11 -0.11)">
       <use xlink:href="#DejaVuSans-32"/>
       <use xlink:href="#DejaVuSans-30" x="63.623047"/>
       <use xlink:href="#DejaVuSans-32" x="127.246094"/>
       <use xlink:href="#DejaVuSans-31" x="190.869141"/>
       <use xlink:href="#DejaVuSans-2d" x="254.492188"/>
       <use xlink:href="#DejaVuSans-30" x="290.576172"/>
       <use xlink:href="#DejaVuSans-37" x="354.199219"/>
      </g>
     </g>
    </g>
    <g id="xtick_48">
     <g id="line2d_48">
      <g>
       <use xlink:href="#m4b4ee5a95d" x="712.775446" y="362.394375" style="stroke: #000000; stroke-width: 0.8"/>
      </g>
     </g>
     <g id="text_48">
      <!-- 2021-08 -->
      <g transform="translate(715.810759 415.355469)rotate(-90)scale(0.11 -0.11)">
       <use xlink:href="#DejaVuSans-32"/>
       <use xlink:href="#DejaVuSans-30" x="63.623047"/>
       <use xlink:href="#DejaVuSans-32" x="127.246094"/>
       <use xlink:href="#DejaVuSans-31" x="190.869141"/>
       <use xlink:href="#DejaVuSans-2d" x="254.492188"/>
       <use xlink:href="#DejaVuSans-30" x="290.576172"/>
       <use xlink:href="#DejaVuSans-38" x="354.199219"/>
      </g>
     </g>
    </g>
    <g id="xtick_49">
     <g id="line2d_49">
      <g>
       <use xlink:href="#m4b4ee5a95d" x="726.061161" y="362.394375" style="stroke: #000000; stroke-width: 0.8"/>
      </g>
     </g>
     <g id="text_49">
      <!-- 2021-09 -->
      <g transform="translate(729.096473 415.355469)rotate(-90)scale(0.11 -0.11)">
       <use xlink:href="#DejaVuSans-32"/>
       <use xlink:href="#DejaVuSans-30" x="63.623047"/>
       <use xlink:href="#DejaVuSans-32" x="127.246094"/>
       <use xlink:href="#DejaVuSans-31" x="190.869141"/>
       <use xlink:href="#DejaVuSans-2d" x="254.492188"/>
       <use xlink:href="#DejaVuSans-30" x="290.576172"/>
       <use xlink:href="#DejaVuSans-39" x="354.199219"/>
      </g>
     </g>
    </g>
    <g id="xtick_50">
     <g id="line2d_50">
      <g>
       <use xlink:href="#m4b4ee5a95d" x="739.346875" y="362.394375" style="stroke: #000000; stroke-width: 0.8"/>
      </g>
     </g>
     <g id="text_50">
      <!-- 2021-10 -->
      <g transform="translate(742.382187 415.355469)rotate(-90)scale(0.11 -0.11)">
       <use xlink:href="#DejaVuSans-32"/>
       <use xlink:href="#DejaVuSans-30" x="63.623047"/>
       <use xlink:href="#DejaVuSans-32" x="127.246094"/>
       <use xlink:href="#DejaVuSans-31" x="190.869141"/>
       <use xlink:href="#DejaVuSans-2d" x="254.492188"/>
       <use xlink:href="#DejaVuSans-31" x="290.576172"/>
       <use xlink:href="#DejaVuSans-30" x="354.199219"/>
      </g>
     </g>
    </g>
   </g>
   <g id="matplotlib.axis_2">
    <g id="ytick_1">
     <g id="line2d_51">
      <defs>
       <path id="m8a72b27fba" d="M 0 0 
L -3.5 0 
" style="stroke: #000000; stroke-width: 0.8"/>
      </defs>
      <g>
       <use xlink:href="#m8a72b27fba" x="79.046875" y="362.394375" style="stroke: #000000; stroke-width: 0.8"/>
      </g>
     </g>
     <g id="text_51">
      <!-- 0 -->
      <g transform="translate(56.140625 371.892422)scale(0.25 -0.25)">
       <use xlink:href="#DejaVuSans-30"/>
      </g>
     </g>
    </g>
    <g id="ytick_2">
     <g id="line2d_52">
      <g>
       <use xlink:href="#m8a72b27fba" x="79.046875" y="289.269126" style="stroke: #000000; stroke-width: 0.8"/>
      </g>
     </g>
     <g id="text_52">
      <!-- 20 -->
      <g transform="translate(40.234375 298.767173)scale(0.25 -0.25)">
       <use xlink:href="#DejaVuSans-32"/>
       <use xlink:href="#DejaVuSans-30" x="63.623047"/>
      </g>
     </g>
    </g>
    <g id="ytick_3">
     <g id="line2d_53">
      <g>
       <use xlink:href="#m8a72b27fba" x="79.046875" y="216.143878" style="stroke: #000000; stroke-width: 0.8"/>
      </g>
     </g>
     <g id="text_53">
      <!-- 40 -->
      <g transform="translate(40.234375 225.641925)scale(0.25 -0.25)">
       <use xlink:href="#DejaVuSans-34"/>
       <use xlink:href="#DejaVuSans-30" x="63.623047"/>
      </g>
     </g>
    </g>
    <g id="ytick_4">
     <g id="line2d_54">
      <g>
       <use xlink:href="#m8a72b27fba" x="79.046875" y="143.018629" style="stroke: #000000; stroke-width: 0.8"/>
      </g>
     </g>
     <g id="text_54">
      <!-- 60 -->
      <g transform="translate(40.234375 152.516676)scale(0.25 -0.25)">
       <use xlink:href="#DejaVuSans-36"/>
       <use xlink:href="#DejaVuSans-30" x="63.623047"/>
      </g>
     </g>
    </g>
    <g id="ytick_5">
     <g id="line2d_55">
      <g>
       <use xlink:href="#m8a72b27fba" x="79.046875" y="69.893381" style="stroke: #000000; stroke-width: 0.8"/>
      </g>
     </g>
     <g id="text_55">
      <!-- 80 -->
      <g transform="translate(40.234375 79.391428)scale(0.25 -0.25)">
       <use xlink:href="#DejaVuSans-38"/>
       <use xlink:href="#DejaVuSans-30" x="63.623047"/>
      </g>
     </g>
    </g>
    <g id="text_56">
     <!-- /kWh -->
     <g transform="translate(29.995312 246.934687)rotate(-90)scale(0.3 -0.3)">
      <defs>
       <path id="DejaVuSans-a2" d="M 2119 409 
L 2119 3084 
Q 1659 3028 1403 2675 
Q 1147 2322 1147 1747 
Q 1147 1169 1403 816 
Q 1659 463 2119 409 
z
M 3309 3366 
L 3309 2828 
Q 3078 2956 2865 3022 
Q 2653 3088 2441 3097 
L 2438 397 
Q 2656 413 2870 478 
Q 3084 544 3309 666 
L 3309 134 
Q 3106 41 2892 -14 
Q 2678 -69 2438 -91 
L 2438 -978 
L 2119 -978 
L 2119 -78 
Q 1366 -16 952 464 
Q 538 944 538 1747 
Q 538 2553 952 3031 
Q 1366 3509 2119 3578 
L 2119 4475 
L 2438 4475 
L 2441 3578 
Q 2669 3566 2883 3514 
Q 3097 3463 3309 3366 
z
" transform="scale(0.015625)"/>
       <path id="DejaVuSans-2f" d="M 1625 4666 
L 2156 4666 
L 531 -594 
L 0 -594 
L 1625 4666 
z
" transform="scale(0.015625)"/>
       <path id="DejaVuSans-6b" d="M 581 4863 
L 1159 4863 
L 1159 1991 
L 2875 3500 
L 3609 3500 
L 1753 1863 
L 3688 0 
L 2938 0 
L 1159 1709 
L 1159 0 
L 581 0 
L 581 4863 
z
" transform="scale(0.015625)"/>
       <path id="DejaVuSans-57" d="M 213 4666 
L 850 4666 
L 1831 722 
L 2809 4666 
L 3519 4666 
L 4500 722 
L 5478 4666 
L 6119 4666 
L 4947 0 
L 4153 0 
L 3169 4050 
L 2175 0 
L 1381 0 
L 213 4666 
z
" transform="scale(0.015625)"/>
       <path id="DejaVuSans-68" d="M 3513 2113 
L 3513 0 
L 2938 0 
L 2938 2094 
Q 2938 2591 2744 2837 
Q 2550 3084 2163 3084 
Q 1697 3084 1428 2787 
Q 1159 2491 1159 1978 
L 1159 0 
L 581 0 
L 581 4863 
L 1159 4863 
L 1159 2956 
Q 1366 3272 1645 3428 
Q 1925 3584 2291 3584 
Q 2894 3584 3203 3211 
Q 3513 2838 3513 2113 
z
" transform="scale(0.015625)"/>
      </defs>
      <use xlink:href="#DejaVuSans-a2"/>
      <use xlink:href="#DejaVuSans-2f" x="63.623047"/>
      <use xlink:href="#DejaVuSans-6b" x="97.314453"/>
      <use xlink:href="#DejaVuSans-57" x="155.224609"/>
      <use xlink:href="#DejaVuSans-68" x="254.101562"/>
     </g>
    </g>
   </g>
   <g id="line2d_56">
    <path d="M 88.346875 337.950929 
L 101.632589 331.75837 
L 114.918304 340.664978 
L 128.204018 345.373147 
L 141.489732 346.592472 
L 154.775446 345.175753 
L 168.061161 344.411625 
L 181.346875 342.000852 
L 194.632589 331.306392 
L 207.918304 315.784488 
L 221.204018 311.227481 
L 234.489732 308.835557 
L 247.775446 318.74709 
L 261.061161 347.057197 
L 274.346875 357.667486 
L 287.632589 345.780203 
L 300.918304 347.636705 
L 314.204018 347.841252 
L 327.489732 345.759999 
L 340.775446 342.974571 
L 354.061161 332.775916 
L 367.346875 317.306201 
L 380.632589 306.201054 
L 393.918304 308.025718 
L 407.204018 316.203411 
L 420.489732 335.655131 
L 433.775446 342.838749 
L 447.061161 344.903935 
L 460.346875 345.298726 
L 473.632589 344.892692 
L 486.918304 343.354942 
L 500.204018 341.153408 
L 513.489732 337.785194 
L 526.775446 324.763976 
L 540.061161 311.652212 
L 553.346875 311.574227 
L 566.632589 311.896395 
L 579.918304 323.73589 
L 593.204018 334.754818 
L 606.489732 340.281282 
L 619.775446 342.349195 
L 633.061161 343.701836 
L 646.346875 339.308736 
L 659.632589 328.930803 
L 672.918304 318.56291 
L 686.204018 298.106711 
L 699.489732 298.902644 
L 712.775446 294.624916 
L 726.061161 308.9367 
L 739.346875 304.238614 
" clip-path="url(#p3df3625915)" style="fill: none; stroke: #000000; stroke-width: 1.5; stroke-linecap: square"/>
   </g>
   <g id="patch_103">
    <path d="M 79.046875 362.394375 
L 79.046875 36.234375 
" style="fill: none; stroke: #000000; stroke-width: 0.8; stroke-linejoin: miter; stroke-linecap: square"/>
   </g>
   <g id="patch_104">
    <path d="M 79.046875 362.394375 
L 748.646875 362.394375 
" style="fill: none; stroke: #000000; stroke-width: 0.8; stroke-linejoin: miter; stroke-linecap: square"/>
   </g>
   <g id="text_57">
    <!-- Average energy cost -->
    <g transform="translate(259.323438 29.995312)scale(0.3 -0.3)">
     <defs>
      <path id="DejaVuSans-41" d="M 2188 4044 
L 1331 1722 
L 3047 1722 
L 2188 4044 
z
M 1831 4666 
L 2547 4666 
L 4325 0 
L 3669 0 
L 3244 1197 
L 1141 1197 
L 716 0 
L 50 0 
L 1831 4666 
z
" transform="scale(0.015625)"/>
      <path id="DejaVuSans-76" d="M 191 3500 
L 800 3500 
L 1894 563 
L 2988 3500 
L 3597 3500 
L 2284 0 
L 1503 0 
L 191 3500 
z
" transform="scale(0.015625)"/>
      <path id="DejaVuSans-65" d="M 3597 1894 
L 3597 1613 
L 953 1613 
Q 991 1019 1311 708 
Q 1631 397 2203 397 
Q 2534 397 2845 478 
Q 3156 559 3463 722 
L 3463 178 
Q 3153 47 2828 -22 
Q 2503 -91 2169 -91 
Q 1331 -91 842 396 
Q 353 884 353 1716 
Q 353 2575 817 3079 
Q 1281 3584 2069 3584 
Q 2775 3584 3186 3129 
Q 3597 2675 3597 1894 
z
M 3022 2063 
Q 3016 2534 2758 2815 
Q 2500 3097 2075 3097 
Q 1594 3097 1305 2825 
Q 1016 2553 972 2059 
L 3022 2063 
z
" transform="scale(0.015625)"/>
      <path id="DejaVuSans-72" d="M 2631 2963 
Q 2534 3019 2420 3045 
Q 2306 3072 2169 3072 
Q 1681 3072 1420 2755 
Q 1159 2438 1159 1844 
L 1159 0 
L 581 0 
L 581 3500 
L 1159 3500 
L 1159 2956 
Q 1341 3275 1631 3429 
Q 1922 3584 2338 3584 
Q 2397 3584 2469 3576 
Q 2541 3569 2628 3553 
L 2631 2963 
z
" transform="scale(0.015625)"/>
      <path id="DejaVuSans-61" d="M 2194 1759 
Q 1497 1759 1228 1600 
Q 959 1441 959 1056 
Q 959 750 1161 570 
Q 1363 391 1709 391 
Q 2188 391 2477 730 
Q 2766 1069 2766 1631 
L 2766 1759 
L 2194 1759 
z
M 3341 1997 
L 3341 0 
L 2766 0 
L 2766 531 
Q 2569 213 2275 61 
Q 1981 -91 1556 -91 
Q 1019 -91 701 211 
Q 384 513 384 1019 
Q 384 1609 779 1909 
Q 1175 2209 1959 2209 
L 2766 2209 
L 2766 2266 
Q 2766 2663 2505 2880 
Q 2244 3097 1772 3097 
Q 1472 3097 1187 3025 
Q 903 2953 641 2809 
L 641 3341 
Q 956 3463 1253 3523 
Q 1550 3584 1831 3584 
Q 2591 3584 2966 3190 
Q 3341 2797 3341 1997 
z
" transform="scale(0.015625)"/>
      <path id="DejaVuSans-67" d="M 2906 1791 
Q 2906 2416 2648 2759 
Q 2391 3103 1925 3103 
Q 1463 3103 1205 2759 
Q 947 2416 947 1791 
Q 947 1169 1205 825 
Q 1463 481 1925 481 
Q 2391 481 2648 825 
Q 2906 1169 2906 1791 
z
M 3481 434 
Q 3481 -459 3084 -895 
Q 2688 -1331 1869 -1331 
Q 1566 -1331 1297 -1286 
Q 1028 -1241 775 -1147 
L 775 -588 
Q 1028 -725 1275 -790 
Q 1522 -856 1778 -856 
Q 2344 -856 2625 -561 
Q 2906 -266 2906 331 
L 2906 616 
Q 2728 306 2450 153 
Q 2172 0 1784 0 
Q 1141 0 747 490 
Q 353 981 353 1791 
Q 353 2603 747 3093 
Q 1141 3584 1784 3584 
Q 2172 3584 2450 3431 
Q 2728 3278 2906 2969 
L 2906 3500 
L 3481 3500 
L 3481 434 
z
" transform="scale(0.015625)"/>
      <path id="DejaVuSans-20" transform="scale(0.015625)"/>
      <path id="DejaVuSans-6e" d="M 3513 2113 
L 3513 0 
L 2938 0 
L 2938 2094 
Q 2938 2591 2744 2837 
Q 2550 3084 2163 3084 
Q 1697 3084 1428 2787 
Q 1159 2491 1159 1978 
L 1159 0 
L 581 0 
L 581 3500 
L 1159 3500 
L 1159 2956 
Q 1366 3272 1645 3428 
Q 1925 3584 2291 3584 
Q 2894 3584 3203 3211 
Q 3513 2838 3513 2113 
z
" transform="scale(0.015625)"/>
      <path id="DejaVuSans-79" d="M 2059 -325 
Q 1816 -950 1584 -1140 
Q 1353 -1331 966 -1331 
L 506 -1331 
L 506 -850 
L 844 -850 
Q 1081 -850 1212 -737 
Q 1344 -625 1503 -206 
L 1606 56 
L 191 3500 
L 800 3500 
L 1894 763 
L 2988 3500 
L 3597 3500 
L 2059 -325 
z
" transform="scale(0.015625)"/>
      <path id="DejaVuSans-63" d="M 3122 3366 
L 3122 2828 
Q 2878 2963 2633 3030 
Q 2388 3097 2138 3097 
Q 1578 3097 1268 2742 
Q 959 2388 959 1747 
Q 959 1106 1268 751 
Q 1578 397 2138 397 
Q 2388 397 2633 464 
Q 2878 531 3122 666 
L 3122 134 
Q 2881 22 2623 -34 
Q 2366 -91 2075 -91 
Q 1284 -91 818 406 
Q 353 903 353 1747 
Q 353 2603 823 3093 
Q 1294 3584 2113 3584 
Q 2378 3584 2631 3529 
Q 2884 3475 3122 3366 
z
" transform="scale(0.015625)"/>
      <path id="DejaVuSans-6f" d="M 1959 3097 
Q 1497 3097 1228 2736 
Q 959 2375 959 1747 
Q 959 1119 1226 758 
Q 1494 397 1959 397 
Q 2419 397 2687 759 
Q 2956 1122 2956 1747 
Q 2956 2369 2687 2733 
Q 2419 3097 1959 3097 
z
M 1959 3584 
Q 2709 3584 3137 3096 
Q 3566 2609 3566 1747 
Q 3566 888 3137 398 
Q 2709 -91 1959 -91 
Q 1206 -91 779 398 
Q 353 888 353 1747 
Q 353 2609 779 3096 
Q 1206 3584 1959 3584 
z
" transform="scale(0.015625)"/>
      <path id="DejaVuSans-73" d="M 2834 3397 
L 2834 2853 
Q 2591 2978 2328 3040 
Q 2066 3103 1784 3103 
Q 1356 3103 1142 2972 
Q 928 2841 928 2578 
Q 928 2378 1081 2264 
Q 1234 2150 1697 2047 
L 1894 2003 
Q 2506 1872 2764 1633 
Q 3022 1394 3022 966 
Q 3022 478 2636 193 
Q 2250 -91 1575 -91 
Q 1294 -91 989 -36 
Q 684 19 347 128 
L 347 722 
Q 666 556 975 473 
Q 1284 391 1588 391 
Q 1994 391 2212 530 
Q 2431 669 2431 922 
Q 2431 1156 2273 1281 
Q 2116 1406 1581 1522 
L 1381 1569 
Q 847 1681 609 1914 
Q 372 2147 372 2553 
Q 372 3047 722 3315 
Q 1072 3584 1716 3584 
Q 2034 3584 2315 3537 
Q 2597 3491 2834 3397 
z
" transform="scale(0.015625)"/>
      <path id="DejaVuSans-74" d="M 1172 4494 
L 1172 3500 
L 2356 3500 
L 2356 3053 
L 1172 3053 
L 1172 1153 
Q 1172 725 1289 603 
Q 1406 481 1766 481 
L 2356 481 
L 2356 0 
L 1766 0 
Q 1100 0 847 248 
Q 594 497 594 1153 
L 594 3053 
L 172 3053 
L 172 3500 
L 594 3500 
L 594 4494 
L 1172 4494 
z
" transform="scale(0.015625)"/>
     </defs>
     <use xlink:href="#DejaVuSans-41"/>
     <use xlink:href="#DejaVuSans-76" x="62.533203"/>
     <use xlink:href="#DejaVuSans-65" x="121.712891"/>
     <use xlink:href="#DejaVuSans-72" x="183.236328"/>
     <use xlink:href="#DejaVuSans-61" x="224.349609"/>
     <use xlink:href="#DejaVuSans-67" x="285.628906"/>
     <use xlink:href="#DejaVuSans-65" x="349.105469"/>
     <use xlink:href="#DejaVuSans-20" x="410.628906"/>
     <use xlink:href="#DejaVuSans-65" x="442.416016"/>
     <use xlink:href="#DejaVuSans-6e" x="503.939453"/>
     <use xlink:href="#DejaVuSans-65" x="567.318359"/>
     <use xlink:href="#DejaVuSans-72" x="628.841797"/>
     <use xlink:href="#DejaVuSans-67" x="668.205078"/>
     <use xlink:href="#DejaVuSans-79" x="731.681641"/>
     <use xlink:href="#DejaVuSans-20" x="790.861328"/>
     <use xlink:href="#DejaVuSans-63" x="822.648438"/>
     <use xlink:href="#DejaVuSans-6f" x="877.628906"/>
     <use xlink:href="#DejaVuSans-73" x="938.810547"/>
     <use xlink:href="#DejaVuSans-74" x="990.910156"/>
    </g>
   </g>
   <g id="legend_1">
    <g id="patch_105">
     <path d="M 96.546875 166.320312 
L 300.730469 166.320312 
Q 305.730469 166.320312 305.730469 161.320312 
L 305.730469 53.734375 
Q 305.730469 48.734375 300.730469 48.734375 
L 96.546875 48.734375 
Q 91.546875 48.734375 91.546875 53.734375 
L 91.546875 161.320312 
Q 91.546875 166.320312 96.546875 166.320312 
z
" style="fill: #ffffff; opacity: 0.8; stroke: #cccccc; stroke-linejoin: miter"/>
    </g>
    <g id="line2d_57">
     <path d="M 101.546875 68.980469 
L 126.546875 68.980469 
L 151.546875 68.980469 
" style="fill: none; stroke: #000000; stroke-width: 1.5; stroke-linecap: square"/>
    </g>
    <g id="text_58">
     <!-- Blended -->
     <g transform="translate(171.546875 77.730469)scale(0.25 -0.25)">
      <defs>
       <path id="DejaVuSans-42" d="M 1259 2228 
L 1259 519 
L 2272 519 
Q 2781 519 3026 730 
Q 3272 941 3272 1375 
Q 3272 1813 3026 2020 
Q 2781 2228 2272 2228 
L 1259 2228 
z
M 1259 4147 
L 1259 2741 
L 2194 2741 
Q 2656 2741 2882 2914 
Q 3109 3088 3109 3444 
Q 3109 3797 2882 3972 
Q 2656 4147 2194 4147 
L 1259 4147 
z
M 628 4666 
L 2241 4666 
Q 2963 4666 3353 4366 
Q 3744 4066 3744 3513 
Q 3744 3084 3544 2831 
Q 3344 2578 2956 2516 
Q 3422 2416 3680 2098 
Q 3938 1781 3938 1306 
Q 3938 681 3513 340 
Q 3088 0 2303 0 
L 628 0 
L 628 4666 
z
" transform="scale(0.015625)"/>
       <path id="DejaVuSans-6c" d="M 603 4863 
L 1178 4863 
L 1178 0 
L 603 0 
L 603 4863 
z
" transform="scale(0.015625)"/>
       <path id="DejaVuSans-64" d="M 2906 2969 
L 2906 4863 
L 3481 4863 
L 3481 0 
L 2906 0 
L 2906 525 
Q 2725 213 2448 61 
Q 2172 -91 1784 -91 
Q 1150 -91 751 415 
Q 353 922 353 1747 
Q 353 2572 751 3078 
Q 1150 3584 1784 3584 
Q 2172 3584 2448 3432 
Q 2725 3281 2906 2969 
z
M 947 1747 
Q 947 1113 1208 752 
Q 1469 391 1925 391 
Q 2381 391 2643 752 
Q 2906 1113 2906 1747 
Q 2906 2381 2643 2742 
Q 2381 3103 1925 3103 
Q 1469 3103 1208 2742 
Q 947 2381 947 1747 
z
" transform="scale(0.015625)"/>
      </defs>
      <use xlink:href="#DejaVuSans-42"/>
      <use xlink:href="#DejaVuSans-6c" x="68.603516"/>
      <use xlink:href="#DejaVuSans-65" x="96.386719"/>
      <use xlink:href="#DejaVuSans-6e" x="157.910156"/>
      <use xlink:href="#DejaVuSans-64" x="221.289062"/>
      <use xlink:href="#DejaVuSans-65" x="284.765625"/>
      <use xlink:href="#DejaVuSans-64" x="346.289062"/>
     </g>
    </g>
    <g id="patch_106">
     <path d="M 101.546875 114.425781 
L 151.546875 114.425781 
L 151.546875 96.925781 
L 101.546875 96.925781 
z
" style="fill: #90cd97"/>
    </g>
    <g id="text_59">
     <!-- Electricity -->
     <g transform="translate(171.546875 114.425781)scale(0.25 -0.25)">
      <defs>
       <path id="DejaVuSans-45" d="M 628 4666 
L 3578 4666 
L 3578 4134 
L 1259 4134 
L 1259 2753 
L 3481 2753 
L 3481 2222 
L 1259 2222 
L 1259 531 
L 3634 531 
L 3634 0 
L 628 0 
L 628 4666 
z
" transform="scale(0.015625)"/>
       <path id="DejaVuSans-69" d="M 603 3500 
L 1178 3500 
L 1178 0 
L 603 0 
L 603 3500 
z
M 603 4863 
L 1178 4863 
L 1178 4134 
L 603 4134 
L 603 4863 
z
" transform="scale(0.015625)"/>
      </defs>
      <use xlink:href="#DejaVuSans-45"/>
      <use xlink:href="#DejaVuSans-6c" x="63.183594"/>
      <use xlink:href="#DejaVuSans-65" x="90.966797"/>
      <use xlink:href="#DejaVuSans-63" x="152.490234"/>
      <use xlink:href="#DejaVuSans-74" x="207.470703"/>
      <use xlink:href="#DejaVuSans-72" x="246.679688"/>
      <use xlink:href="#DejaVuSans-69" x="287.792969"/>
      <use xlink:href="#DejaVuSans-63" x="315.576172"/>
      <use xlink:href="#DejaVuSans-69" x="370.556641"/>
      <use xlink:href="#DejaVuSans-74" x="398.339844"/>
      <use xlink:href="#DejaVuSans-79" x="437.548828"/>
     </g>
    </g>
    <g id="patch_107">
     <path d="M 101.546875 151.121094 
L 151.546875 151.121094 
L 151.546875 133.621094 
L 101.546875 133.621094 
z
" style="fill: #8c8c8c"/>
    </g>
    <g id="text_60">
     <!-- Gas -->
     <g transform="translate(171.546875 151.121094)scale(0.25 -0.25)">
      <defs>
       <path id="DejaVuSans-47" d="M 3809 666 
L 3809 1919 
L 2778 1919 
L 2778 2438 
L 4434 2438 
L 4434 434 
Q 4069 175 3628 42 
Q 3188 -91 2688 -91 
Q 1594 -91 976 548 
Q 359 1188 359 2328 
Q 359 3472 976 4111 
Q 1594 4750 2688 4750 
Q 3144 4750 3555 4637 
Q 3966 4525 4313 4306 
L 4313 3634 
Q 3963 3931 3569 4081 
Q 3175 4231 2741 4231 
Q 1884 4231 1454 3753 
Q 1025 3275 1025 2328 
Q 1025 1384 1454 906 
Q 1884 428 2741 428 
Q 3075 428 3337 486 
Q 3600 544 3809 666 
z
" transform="scale(0.015625)"/>
      </defs>
      <use xlink:href="#DejaVuSans-47"/>
      <use xlink:href="#DejaVuSans-61" x="77.490234"/>
      <use xlink:href="#DejaVuSans-73" x="138.769531"/>
     </g>
    </g>
   </g>
  </g>
 </g>
 <defs>
  <clipPath id="p3df3625915">
   <rect x="79.046875" y="36.234375" width="669.6" height="326.16"/>
  </clipPath>
 </defs>
</svg>
