<?xml version="1.0" encoding="utf-8" standalone="no"?>
<!DOCTYPE svg PUBLIC "-//W3C//DTD SVG 1.1//EN"
  "http://www.w3.org/Graphics/SVG/1.1/DTD/svg11.dtd">
<svg xmlns:xlink="http://www.w3.org/1999/xlink" width="781.296875pt" height="418.377187pt" viewBox="0 0 781.296875 418.377187" xmlns="http://www.w3.org/2000/svg" version="1.1">
 <metadata>
  <rdf:RDF xmlns:dc="http://purl.org/dc/elements/1.1/" xmlns:cc="http://creativecommons.org/ns#" xmlns:rdf="http://www.w3.org/1999/02/22-rdf-syntax-ns#">
   <cc:Work>
    <dc:type rdf:resource="http://purl.org/dc/dcmitype/StillImage"/>
    <dc:date>2021-12-07T13:54:17.340052</dc:date>
    <dc:format>image/svg+xml</dc:format>
    <dc:creator>
     <cc:Agent>
      <dc:title>Matplotlib v3.5.0, https://matplotlib.org/</dc:title>
     </cc:Agent>
    </dc:creator>
   </cc:Work>
  </rdf:RDF>
 </metadata>
 <defs>
  <style type="text/css">*{stroke-linejoin: round; stroke-linecap: butt}</style>
 </defs>
 <g id="figure_1">
  <g id="patch_1">
   <path d="M 0 418.377187 
L 781.296875 418.377187 
L 781.296875 0 
L 0 0 
z
" style="fill: #ffffff"/>
  </g>
  <g id="axes_1">
   <g id="patch_2">
    <path d="M 104.496875 362.394375 
L 774.096875 362.394375 
L 774.096875 36.234375 
L 104.496875 36.234375 
z
" style="fill: #ffffff"/>
   </g>
   <g id="patch_3">
    <path d="M 107.818304 362.394375 
L 119.775446 362.394375 
L 119.775446 343.840631 
L 107.818304 343.840631 
z
" clip-path="url(#pb75f4ffe74)" style="fill: #8c8c8c"/>
   </g>
   <g id="patch_4">
    <path d="M 121.104018 362.394375 
L 133.061161 362.394375 
L 133.061161 312.181239 
L 121.104018 312.181239 
z
" clip-path="url(#pb75f4ffe74)" style="fill: #8c8c8c"/>
   </g>
   <g id="patch_5">
    <path d="M 134.389732 362.394375 
L 146.346875 362.394375 
L 146.346875 245.12071 
L 134.389732 245.12071 
z
" clip-path="url(#pb75f4ffe74)" style="fill: #8c8c8c"/>
   </g>
   <g id="patch_6">
    <path d="M 147.675446 362.394375 
L 159.632589 362.394375 
L 159.632589 150.940416 
L 147.675446 150.940416 
z
" clip-path="url(#pb75f4ffe74)" style="fill: #8c8c8c"/>
   </g>
   <g id="patch_7">
    <path d="M 160.961161 362.394375 
L 172.918304 362.394375 
L 172.918304 111.416311 
L 160.961161 111.416311 
z
" clip-path="url(#pb75f4ffe74)" style="fill: #8c8c8c"/>
   </g>
   <g id="patch_8">
    <path d="M 174.246875 362.394375 
L 186.204018 362.394375 
L 186.204018 150.993958 
L 174.246875 150.993958 
z
" clip-path="url(#pb75f4ffe74)" style="fill: #8c8c8c"/>
   </g>
   <g id="patch_9">
    <path d="M 187.532589 362.394375 
L 199.489732 362.394375 
L 199.489732 208.250367 
L 187.532589 208.250367 
z
" clip-path="url(#pb75f4ffe74)" style="fill: #8c8c8c"/>
   </g>
   <g id="patch_10">
    <path d="M 200.818304 362.394375 
L 212.775446 362.394375 
L 212.775446 239.052819 
L 200.818304 239.052819 
z
" clip-path="url(#pb75f4ffe74)" style="fill: #8c8c8c"/>
   </g>
   <g id="patch_11">
    <path d="M 214.104018 362.394375 
L 226.061161 362.394375 
L 226.061161 313.271559 
L 214.104018 313.271559 
z
" clip-path="url(#pb75f4ffe74)" style="fill: #8c8c8c"/>
   </g>
   <g id="patch_12">
    <path d="M 227.389732 362.394375 
L 239.346875 362.394375 
L 239.346875 345.875417 
L 227.389732 345.875417 
z
" clip-path="url(#pb75f4ffe74)" style="fill: #8c8c8c"/>
   </g>
   <g id="patch_13">
    <path d="M 240.675446 362.394375 
L 252.632589 362.394375 
L 252.632589 350.46186 
L 240.675446 350.46186 
z
" clip-path="url(#pb75f4ffe74)" style="fill: #8c8c8c"/>
   </g>
   <g id="patch_14">
    <path d="M 253.961161 362.394375 
L 265.918304 362.394375 
L 265.918304 350.607722 
L 253.961161 350.607722 
z
" clip-path="url(#pb75f4ffe74)" style="fill: #8c8c8c"/>
   </g>
   <g id="patch_15">
    <path d="M 267.246875 362.394375 
L 279.204018 362.394375 
L 279.204018 343.74406 
L 267.246875 343.74406 
z
" clip-path="url(#pb75f4ffe74)" style="fill: #8c8c8c"/>
   </g>
   <g id="patch_16">
    <path d="M 280.532589 362.394375 
L 292.489732 362.394375 
L 292.489732 289.757449 
L 280.532589 289.757449 
z
" clip-path="url(#pb75f4ffe74)" style="fill: #8c8c8c"/>
   </g>
   <g id="patch_17">
    <path d="M 293.818304 362.394375 
L 305.775446 362.394375 
L 305.775446 208.925135 
L 293.818304 208.925135 
z
" clip-path="url(#pb75f4ffe74)" style="fill: #8c8c8c"/>
   </g>
   <g id="patch_18">
    <path d="M 307.104018 362.394375 
L 319.061161 362.394375 
L 319.061161 200.279119 
L 307.104018 200.279119 
z
" clip-path="url(#pb75f4ffe74)" style="fill: #8c8c8c"/>
   </g>
   <g id="patch_19">
    <path d="M 320.389732 362.394375 
L 332.346875 362.394375 
L 332.346875 144.29141 
L 320.389732 144.29141 
z
" clip-path="url(#pb75f4ffe74)" style="fill: #8c8c8c"/>
   </g>
   <g id="patch_20">
    <path d="M 333.675446 362.394375 
L 345.632589 362.394375 
L 345.632589 112.912214 
L 333.675446 112.912214 
z
" clip-path="url(#pb75f4ffe74)" style="fill: #8c8c8c"/>
   </g>
   <g id="patch_21">
    <path d="M 346.961161 362.394375 
L 358.918304 362.394375 
L 358.918304 207.24658 
L 346.961161 207.24658 
z
" clip-path="url(#pb75f4ffe74)" style="fill: #8c8c8c"/>
   </g>
   <g id="patch_22">
    <path d="M 360.246875 362.394375 
L 372.204018 362.394375 
L 372.204018 239.2862 
L 360.246875 239.2862 
z
" clip-path="url(#pb75f4ffe74)" style="fill: #8c8c8c"/>
   </g>
   <g id="patch_23">
    <path d="M 373.532589 362.394375 
L 385.489732 362.394375 
L 385.489732 305.708938 
L 373.532589 305.708938 
z
" clip-path="url(#pb75f4ffe74)" style="fill: #8c8c8c"/>
   </g>
   <g id="patch_24">
    <path d="M 386.818304 362.394375 
L 398.775446 362.394375 
L 398.775446 338.533238 
L 386.818304 338.533238 
z
" clip-path="url(#pb75f4ffe74)" style="fill: #8c8c8c"/>
   </g>
   <g id="patch_25">
    <path d="M 400.104018 362.394375 
L 412.061161 362.394375 
L 412.061161 349.62645 
L 400.104018 349.62645 
z
" clip-path="url(#pb75f4ffe74)" style="fill: #8c8c8c"/>
   </g>
   <g id="patch_26">
    <path d="M 413.389732 362.394375 
L 425.346875 362.394375 
L 425.346875 349.284371 
L 413.389732 349.284371 
z
" clip-path="url(#pb75f4ffe74)" style="fill: #8c8c8c"/>
   </g>
   <g id="patch_27">
    <path d="M 426.675446 362.394375 
L 438.632589 362.394375 
L 438.632589 341.088352 
L 426.675446 341.088352 
z
" clip-path="url(#pb75f4ffe74)" style="fill: #8c8c8c"/>
   </g>
   <g id="patch_28">
    <path d="M 439.961161 362.394375 
L 451.918304 362.394375 
L 451.918304 298.899158 
L 439.961161 298.899158 
z
" clip-path="url(#pb75f4ffe74)" style="fill: #8c8c8c"/>
   </g>
   <g id="patch_29">
    <path d="M 453.246875 362.394375 
L 465.204018 362.394375 
L 465.204018 231.201235 
L 453.246875 231.201235 
z
" clip-path="url(#pb75f4ffe74)" style="fill: #8c8c8c"/>
   </g>
   <g id="patch_30">
    <path d="M 466.532589 362.394375 
L 478.489732 362.394375 
L 478.489732 193.82498 
L 466.532589 193.82498 
z
" clip-path="url(#pb75f4ffe74)" style="fill: #8c8c8c"/>
   </g>
   <g id="patch_31">
    <path d="M 479.818304 362.394375 
L 491.775446 362.394375 
L 491.775446 176.046983 
L 479.818304 176.046983 
z
" clip-path="url(#pb75f4ffe74)" style="fill: #8c8c8c"/>
   </g>
   <g id="patch_32">
    <path d="M 493.104018 362.394375 
L 505.061161 362.394375 
L 505.061161 175.754933 
L 493.104018 175.754933 
z
" clip-path="url(#pb75f4ffe74)" style="fill: #8c8c8c"/>
   </g>
   <g id="patch_33">
    <path d="M 506.389732 362.394375 
L 518.346875 362.394375 
L 518.346875 232.875524 
L 506.389732 232.875524 
z
" clip-path="url(#pb75f4ffe74)" style="fill: #8c8c8c"/>
   </g>
   <g id="patch_34">
    <path d="M 519.675446 362.394375 
L 531.632589 362.394375 
L 531.632589 245.995887 
L 519.675446 245.995887 
z
" clip-path="url(#pb75f4ffe74)" style="fill: #8c8c8c"/>
   </g>
   <g id="patch_35">
    <path d="M 532.961161 362.394375 
L 544.918304 362.394375 
L 544.918304 274.123875 
L 532.961161 274.123875 
z
" clip-path="url(#pb75f4ffe74)" style="fill: #8c8c8c"/>
   </g>
   <g id="patch_36">
    <path d="M 546.246875 362.394375 
L 558.204018 362.394375 
L 558.204018 329.604425 
L 546.246875 329.604425 
z
" clip-path="url(#pb75f4ffe74)" style="fill: #8c8c8c"/>
   </g>
   <g id="patch_37">
    <path d="M 559.532589 362.394375 
L 571.489732 362.394375 
L 571.489732 351.066484 
L 559.532589 351.066484 
z
" clip-path="url(#pb75f4ffe74)" style="fill: #8c8c8c"/>
   </g>
   <g id="patch_38">
    <path d="M 572.818304 362.394375 
L 584.775446 362.394375 
L 584.775446 352.431386 
L 572.818304 352.431386 
z
" clip-path="url(#pb75f4ffe74)" style="fill: #8c8c8c"/>
   </g>
   <g id="patch_39">
    <path d="M 586.104018 362.394375 
L 598.061161 362.394375 
L 598.061161 349.397499 
L 586.104018 349.397499 
z
" clip-path="url(#pb75f4ffe74)" style="fill: #8c8c8c"/>
   </g>
   <g id="patch_40">
    <path d="M 599.389732 362.394375 
L 611.346875 362.394375 
L 611.346875 326.399208 
L 599.389732 326.399208 
z
" clip-path="url(#pb75f4ffe74)" style="fill: #8c8c8c"/>
   </g>
   <g id="patch_41">
    <path d="M 612.675446 362.394375 
L 624.632589 362.394375 
L 624.632589 278.72317 
L 612.675446 278.72317 
z
" clip-path="url(#pb75f4ffe74)" style="fill: #8c8c8c"/>
   </g>
   <g id="patch_42">
    <path d="M 625.961161 362.394375 
L 637.918304 362.394375 
L 637.918304 221.140065 
L 625.961161 221.140065 
z
" clip-path="url(#pb75f4ffe74)" style="fill: #8c8c8c"/>
   </g>
   <g id="patch_43">
    <path d="M 639.246875 362.394375 
L 651.204018 362.394375 
L 651.204018 186.320135 
L 639.246875 186.320135 
z
" clip-path="url(#pb75f4ffe74)" style="fill: #8c8c8c"/>
   </g>
   <g id="patch_44">
    <path d="M 652.532589 362.394375 
L 664.489732 362.394375 
L 664.489732 177.6696 
L 652.532589 177.6696 
z
" clip-path="url(#pb75f4ffe74)" style="fill: #8c8c8c"/>
   </g>
   <g id="patch_45">
    <path d="M 665.818304 362.394375 
L 677.775446 362.394375 
L 677.775446 251.235108 
L 665.818304 251.235108 
z
" clip-path="url(#pb75f4ffe74)" style="fill: #8c8c8c"/>
   </g>
   <g id="patch_46">
    <path d="M 679.104018 362.394375 
L 691.061161 362.394375 
L 691.061161 304.924445 
L 679.104018 304.924445 
z
" clip-path="url(#pb75f4ffe74)" style="fill: #8c8c8c"/>
   </g>
   <g id="patch_47">
    <path d="M 692.389732 362.394375 
L 704.346875 362.394375 
L 704.346875 335.345066 
L 692.389732 335.345066 
z
" clip-path="url(#pb75f4ffe74)" style="fill: #8c8c8c"/>
   </g>
   <g id="patch_48">
    <path d="M 705.675446 362.394375 
L 717.632589 362.394375 
L 717.632589 357.99026 
L 705.675446 357.99026 
z
" clip-path="url(#pb75f4ffe74)" style="fill: #8c8c8c"/>
   </g>
   <g id="patch_49">
    <path d="M 718.961161 362.394375 
L 730.918304 362.394375 
L 730.918304 360.065276 
L 718.961161 360.065276 
z
" clip-path="url(#pb75f4ffe74)" style="fill: #8c8c8c"/>
   </g>
   <g id="patch_50">
    <path d="M 732.246875 362.394375 
L 744.204018 362.394375 
L 744.204018 360.738127 
L 732.246875 360.738127 
z
" clip-path="url(#pb75f4ffe74)" style="fill: #8c8c8c"/>
   </g>
   <g id="patch_51">
    <path d="M 745.532589 362.394375 
L 757.489732 362.394375 
L 757.489732 350.360697 
L 745.532589 350.360697 
z
" clip-path="url(#pb75f4ffe74)" style="fill: #8c8c8c"/>
   </g>
   <g id="patch_52">
    <path d="M 758.818304 362.394375 
L 770.775446 362.394375 
L 770.775446 336.148812 
L 758.818304 336.148812 
z
" clip-path="url(#pb75f4ffe74)" style="fill: #8c8c8c"/>
   </g>
   <g id="patch_53">
    <path d="M 107.818304 343.840631 
L 119.775446 343.840631 
L 119.775446 329.906998 
L 107.818304 329.906998 
z
" clip-path="url(#pb75f4ffe74)" style="fill: #90cd97"/>
   </g>
   <g id="patch_54">
    <path d="M 121.104018 312.181239 
L 133.061161 312.181239 
L 133.061161 287.367883 
L 121.104018 287.367883 
z
" clip-path="url(#pb75f4ffe74)" style="fill: #90cd97"/>
   </g>
   <g id="patch_55">
    <path d="M 134.389732 245.12071 
L 146.346875 245.12071 
L 146.346875 212.030148 
L 134.389732 212.030148 
z
" clip-path="url(#pb75f4ffe74)" style="fill: #90cd97"/>
   </g>
   <g id="patch_56">
    <path d="M 147.675446 150.940416 
L 159.632589 150.940416 
L 159.632589 117.043037 
L 147.675446 117.043037 
z
" clip-path="url(#pb75f4ffe74)" style="fill: #90cd97"/>
   </g>
   <g id="patch_57">
    <path d="M 160.961161 111.416311 
L 172.918304 111.416311 
L 172.918304 78.710447 
L 160.961161 78.710447 
z
" clip-path="url(#pb75f4ffe74)" style="fill: #90cd97"/>
   </g>
   <g id="patch_58">
    <path d="M 174.246875 150.993958 
L 186.204018 150.993958 
L 186.204018 117.729521 
L 174.246875 117.729521 
z
" clip-path="url(#pb75f4ffe74)" style="fill: #90cd97"/>
   </g>
   <g id="patch_59">
    <path d="M 187.532589 208.250367 
L 199.489732 208.250367 
L 199.489732 186.585354 
L 187.532589 186.585354 
z
" clip-path="url(#pb75f4ffe74)" style="fill: #90cd97"/>
   </g>
   <g id="patch_60">
    <path d="M 200.818304 239.052819 
L 212.775446 239.052819 
L 212.775446 215.231706 
L 200.818304 215.231706 
z
" clip-path="url(#pb75f4ffe74)" style="fill: #90cd97"/>
   </g>
   <g id="patch_61">
    <path d="M 214.104018 313.271559 
L 226.061161 313.271559 
L 226.061161 288.731606 
L 214.104018 288.731606 
z
" clip-path="url(#pb75f4ffe74)" style="fill: #90cd97"/>
   </g>
   <g id="patch_62">
    <path d="M 227.389732 345.875417 
L 239.346875 345.875417 
L 239.346875 315.278256 
L 227.389732 315.278256 
z
" clip-path="url(#pb75f4ffe74)" style="fill: #90cd97"/>
   </g>
   <g id="patch_63">
    <path d="M 240.675446 350.46186 
L 252.632589 350.46186 
L 252.632589 322.087681 
L 240.675446 322.087681 
z
" clip-path="url(#pb75f4ffe74)" style="fill: #90cd97"/>
   </g>
   <g id="patch_64">
    <path d="M 253.961161 350.607722 
L 265.918304 350.607722 
L 265.918304 327.253955 
L 253.961161 327.253955 
z
" clip-path="url(#pb75f4ffe74)" style="fill: #90cd97"/>
   </g>
   <g id="patch_65">
    <path d="M 267.246875 343.74406 
L 279.204018 343.74406 
L 279.204018 311.769206 
L 267.246875 311.769206 
z
" clip-path="url(#pb75f4ffe74)" style="fill: #90cd97"/>
   </g>
   <g id="patch_66">
    <path d="M 280.532589 289.757449 
L 292.489732 289.757449 
L 292.489732 269.38781 
L 280.532589 269.38781 
z
" clip-path="url(#pb75f4ffe74)" style="fill: #90cd97"/>
   </g>
   <g id="patch_67">
    <path d="M 293.818304 208.925135 
L 305.775446 208.925135 
L 305.775446 179.716264 
L 293.818304 179.716264 
z
" clip-path="url(#pb75f4ffe74)" style="fill: #90cd97"/>
   </g>
   <g id="patch_68">
    <path d="M 307.104018 200.279119 
L 319.061161 200.279119 
L 319.061161 172.319745 
L 307.104018 172.319745 
z
" clip-path="url(#pb75f4ffe74)" style="fill: #90cd97"/>
   </g>
   <g id="patch_69">
    <path d="M 320.389732 144.29141 
L 332.346875 144.29141 
L 332.346875 116.707929 
L 320.389732 116.707929 
z
" clip-path="url(#pb75f4ffe74)" style="fill: #90cd97"/>
   </g>
   <g id="patch_70">
    <path d="M 333.675446 112.912214 
L 345.632589 112.912214 
L 345.632589 84.423691 
L 333.675446 84.423691 
z
" clip-path="url(#pb75f4ffe74)" style="fill: #90cd97"/>
   </g>
   <g id="patch_71">
    <path d="M 346.961161 207.24658 
L 358.918304 207.24658 
L 358.918304 185.823261 
L 346.961161 185.823261 
z
" clip-path="url(#pb75f4ffe74)" style="fill: #90cd97"/>
   </g>
   <g id="patch_72">
    <path d="M 360.246875 239.2862 
L 372.204018 239.2862 
L 372.204018 218.561722 
L 360.246875 218.561722 
z
" clip-path="url(#pb75f4ffe74)" style="fill: #90cd97"/>
   </g>
   <g id="patch_73">
    <path d="M 373.532589 305.708938 
L 385.489732 305.708938 
L 385.489732 285.565147 
L 373.532589 285.565147 
z
" clip-path="url(#pb75f4ffe74)" style="fill: #90cd97"/>
   </g>
   <g id="patch_74">
    <path d="M 386.818304 338.533238 
L 398.775446 338.533238 
L 398.775446 318.19029 
L 386.818304 318.19029 
z
" clip-path="url(#pb75f4ffe74)" style="fill: #90cd97"/>
   </g>
   <g id="patch_75">
    <path d="M 400.104018 349.62645 
L 412.061161 349.62645 
L 412.061161 332.696735 
L 400.104018 332.696735 
z
" clip-path="url(#pb75f4ffe74)" style="fill: #90cd97"/>
   </g>
   <g id="patch_76">
    <path d="M 413.389732 349.284371 
L 425.346875 349.284371 
L 425.346875 328.724454 
L 413.389732 328.724454 
z
" clip-path="url(#pb75f4ffe74)" style="fill: #90cd97"/>
   </g>
   <g id="patch_77">
    <path d="M 426.675446 341.088352 
L 438.632589 341.088352 
L 438.632589 319.063524 
L 426.675446 319.063524 
z
" clip-path="url(#pb75f4ffe74)" style="fill: #90cd97"/>
   </g>
   <g id="patch_78">
    <path d="M 439.961161 298.899158 
L 451.918304 298.899158 
L 451.918304 278.422932 
L 439.961161 278.422932 
z
" clip-path="url(#pb75f4ffe74)" style="fill: #90cd97"/>
   </g>
   <g id="patch_79">
    <path d="M 453.246875 231.201235 
L 465.204018 231.201235 
L 465.204018 206.626477 
L 453.246875 206.626477 
z
" clip-path="url(#pb75f4ffe74)" style="fill: #90cd97"/>
   </g>
   <g id="patch_80">
    <path d="M 466.532589 193.82498 
L 478.489732 193.82498 
L 478.489732 173.290981 
L 466.532589 173.290981 
z
" clip-path="url(#pb75f4ffe74)" style="fill: #90cd97"/>
   </g>
   <g id="patch_81">
    <path d="M 479.818304 176.046983 
L 491.775446 176.046983 
L 491.775446 153.702579 
L 479.818304 153.702579 
z
" clip-path="url(#pb75f4ffe74)" style="fill: #90cd97"/>
   </g>
   <g id="patch_82">
    <path d="M 493.104018 175.754933 
L 505.061161 175.754933 
L 505.061161 153.168808 
L 493.104018 153.168808 
z
" clip-path="url(#pb75f4ffe74)" style="fill: #90cd97"/>
   </g>
   <g id="patch_83">
    <path d="M 506.389732 232.875524 
L 518.346875 232.875524 
L 518.346875 214.466659 
L 506.389732 214.466659 
z
" clip-path="url(#pb75f4ffe74)" style="fill: #90cd97"/>
   </g>
   <g id="patch_84">
    <path d="M 519.675446 245.995887 
L 531.632589 245.995887 
L 531.632589 217.832861 
L 519.675446 217.832861 
z
" clip-path="url(#pb75f4ffe74)" style="fill: #90cd97"/>
   </g>
   <g id="patch_85">
    <path d="M 532.961161 274.123875 
L 544.918304 274.123875 
L 544.918304 236.034739 
L 532.961161 236.034739 
z
" clip-path="url(#pb75f4ffe74)" style="fill: #90cd97"/>
   </g>
   <g id="patch_86">
    <path d="M 546.246875 329.604425 
L 558.204018 329.604425 
L 558.204018 291.133152 
L 546.246875 291.133152 
z
" clip-path="url(#pb75f4ffe74)" style="fill: #90cd97"/>
   </g>
   <g id="patch_87">
    <path d="M 559.532589 351.066484 
L 571.489732 351.066484 
L 571.489732 297.5712 
L 559.532589 297.5712 
z
" clip-path="url(#pb75f4ffe74)" style="fill: #90cd97"/>
   </g>
   <g id="patch_88">
    <path d="M 572.818304 352.431386 
L 584.775446 352.431386 
L 584.775446 289.579885 
L 572.818304 289.579885 
z
" clip-path="url(#pb75f4ffe74)" style="fill: #90cd97"/>
   </g>
   <g id="patch_89">
    <path d="M 586.104018 349.397499 
L 598.061161 349.397499 
L 598.061161 303.212634 
L 586.104018 303.212634 
z
" clip-path="url(#pb75f4ffe74)" style="fill: #90cd97"/>
   </g>
   <g id="patch_90">
    <path d="M 599.389732 326.399208 
L 611.346875 326.399208 
L 611.346875 284.506169 
L 599.389732 284.506169 
z
" clip-path="url(#pb75f4ffe74)" style="fill: #90cd97"/>
   </g>
   <g id="patch_91">
    <path d="M 612.675446 278.72317 
L 624.632589 278.72317 
L 624.632589 241.928362 
L 612.675446 241.928362 
z
" clip-path="url(#pb75f4ffe74)" style="fill: #90cd97"/>
   </g>
   <g id="patch_92">
    <path d="M 625.961161 221.140065 
L 637.918304 221.140065 
L 637.918304 184.714291 
L 625.961161 184.714291 
z
" clip-path="url(#pb75f4ffe74)" style="fill: #90cd97"/>
   </g>
   <g id="patch_93">
    <path d="M 639.246875 186.320135 
L 651.204018 186.320135 
L 651.204018 149.114132 
L 639.246875 149.114132 
z
" clip-path="url(#pb75f4ffe74)" style="fill: #90cd97"/>
   </g>
   <g id="patch_94">
    <path d="M 652.532589 177.6696 
L 664.489732 177.6696 
L 664.489732 140.158913 
L 652.532589 140.158913 
z
" clip-path="url(#pb75f4ffe74)" style="fill: #90cd97"/>
   </g>
   <g id="patch_95">
    <path d="M 665.818304 251.235108 
L 677.775446 251.235108 
L 677.775446 218.413262 
L 665.818304 218.413262 
z
" clip-path="url(#pb75f4ffe74)" style="fill: #90cd97"/>
   </g>
   <g id="patch_96">
    <path d="M 679.104018 304.924445 
L 691.061161 304.924445 
L 691.061161 265.292671 
L 679.104018 265.292671 
z
" clip-path="url(#pb75f4ffe74)" style="fill: #90cd97"/>
   </g>
   <g id="patch_97">
    <path d="M 692.389732 335.345066 
L 704.346875 335.345066 
L 704.346875 300.126305 
L 692.389732 300.126305 
z
" clip-path="url(#pb75f4ffe74)" style="fill: #90cd97"/>
   </g>
   <g id="patch_98">
    <path d="M 705.675446 357.99026 
L 717.632589 357.99026 
L 717.632589 324.716241 
L 705.675446 324.716241 
z
" clip-path="url(#pb75f4ffe74)" style="fill: #90cd97"/>
   </g>
   <g id="patch_99">
    <path d="M 718.961161 360.065276 
L 730.918304 360.065276 
L 730.918304 322.975273 
L 718.961161 322.975273 
z
" clip-path="url(#pb75f4ffe74)" style="fill: #90cd97"/>
   </g>
   <g id="patch_100">
    <path d="M 732.246875 360.738127 
L 744.204018 360.738127 
L 744.204018 327.88547 
L 732.246875 327.88547 
z
" clip-path="url(#pb75f4ffe74)" style="fill: #90cd97"/>
   </g>
   <g id="patch_101">
    <path d="M 745.532589 350.360697 
L 757.489732 350.360697 
L 757.489732 314.143971 
L 745.532589 314.143971 
z
" clip-path="url(#pb75f4ffe74)" style="fill: #90cd97"/>
   </g>
   <g id="patch_102">
    <path d="M 758.818304 336.148812 
L 770.775446 336.148812 
L 770.775446 300.441957 
L 758.818304 300.441957 
z
" clip-path="url(#pb75f4ffe74)" style="fill: #90cd97"/>
   </g>
   <g id="matplotlib.axis_1">
    <g id="xtick_1">
     <g id="line2d_1">
      <defs>
       <path id="m527dce9793" d="M 0 0 
L 0 3.5 
" style="stroke: #000000; stroke-width: 0.8"/>
      </defs>
      <g>
       <use xlink:href="#m527dce9793" x="113.796875" y="362.394375" style="stroke: #000000; stroke-width: 0.8"/>
      </g>
     </g>
     <g id="text_1">
      <!-- 2017-09 -->
      <g transform="translate(116.55625 411.177188)rotate(-90)scale(0.1 -0.1)">
       <defs>
        <path id="DejaVuSans-32" d="M 1228 531 
L 3431 531 
L 3431 0 
L 469 0 
L 469 531 
Q 828 903 1448 1529 
Q 2069 2156 2228 2338 
Q 2531 2678 2651 2914 
Q 2772 3150 2772 3378 
Q 2772 3750 2511 3984 
Q 2250 4219 1831 4219 
Q 1534 4219 1204 4116 
Q 875 4013 500 3803 
L 500 4441 
Q 881 4594 1212 4672 
Q 1544 4750 1819 4750 
Q 2544 4750 2975 4387 
Q 3406 4025 3406 3419 
Q 3406 3131 3298 2873 
Q 3191 2616 2906 2266 
Q 2828 2175 2409 1742 
Q 1991 1309 1228 531 
z
" transform="scale(0.015625)"/>
        <path id="DejaVuSans-30" d="M 2034 4250 
Q 1547 4250 1301 3770 
Q 1056 3291 1056 2328 
Q 1056 1369 1301 889 
Q 1547 409 2034 409 
Q 2525 409 2770 889 
Q 3016 1369 3016 2328 
Q 3016 3291 2770 3770 
Q 2525 4250 2034 4250 
z
M 2034 4750 
Q 2819 4750 3233 4129 
Q 3647 3509 3647 2328 
Q 3647 1150 3233 529 
Q 2819 -91 2034 -91 
Q 1250 -91 836 529 
Q 422 1150 422 2328 
Q 422 3509 836 4129 
Q 1250 4750 2034 4750 
z
" transform="scale(0.015625)"/>
        <path id="DejaVuSans-31" d="M 794 531 
L 1825 531 
L 1825 4091 
L 703 3866 
L 703 4441 
L 1819 4666 
L 2450 4666 
L 2450 531 
L 3481 531 
L 3481 0 
L 794 0 
L 794 531 
z
" transform="scale(0.015625)"/>
        <path id="DejaVuSans-37" d="M 525 4666 
L 3525 4666 
L 3525 4397 
L 1831 0 
L 1172 0 
L 2766 4134 
L 525 4134 
L 525 4666 
z
" transform="scale(0.015625)"/>
        <path id="DejaVuSans-2d" d="M 313 2009 
L 1997 2009 
L 1997 1497 
L 313 1497 
L 313 2009 
z
" transform="scale(0.015625)"/>
        <path id="DejaVuSans-39" d="M 703 97 
L 703 672 
Q 941 559 1184 500 
Q 1428 441 1663 441 
Q 2288 441 2617 861 
Q 2947 1281 2994 2138 
Q 2813 1869 2534 1725 
Q 2256 1581 1919 1581 
Q 1219 1581 811 2004 
Q 403 2428 403 3163 
Q 403 3881 828 4315 
Q 1253 4750 1959 4750 
Q 2769 4750 3195 4129 
Q 3622 3509 3622 2328 
Q 3622 1225 3098 567 
Q 2575 -91 1691 -91 
Q 1453 -91 1209 -44 
Q 966 3 703 97 
z
M 1959 2075 
Q 2384 2075 2632 2365 
Q 2881 2656 2881 3163 
Q 2881 3666 2632 3958 
Q 2384 4250 1959 4250 
Q 1534 4250 1286 3958 
Q 1038 3666 1038 3163 
Q 1038 2656 1286 2365 
Q 1534 2075 1959 2075 
z
" transform="scale(0.015625)"/>
       </defs>
       <use xlink:href="#DejaVuSans-32"/>
       <use xlink:href="#DejaVuSans-30" x="63.623047"/>
       <use xlink:href="#DejaVuSans-31" x="127.246094"/>
       <use xlink:href="#DejaVuSans-37" x="190.869141"/>
       <use xlink:href="#DejaVuSans-2d" x="254.492188"/>
       <use xlink:href="#DejaVuSans-30" x="290.576172"/>
       <use xlink:href="#DejaVuSans-39" x="354.199219"/>
      </g>
     </g>
    </g>
    <g id="xtick_2">
     <g id="line2d_2">
      <g>
       <use xlink:href="#m527dce9793" x="127.082589" y="362.394375" style="stroke: #000000; stroke-width: 0.8"/>
      </g>
     </g>
     <g id="text_2">
      <!-- 2017-10 -->
      <g transform="translate(129.841964 411.177188)rotate(-90)scale(0.1 -0.1)">
       <use xlink:href="#DejaVuSans-32"/>
       <use xlink:href="#DejaVuSans-30" x="63.623047"/>
       <use xlink:href="#DejaVuSans-31" x="127.246094"/>
       <use xlink:href="#DejaVuSans-37" x="190.869141"/>
       <use xlink:href="#DejaVuSans-2d" x="254.492188"/>
       <use xlink:href="#DejaVuSans-31" x="290.576172"/>
       <use xlink:href="#DejaVuSans-30" x="354.199219"/>
      </g>
     </g>
    </g>
    <g id="xtick_3">
     <g id="line2d_3">
      <g>
       <use xlink:href="#m527dce9793" x="140.368304" y="362.394375" style="stroke: #000000; stroke-width: 0.8"/>
      </g>
     </g>
     <g id="text_3">
      <!-- 2017-11 -->
      <g transform="translate(143.127679 411.177188)rotate(-90)scale(0.1 -0.1)">
       <use xlink:href="#DejaVuSans-32"/>
       <use xlink:href="#DejaVuSans-30" x="63.623047"/>
       <use xlink:href="#DejaVuSans-31" x="127.246094"/>
       <use xlink:href="#DejaVuSans-37" x="190.869141"/>
       <use xlink:href="#DejaVuSans-2d" x="254.492188"/>
       <use xlink:href="#DejaVuSans-31" x="290.576172"/>
       <use xlink:href="#DejaVuSans-31" x="354.199219"/>
      </g>
     </g>
    </g>
    <g id="xtick_4">
     <g id="line2d_4">
      <g>
       <use xlink:href="#m527dce9793" x="153.654018" y="362.394375" style="stroke: #000000; stroke-width: 0.8"/>
      </g>
     </g>
     <g id="text_4">
      <!-- 2017-12 -->
      <g transform="translate(156.413393 411.177188)rotate(-90)scale(0.1 -0.1)">
       <use xlink:href="#DejaVuSans-32"/>
       <use xlink:href="#DejaVuSans-30" x="63.623047"/>
       <use xlink:href="#DejaVuSans-31" x="127.246094"/>
       <use xlink:href="#DejaVuSans-37" x="190.869141"/>
       <use xlink:href="#DejaVuSans-2d" x="254.492188"/>
       <use xlink:href="#DejaVuSans-31" x="290.576172"/>
       <use xlink:href="#DejaVuSans-32" x="354.199219"/>
      </g>
     </g>
    </g>
    <g id="xtick_5">
     <g id="line2d_5">
      <g>
       <use xlink:href="#m527dce9793" x="166.939732" y="362.394375" style="stroke: #000000; stroke-width: 0.8"/>
      </g>
     </g>
     <g id="text_5">
      <!-- 2018-01 -->
      <g transform="translate(169.699107 411.177188)rotate(-90)scale(0.1 -0.1)">
       <defs>
        <path id="DejaVuSans-38" d="M 2034 2216 
Q 1584 2216 1326 1975 
Q 1069 1734 1069 1313 
Q 1069 891 1326 650 
Q 1584 409 2034 409 
Q 2484 409 2743 651 
Q 3003 894 3003 1313 
Q 3003 1734 2745 1975 
Q 2488 2216 2034 2216 
z
M 1403 2484 
Q 997 2584 770 2862 
Q 544 3141 544 3541 
Q 544 4100 942 4425 
Q 1341 4750 2034 4750 
Q 2731 4750 3128 4425 
Q 3525 4100 3525 3541 
Q 3525 3141 3298 2862 
Q 3072 2584 2669 2484 
Q 3125 2378 3379 2068 
Q 3634 1759 3634 1313 
Q 3634 634 3220 271 
Q 2806 -91 2034 -91 
Q 1263 -91 848 271 
Q 434 634 434 1313 
Q 434 1759 690 2068 
Q 947 2378 1403 2484 
z
M 1172 3481 
Q 1172 3119 1398 2916 
Q 1625 2713 2034 2713 
Q 2441 2713 2670 2916 
Q 2900 3119 2900 3481 
Q 2900 3844 2670 4047 
Q 2441 4250 2034 4250 
Q 1625 4250 1398 4047 
Q 1172 3844 1172 3481 
z
" transform="scale(0.015625)"/>
       </defs>
       <use xlink:href="#DejaVuSans-32"/>
       <use xlink:href="#DejaVuSans-30" x="63.623047"/>
       <use xlink:href="#DejaVuSans-31" x="127.246094"/>
       <use xlink:href="#DejaVuSans-38" x="190.869141"/>
       <use xlink:href="#DejaVuSans-2d" x="254.492188"/>
       <use xlink:href="#DejaVuSans-30" x="290.576172"/>
       <use xlink:href="#DejaVuSans-31" x="354.199219"/>
      </g>
     </g>
    </g>
    <g id="xtick_6">
     <g id="line2d_6">
      <g>
       <use xlink:href="#m527dce9793" x="180.225446" y="362.394375" style="stroke: #000000; stroke-width: 0.8"/>
      </g>
     </g>
     <g id="text_6">
      <!-- 2018-02 -->
      <g transform="translate(182.984821 411.177188)rotate(-90)scale(0.1 -0.1)">
       <use xlink:href="#DejaVuSans-32"/>
       <use xlink:href="#DejaVuSans-30" x="63.623047"/>
       <use xlink:href="#DejaVuSans-31" x="127.246094"/>
       <use xlink:href="#DejaVuSans-38" x="190.869141"/>
       <use xlink:href="#DejaVuSans-2d" x="254.492188"/>
       <use xlink:href="#DejaVuSans-30" x="290.576172"/>
       <use xlink:href="#DejaVuSans-32" x="354.199219"/>
      </g>
     </g>
    </g>
    <g id="xtick_7">
     <g id="line2d_7">
      <g>
       <use xlink:href="#m527dce9793" x="193.511161" y="362.394375" style="stroke: #000000; stroke-width: 0.8"/>
      </g>
     </g>
     <g id="text_7">
      <!-- 2018-03 -->
      <g transform="translate(196.270536 411.177188)rotate(-90)scale(0.1 -0.1)">
       <defs>
        <path id="DejaVuSans-33" d="M 2597 2516 
Q 3050 2419 3304 2112 
Q 3559 1806 3559 1356 
Q 3559 666 3084 287 
Q 2609 -91 1734 -91 
Q 1441 -91 1130 -33 
Q 819 25 488 141 
L 488 750 
Q 750 597 1062 519 
Q 1375 441 1716 441 
Q 2309 441 2620 675 
Q 2931 909 2931 1356 
Q 2931 1769 2642 2001 
Q 2353 2234 1838 2234 
L 1294 2234 
L 1294 2753 
L 1863 2753 
Q 2328 2753 2575 2939 
Q 2822 3125 2822 3475 
Q 2822 3834 2567 4026 
Q 2313 4219 1838 4219 
Q 1578 4219 1281 4162 
Q 984 4106 628 3988 
L 628 4550 
Q 988 4650 1302 4700 
Q 1616 4750 1894 4750 
Q 2613 4750 3031 4423 
Q 3450 4097 3450 3541 
Q 3450 3153 3228 2886 
Q 3006 2619 2597 2516 
z
" transform="scale(0.015625)"/>
       </defs>
       <use xlink:href="#DejaVuSans-32"/>
       <use xlink:href="#DejaVuSans-30" x="63.623047"/>
       <use xlink:href="#DejaVuSans-31" x="127.246094"/>
       <use xlink:href="#DejaVuSans-38" x="190.869141"/>
       <use xlink:href="#DejaVuSans-2d" x="254.492188"/>
       <use xlink:href="#DejaVuSans-30" x="290.576172"/>
       <use xlink:href="#DejaVuSans-33" x="354.199219"/>
      </g>
     </g>
    </g>
    <g id="xtick_8">
     <g id="line2d_8">
      <g>
       <use xlink:href="#m527dce9793" x="206.796875" y="362.394375" style="stroke: #000000; stroke-width: 0.8"/>
      </g>
     </g>
     <g id="text_8">
      <!-- 2018-04 -->
      <g transform="translate(209.55625 411.177188)rotate(-90)scale(0.1 -0.1)">
       <defs>
        <path id="DejaVuSans-34" d="M 2419 4116 
L 825 1625 
L 2419 1625 
L 2419 4116 
z
M 2253 4666 
L 3047 4666 
L 3047 1625 
L 3713 1625 
L 3713 1100 
L 3047 1100 
L 3047 0 
L 2419 0 
L 2419 1100 
L 313 1100 
L 313 1709 
L 2253 4666 
z
" transform="scale(0.015625)"/>
       </defs>
       <use xlink:href="#DejaVuSans-32"/>
       <use xlink:href="#DejaVuSans-30" x="63.623047"/>
       <use xlink:href="#DejaVuSans-31" x="127.246094"/>
       <use xlink:href="#DejaVuSans-38" x="190.869141"/>
       <use xlink:href="#DejaVuSans-2d" x="254.492188"/>
       <use xlink:href="#DejaVuSans-30" x="290.576172"/>
       <use xlink:href="#DejaVuSans-34" x="354.199219"/>
      </g>
     </g>
    </g>
    <g id="xtick_9">
     <g id="line2d_9">
      <g>
       <use xlink:href="#m527dce9793" x="220.082589" y="362.394375" style="stroke: #000000; stroke-width: 0.8"/>
      </g>
     </g>
     <g id="text_9">
      <!-- 2018-05 -->
      <g transform="translate(222.841964 411.177188)rotate(-90)scale(0.1 -0.1)">
       <defs>
        <path id="DejaVuSans-35" d="M 691 4666 
L 3169 4666 
L 3169 4134 
L 1269 4134 
L 1269 2991 
Q 1406 3038 1543 3061 
Q 1681 3084 1819 3084 
Q 2600 3084 3056 2656 
Q 3513 2228 3513 1497 
Q 3513 744 3044 326 
Q 2575 -91 1722 -91 
Q 1428 -91 1123 -41 
Q 819 9 494 109 
L 494 744 
Q 775 591 1075 516 
Q 1375 441 1709 441 
Q 2250 441 2565 725 
Q 2881 1009 2881 1497 
Q 2881 1984 2565 2268 
Q 2250 2553 1709 2553 
Q 1456 2553 1204 2497 
Q 953 2441 691 2322 
L 691 4666 
z
" transform="scale(0.015625)"/>
       </defs>
       <use xlink:href="#DejaVuSans-32"/>
       <use xlink:href="#DejaVuSans-30" x="63.623047"/>
       <use xlink:href="#DejaVuSans-31" x="127.246094"/>
       <use xlink:href="#DejaVuSans-38" x="190.869141"/>
       <use xlink:href="#DejaVuSans-2d" x="254.492188"/>
       <use xlink:href="#DejaVuSans-30" x="290.576172"/>
       <use xlink:href="#DejaVuSans-35" x="354.199219"/>
      </g>
     </g>
    </g>
    <g id="xtick_10">
     <g id="line2d_10">
      <g>
       <use xlink:href="#m527dce9793" x="233.368304" y="362.394375" style="stroke: #000000; stroke-width: 0.8"/>
      </g>
     </g>
     <g id="text_10">
      <!-- 2018-06 -->
      <g transform="translate(236.127679 411.177188)rotate(-90)scale(0.1 -0.1)">
       <defs>
        <path id="DejaVuSans-36" d="M 2113 2584 
Q 1688 2584 1439 2293 
Q 1191 2003 1191 1497 
Q 1191 994 1439 701 
Q 1688 409 2113 409 
Q 2538 409 2786 701 
Q 3034 994 3034 1497 
Q 3034 2003 2786 2293 
Q 2538 2584 2113 2584 
z
M 3366 4563 
L 3366 3988 
Q 3128 4100 2886 4159 
Q 2644 4219 2406 4219 
Q 1781 4219 1451 3797 
Q 1122 3375 1075 2522 
Q 1259 2794 1537 2939 
Q 1816 3084 2150 3084 
Q 2853 3084 3261 2657 
Q 3669 2231 3669 1497 
Q 3669 778 3244 343 
Q 2819 -91 2113 -91 
Q 1303 -91 875 529 
Q 447 1150 447 2328 
Q 447 3434 972 4092 
Q 1497 4750 2381 4750 
Q 2619 4750 2861 4703 
Q 3103 4656 3366 4563 
z
" transform="scale(0.015625)"/>
       </defs>
       <use xlink:href="#DejaVuSans-32"/>
       <use xlink:href="#DejaVuSans-30" x="63.623047"/>
       <use xlink:href="#DejaVuSans-31" x="127.246094"/>
       <use xlink:href="#DejaVuSans-38" x="190.869141"/>
       <use xlink:href="#DejaVuSans-2d" x="254.492188"/>
       <use xlink:href="#DejaVuSans-30" x="290.576172"/>
       <use xlink:href="#DejaVuSans-36" x="354.199219"/>
      </g>
     </g>
    </g>
    <g id="xtick_11">
     <g id="line2d_11">
      <g>
       <use xlink:href="#m527dce9793" x="246.654018" y="362.394375" style="stroke: #000000; stroke-width: 0.8"/>
      </g>
     </g>
     <g id="text_11">
      <!-- 2018-07 -->
      <g transform="translate(249.413393 411.177188)rotate(-90)scale(0.1 -0.1)">
       <use xlink:href="#DejaVuSans-32"/>
       <use xlink:href="#DejaVuSans-30" x="63.623047"/>
       <use xlink:href="#DejaVuSans-31" x="127.246094"/>
       <use xlink:href="#DejaVuSans-38" x="190.869141"/>
       <use xlink:href="#DejaVuSans-2d" x="254.492188"/>
       <use xlink:href="#DejaVuSans-30" x="290.576172"/>
       <use xlink:href="#DejaVuSans-37" x="354.199219"/>
      </g>
     </g>
    </g>
    <g id="xtick_12">
     <g id="line2d_12">
      <g>
       <use xlink:href="#m527dce9793" x="259.939732" y="362.394375" style="stroke: #000000; stroke-width: 0.8"/>
      </g>
     </g>
     <g id="text_12">
      <!-- 2018-08 -->
      <g transform="translate(262.699107 411.177188)rotate(-90)scale(0.1 -0.1)">
       <use xlink:href="#DejaVuSans-32"/>
       <use xlink:href="#DejaVuSans-30" x="63.623047"/>
       <use xlink:href="#DejaVuSans-31" x="127.246094"/>
       <use xlink:href="#DejaVuSans-38" x="190.869141"/>
       <use xlink:href="#DejaVuSans-2d" x="254.492188"/>
       <use xlink:href="#DejaVuSans-30" x="290.576172"/>
       <use xlink:href="#DejaVuSans-38" x="354.199219"/>
      </g>
     </g>
    </g>
    <g id="xtick_13">
     <g id="line2d_13">
      <g>
       <use xlink:href="#m527dce9793" x="273.225446" y="362.394375" style="stroke: #000000; stroke-width: 0.8"/>
      </g>
     </g>
     <g id="text_13">
      <!-- 2018-09 -->
      <g transform="translate(275.984821 411.177188)rotate(-90)scale(0.1 -0.1)">
       <use xlink:href="#DejaVuSans-32"/>
       <use xlink:href="#DejaVuSans-30" x="63.623047"/>
       <use xlink:href="#DejaVuSans-31" x="127.246094"/>
       <use xlink:href="#DejaVuSans-38" x="190.869141"/>
       <use xlink:href="#DejaVuSans-2d" x="254.492188"/>
       <use xlink:href="#DejaVuSans-30" x="290.576172"/>
       <use xlink:href="#DejaVuSans-39" x="354.199219"/>
      </g>
     </g>
    </g>
    <g id="xtick_14">
     <g id="line2d_14">
      <g>
       <use xlink:href="#m527dce9793" x="286.511161" y="362.394375" style="stroke: #000000; stroke-width: 0.8"/>
      </g>
     </g>
     <g id="text_14">
      <!-- 2018-10 -->
      <g transform="translate(289.270536 411.177188)rotate(-90)scale(0.1 -0.1)">
       <use xlink:href="#DejaVuSans-32"/>
       <use xlink:href="#DejaVuSans-30" x="63.623047"/>
       <use xlink:href="#DejaVuSans-31" x="127.246094"/>
       <use xlink:href="#DejaVuSans-38" x="190.869141"/>
       <use xlink:href="#DejaVuSans-2d" x="254.492188"/>
       <use xlink:href="#DejaVuSans-31" x="290.576172"/>
       <use xlink:href="#DejaVuSans-30" x="354.199219"/>
      </g>
     </g>
    </g>
    <g id="xtick_15">
     <g id="line2d_15">
      <g>
       <use xlink:href="#m527dce9793" x="299.796875" y="362.394375" style="stroke: #000000; stroke-width: 0.8"/>
      </g>
     </g>
     <g id="text_15">
      <!-- 2018-11 -->
      <g transform="translate(302.55625 411.177188)rotate(-90)scale(0.1 -0.1)">
       <use xlink:href="#DejaVuSans-32"/>
       <use xlink:href="#DejaVuSans-30" x="63.623047"/>
       <use xlink:href="#DejaVuSans-31" x="127.246094"/>
       <use xlink:href="#DejaVuSans-38" x="190.869141"/>
       <use xlink:href="#DejaVuSans-2d" x="254.492188"/>
       <use xlink:href="#DejaVuSans-31" x="290.576172"/>
       <use xlink:href="#DejaVuSans-31" x="354.199219"/>
      </g>
     </g>
    </g>
    <g id="xtick_16">
     <g id="line2d_16">
      <g>
       <use xlink:href="#m527dce9793" x="313.082589" y="362.394375" style="stroke: #000000; stroke-width: 0.8"/>
      </g>
     </g>
     <g id="text_16">
      <!-- 2018-12 -->
      <g transform="translate(315.841964 411.177188)rotate(-90)scale(0.1 -0.1)">
       <use xlink:href="#DejaVuSans-32"/>
       <use xlink:href="#DejaVuSans-30" x="63.623047"/>
       <use xlink:href="#DejaVuSans-31" x="127.246094"/>
       <use xlink:href="#DejaVuSans-38" x="190.869141"/>
       <use xlink:href="#DejaVuSans-2d" x="254.492188"/>
       <use xlink:href="#DejaVuSans-31" x="290.576172"/>
       <use xlink:href="#DejaVuSans-32" x="354.199219"/>
      </g>
     </g>
    </g>
    <g id="xtick_17">
     <g id="line2d_17">
      <g>
       <use xlink:href="#m527dce9793" x="326.368304" y="362.394375" style="stroke: #000000; stroke-width: 0.8"/>
      </g>
     </g>
     <g id="text_17">
      <!-- 2019-01 -->
      <g transform="translate(329.127679 411.177188)rotate(-90)scale(0.1 -0.1)">
       <use xlink:href="#DejaVuSans-32"/>
       <use xlink:href="#DejaVuSans-30" x="63.623047"/>
       <use xlink:href="#DejaVuSans-31" x="127.246094"/>
       <use xlink:href="#DejaVuSans-39" x="190.869141"/>
       <use xlink:href="#DejaVuSans-2d" x="254.492188"/>
       <use xlink:href="#DejaVuSans-30" x="290.576172"/>
       <use xlink:href="#DejaVuSans-31" x="354.199219"/>
      </g>
     </g>
    </g>
    <g id="xtick_18">
     <g id="line2d_18">
      <g>
       <use xlink:href="#m527dce9793" x="339.654018" y="362.394375" style="stroke: #000000; stroke-width: 0.8"/>
      </g>
     </g>
     <g id="text_18">
      <!-- 2019-02 -->
      <g transform="translate(342.413393 411.177188)rotate(-90)scale(0.1 -0.1)">
       <use xlink:href="#DejaVuSans-32"/>
       <use xlink:href="#DejaVuSans-30" x="63.623047"/>
       <use xlink:href="#DejaVuSans-31" x="127.246094"/>
       <use xlink:href="#DejaVuSans-39" x="190.869141"/>
       <use xlink:href="#DejaVuSans-2d" x="254.492188"/>
       <use xlink:href="#DejaVuSans-30" x="290.576172"/>
       <use xlink:href="#DejaVuSans-32" x="354.199219"/>
      </g>
     </g>
    </g>
    <g id="xtick_19">
     <g id="line2d_19">
      <g>
       <use xlink:href="#m527dce9793" x="352.939732" y="362.394375" style="stroke: #000000; stroke-width: 0.8"/>
      </g>
     </g>
     <g id="text_19">
      <!-- 2019-03 -->
      <g transform="translate(355.699107 411.177188)rotate(-90)scale(0.1 -0.1)">
       <use xlink:href="#DejaVuSans-32"/>
       <use xlink:href="#DejaVuSans-30" x="63.623047"/>
       <use xlink:href="#DejaVuSans-31" x="127.246094"/>
       <use xlink:href="#DejaVuSans-39" x="190.869141"/>
       <use xlink:href="#DejaVuSans-2d" x="254.492188"/>
       <use xlink:href="#DejaVuSans-30" x="290.576172"/>
       <use xlink:href="#DejaVuSans-33" x="354.199219"/>
      </g>
     </g>
    </g>
    <g id="xtick_20">
     <g id="line2d_20">
      <g>
       <use xlink:href="#m527dce9793" x="366.225446" y="362.394375" style="stroke: #000000; stroke-width: 0.8"/>
      </g>
     </g>
     <g id="text_20">
      <!-- 2019-04 -->
      <g transform="translate(368.984821 411.177188)rotate(-90)scale(0.1 -0.1)">
       <use xlink:href="#DejaVuSans-32"/>
       <use xlink:href="#DejaVuSans-30" x="63.623047"/>
       <use xlink:href="#DejaVuSans-31" x="127.246094"/>
       <use xlink:href="#DejaVuSans-39" x="190.869141"/>
       <use xlink:href="#DejaVuSans-2d" x="254.492188"/>
       <use xlink:href="#DejaVuSans-30" x="290.576172"/>
       <use xlink:href="#DejaVuSans-34" x="354.199219"/>
      </g>
     </g>
    </g>
    <g id="xtick_21">
     <g id="line2d_21">
      <g>
       <use xlink:href="#m527dce9793" x="379.511161" y="362.394375" style="stroke: #000000; stroke-width: 0.8"/>
      </g>
     </g>
     <g id="text_21">
      <!-- 2019-05 -->
      <g transform="translate(382.270536 411.177188)rotate(-90)scale(0.1 -0.1)">
       <use xlink:href="#DejaVuSans-32"/>
       <use xlink:href="#DejaVuSans-30" x="63.623047"/>
       <use xlink:href="#DejaVuSans-31" x="127.246094"/>
       <use xlink:href="#DejaVuSans-39" x="190.869141"/>
       <use xlink:href="#DejaVuSans-2d" x="254.492188"/>
       <use xlink:href="#DejaVuSans-30" x="290.576172"/>
       <use xlink:href="#DejaVuSans-35" x="354.199219"/>
      </g>
     </g>
    </g>
    <g id="xtick_22">
     <g id="line2d_22">
      <g>
       <use xlink:href="#m527dce9793" x="392.796875" y="362.394375" style="stroke: #000000; stroke-width: 0.8"/>
      </g>
     </g>
     <g id="text_22">
      <!-- 2019-06 -->
      <g transform="translate(395.55625 411.177188)rotate(-90)scale(0.1 -0.1)">
       <use xlink:href="#DejaVuSans-32"/>
       <use xlink:href="#DejaVuSans-30" x="63.623047"/>
       <use xlink:href="#DejaVuSans-31" x="127.246094"/>
       <use xlink:href="#DejaVuSans-39" x="190.869141"/>
       <use xlink:href="#DejaVuSans-2d" x="254.492188"/>
       <use xlink:href="#DejaVuSans-30" x="290.576172"/>
       <use xlink:href="#DejaVuSans-36" x="354.199219"/>
      </g>
     </g>
    </g>
    <g id="xtick_23">
     <g id="line2d_23">
      <g>
       <use xlink:href="#m527dce9793" x="406.082589" y="362.394375" style="stroke: #000000; stroke-width: 0.8"/>
      </g>
     </g>
     <g id="text_23">
      <!-- 2019-07 -->
      <g transform="translate(408.841964 411.177188)rotate(-90)scale(0.1 -0.1)">
       <use xlink:href="#DejaVuSans-32"/>
       <use xlink:href="#DejaVuSans-30" x="63.623047"/>
       <use xlink:href="#DejaVuSans-31" x="127.246094"/>
       <use xlink:href="#DejaVuSans-39" x="190.869141"/>
       <use xlink:href="#DejaVuSans-2d" x="254.492188"/>
       <use xlink:href="#DejaVuSans-30" x="290.576172"/>
       <use xlink:href="#DejaVuSans-37" x="354.199219"/>
      </g>
     </g>
    </g>
    <g id="xtick_24">
     <g id="line2d_24">
      <g>
       <use xlink:href="#m527dce9793" x="419.368304" y="362.394375" style="stroke: #000000; stroke-width: 0.8"/>
      </g>
     </g>
     <g id="text_24">
      <!-- 2019-08 -->
      <g transform="translate(422.127679 411.177188)rotate(-90)scale(0.1 -0.1)">
       <use xlink:href="#DejaVuSans-32"/>
       <use xlink:href="#DejaVuSans-30" x="63.623047"/>
       <use xlink:href="#DejaVuSans-31" x="127.246094"/>
       <use xlink:href="#DejaVuSans-39" x="190.869141"/>
       <use xlink:href="#DejaVuSans-2d" x="254.492188"/>
       <use xlink:href="#DejaVuSans-30" x="290.576172"/>
       <use xlink:href="#DejaVuSans-38" x="354.199219"/>
      </g>
     </g>
    </g>
    <g id="xtick_25">
     <g id="line2d_25">
      <g>
       <use xlink:href="#m527dce9793" x="432.654018" y="362.394375" style="stroke: #000000; stroke-width: 0.8"/>
      </g>
     </g>
     <g id="text_25">
      <!-- 2019-09 -->
      <g transform="translate(435.413393 411.177188)rotate(-90)scale(0.1 -0.1)">
       <use xlink:href="#DejaVuSans-32"/>
       <use xlink:href="#DejaVuSans-30" x="63.623047"/>
       <use xlink:href="#DejaVuSans-31" x="127.246094"/>
       <use xlink:href="#DejaVuSans-39" x="190.869141"/>
       <use xlink:href="#DejaVuSans-2d" x="254.492188"/>
       <use xlink:href="#DejaVuSans-30" x="290.576172"/>
       <use xlink:href="#DejaVuSans-39" x="354.199219"/>
      </g>
     </g>
    </g>
    <g id="xtick_26">
     <g id="line2d_26">
      <g>
       <use xlink:href="#m527dce9793" x="445.939732" y="362.394375" style="stroke: #000000; stroke-width: 0.8"/>
      </g>
     </g>
     <g id="text_26">
      <!-- 2019-10 -->
      <g transform="translate(448.699107 411.177188)rotate(-90)scale(0.1 -0.1)">
       <use xlink:href="#DejaVuSans-32"/>
       <use xlink:href="#DejaVuSans-30" x="63.623047"/>
       <use xlink:href="#DejaVuSans-31" x="127.246094"/>
       <use xlink:href="#DejaVuSans-39" x="190.869141"/>
       <use xlink:href="#DejaVuSans-2d" x="254.492188"/>
       <use xlink:href="#DejaVuSans-31" x="290.576172"/>
       <use xlink:href="#DejaVuSans-30" x="354.199219"/>
      </g>
     </g>
    </g>
    <g id="xtick_27">
     <g id="line2d_27">
      <g>
       <use xlink:href="#m527dce9793" x="459.225446" y="362.394375" style="stroke: #000000; stroke-width: 0.8"/>
      </g>
     </g>
     <g id="text_27">
      <!-- 2019-11 -->
      <g transform="translate(461.984821 411.177188)rotate(-90)scale(0.1 -0.1)">
       <use xlink:href="#DejaVuSans-32"/>
       <use xlink:href="#DejaVuSans-30" x="63.623047"/>
       <use xlink:href="#DejaVuSans-31" x="127.246094"/>
       <use xlink:href="#DejaVuSans-39" x="190.869141"/>
       <use xlink:href="#DejaVuSans-2d" x="254.492188"/>
       <use xlink:href="#DejaVuSans-31" x="290.576172"/>
       <use xlink:href="#DejaVuSans-31" x="354.199219"/>
      </g>
     </g>
    </g>
    <g id="xtick_28">
     <g id="line2d_28">
      <g>
       <use xlink:href="#m527dce9793" x="472.511161" y="362.394375" style="stroke: #000000; stroke-width: 0.8"/>
      </g>
     </g>
     <g id="text_28">
      <!-- 2019-12 -->
      <g transform="translate(475.270536 411.177188)rotate(-90)scale(0.1 -0.1)">
       <use xlink:href="#DejaVuSans-32"/>
       <use xlink:href="#DejaVuSans-30" x="63.623047"/>
       <use xlink:href="#DejaVuSans-31" x="127.246094"/>
       <use xlink:href="#DejaVuSans-39" x="190.869141"/>
       <use xlink:href="#DejaVuSans-2d" x="254.492188"/>
       <use xlink:href="#DejaVuSans-31" x="290.576172"/>
       <use xlink:href="#DejaVuSans-32" x="354.199219"/>
      </g>
     </g>
    </g>
    <g id="xtick_29">
     <g id="line2d_29">
      <g>
       <use xlink:href="#m527dce9793" x="485.796875" y="362.394375" style="stroke: #000000; stroke-width: 0.8"/>
      </g>
     </g>
     <g id="text_29">
      <!-- 2020-01 -->
      <g transform="translate(488.55625 411.177188)rotate(-90)scale(0.1 -0.1)">
       <use xlink:href="#DejaVuSans-32"/>
       <use xlink:href="#DejaVuSans-30" x="63.623047"/>
       <use xlink:href="#DejaVuSans-32" x="127.246094"/>
       <use xlink:href="#DejaVuSans-30" x="190.869141"/>
       <use xlink:href="#DejaVuSans-2d" x="254.492188"/>
       <use xlink:href="#DejaVuSans-30" x="290.576172"/>
       <use xlink:href="#DejaVuSans-31" x="354.199219"/>
      </g>
     </g>
    </g>
    <g id="xtick_30">
     <g id="line2d_30">
      <g>
       <use xlink:href="#m527dce9793" x="499.082589" y="362.394375" style="stroke: #000000; stroke-width: 0.8"/>
      </g>
     </g>
     <g id="text_30">
      <!-- 2020-02 -->
      <g transform="translate(501.841964 411.177188)rotate(-90)scale(0.1 -0.1)">
       <use xlink:href="#DejaVuSans-32"/>
       <use xlink:href="#DejaVuSans-30" x="63.623047"/>
       <use xlink:href="#DejaVuSans-32" x="127.246094"/>
       <use xlink:href="#DejaVuSans-30" x="190.869141"/>
       <use xlink:href="#DejaVuSans-2d" x="254.492188"/>
       <use xlink:href="#DejaVuSans-30" x="290.576172"/>
       <use xlink:href="#DejaVuSans-32" x="354.199219"/>
      </g>
     </g>
    </g>
    <g id="xtick_31">
     <g id="line2d_31">
      <g>
       <use xlink:href="#m527dce9793" x="512.368304" y="362.394375" style="stroke: #000000; stroke-width: 0.8"/>
      </g>
     </g>
     <g id="text_31">
      <!-- 2020-03 -->
      <g transform="translate(515.127679 411.177188)rotate(-90)scale(0.1 -0.1)">
       <use xlink:href="#DejaVuSans-32"/>
       <use xlink:href="#DejaVuSans-30" x="63.623047"/>
       <use xlink:href="#DejaVuSans-32" x="127.246094"/>
       <use xlink:href="#DejaVuSans-30" x="190.869141"/>
       <use xlink:href="#DejaVuSans-2d" x="254.492188"/>
       <use xlink:href="#DejaVuSans-30" x="290.576172"/>
       <use xlink:href="#DejaVuSans-33" x="354.199219"/>
      </g>
     </g>
    </g>
    <g id="xtick_32">
     <g id="line2d_32">
      <g>
       <use xlink:href="#m527dce9793" x="525.654018" y="362.394375" style="stroke: #000000; stroke-width: 0.8"/>
      </g>
     </g>
     <g id="text_32">
      <!-- 2020-04 -->
      <g transform="translate(528.413393 411.177188)rotate(-90)scale(0.1 -0.1)">
       <use xlink:href="#DejaVuSans-32"/>
       <use xlink:href="#DejaVuSans-30" x="63.623047"/>
       <use xlink:href="#DejaVuSans-32" x="127.246094"/>
       <use xlink:href="#DejaVuSans-30" x="190.869141"/>
       <use xlink:href="#DejaVuSans-2d" x="254.492188"/>
       <use xlink:href="#DejaVuSans-30" x="290.576172"/>
       <use xlink:href="#DejaVuSans-34" x="354.199219"/>
      </g>
     </g>
    </g>
    <g id="xtick_33">
     <g id="line2d_33">
      <g>
       <use xlink:href="#m527dce9793" x="538.939732" y="362.394375" style="stroke: #000000; stroke-width: 0.8"/>
      </g>
     </g>
     <g id="text_33">
      <!-- 2020-05 -->
      <g transform="translate(541.699107 411.177188)rotate(-90)scale(0.1 -0.1)">
       <use xlink:href="#DejaVuSans-32"/>
       <use xlink:href="#DejaVuSans-30" x="63.623047"/>
       <use xlink:href="#DejaVuSans-32" x="127.246094"/>
       <use xlink:href="#DejaVuSans-30" x="190.869141"/>
       <use xlink:href="#DejaVuSans-2d" x="254.492188"/>
       <use xlink:href="#DejaVuSans-30" x="290.576172"/>
       <use xlink:href="#DejaVuSans-35" x="354.199219"/>
      </g>
     </g>
    </g>
    <g id="xtick_34">
     <g id="line2d_34">
      <g>
       <use xlink:href="#m527dce9793" x="552.225446" y="362.394375" style="stroke: #000000; stroke-width: 0.8"/>
      </g>
     </g>
     <g id="text_34">
      <!-- 2020-06 -->
      <g transform="translate(554.984821 411.177188)rotate(-90)scale(0.1 -0.1)">
       <use xlink:href="#DejaVuSans-32"/>
       <use xlink:href="#DejaVuSans-30" x="63.623047"/>
       <use xlink:href="#DejaVuSans-32" x="127.246094"/>
       <use xlink:href="#DejaVuSans-30" x="190.869141"/>
       <use xlink:href="#DejaVuSans-2d" x="254.492188"/>
       <use xlink:href="#DejaVuSans-30" x="290.576172"/>
       <use xlink:href="#DejaVuSans-36" x="354.199219"/>
      </g>
     </g>
    </g>
    <g id="xtick_35">
     <g id="line2d_35">
      <g>
       <use xlink:href="#m527dce9793" x="565.511161" y="362.394375" style="stroke: #000000; stroke-width: 0.8"/>
      </g>
     </g>
     <g id="text_35">
      <!-- 2020-07 -->
      <g transform="translate(568.270536 411.177188)rotate(-90)scale(0.1 -0.1)">
       <use xlink:href="#DejaVuSans-32"/>
       <use xlink:href="#DejaVuSans-30" x="63.623047"/>
       <use xlink:href="#DejaVuSans-32" x="127.246094"/>
       <use xlink:href="#DejaVuSans-30" x="190.869141"/>
       <use xlink:href="#DejaVuSans-2d" x="254.492188"/>
       <use xlink:href="#DejaVuSans-30" x="290.576172"/>
       <use xlink:href="#DejaVuSans-37" x="354.199219"/>
      </g>
     </g>
    </g>
    <g id="xtick_36">
     <g id="line2d_36">
      <g>
       <use xlink:href="#m527dce9793" x="578.796875" y="362.394375" style="stroke: #000000; stroke-width: 0.8"/>
      </g>
     </g>
     <g id="text_36">
      <!-- 2020-08 -->
      <g transform="translate(581.55625 411.177188)rotate(-90)scale(0.1 -0.1)">
       <use xlink:href="#DejaVuSans-32"/>
       <use xlink:href="#DejaVuSans-30" x="63.623047"/>
       <use xlink:href="#DejaVuSans-32" x="127.246094"/>
       <use xlink:href="#DejaVuSans-30" x="190.869141"/>
       <use xlink:href="#DejaVuSans-2d" x="254.492188"/>
       <use xlink:href="#DejaVuSans-30" x="290.576172"/>
       <use xlink:href="#DejaVuSans-38" x="354.199219"/>
      </g>
     </g>
    </g>
    <g id="xtick_37">
     <g id="line2d_37">
      <g>
       <use xlink:href="#m527dce9793" x="592.082589" y="362.394375" style="stroke: #000000; stroke-width: 0.8"/>
      </g>
     </g>
     <g id="text_37">
      <!-- 2020-09 -->
      <g transform="translate(594.841964 411.177188)rotate(-90)scale(0.1 -0.1)">
       <use xlink:href="#DejaVuSans-32"/>
       <use xlink:href="#DejaVuSans-30" x="63.623047"/>
       <use xlink:href="#DejaVuSans-32" x="127.246094"/>
       <use xlink:href="#DejaVuSans-30" x="190.869141"/>
       <use xlink:href="#DejaVuSans-2d" x="254.492188"/>
       <use xlink:href="#DejaVuSans-30" x="290.576172"/>
       <use xlink:href="#DejaVuSans-39" x="354.199219"/>
      </g>
     </g>
    </g>
    <g id="xtick_38">
     <g id="line2d_38">
      <g>
       <use xlink:href="#m527dce9793" x="605.368304" y="362.394375" style="stroke: #000000; stroke-width: 0.8"/>
      </g>
     </g>
     <g id="text_38">
      <!-- 2020-10 -->
      <g transform="translate(608.127679 411.177188)rotate(-90)scale(0.1 -0.1)">
       <use xlink:href="#DejaVuSans-32"/>
       <use xlink:href="#DejaVuSans-30" x="63.623047"/>
       <use xlink:href="#DejaVuSans-32" x="127.246094"/>
       <use xlink:href="#DejaVuSans-30" x="190.869141"/>
       <use xlink:href="#DejaVuSans-2d" x="254.492188"/>
       <use xlink:href="#DejaVuSans-31" x="290.576172"/>
       <use xlink:href="#DejaVuSans-30" x="354.199219"/>
      </g>
     </g>
    </g>
    <g id="xtick_39">
     <g id="line2d_39">
      <g>
       <use xlink:href="#m527dce9793" x="618.654018" y="362.394375" style="stroke: #000000; stroke-width: 0.8"/>
      </g>
     </g>
     <g id="text_39">
      <!-- 2020-11 -->
      <g transform="translate(621.413393 411.177188)rotate(-90)scale(0.1 -0.1)">
       <use xlink:href="#DejaVuSans-32"/>
       <use xlink:href="#DejaVuSans-30" x="63.623047"/>
       <use xlink:href="#DejaVuSans-32" x="127.246094"/>
       <use xlink:href="#DejaVuSans-30" x="190.869141"/>
       <use xlink:href="#DejaVuSans-2d" x="254.492188"/>
       <use xlink:href="#DejaVuSans-31" x="290.576172"/>
       <use xlink:href="#DejaVuSans-31" x="354.199219"/>
      </g>
     </g>
    </g>
    <g id="xtick_40">
     <g id="line2d_40">
      <g>
       <use xlink:href="#m527dce9793" x="631.939732" y="362.394375" style="stroke: #000000; stroke-width: 0.8"/>
      </g>
     </g>
     <g id="text_40">
      <!-- 2020-12 -->
      <g transform="translate(634.699107 411.177188)rotate(-90)scale(0.1 -0.1)">
       <use xlink:href="#DejaVuSans-32"/>
       <use xlink:href="#DejaVuSans-30" x="63.623047"/>
       <use xlink:href="#DejaVuSans-32" x="127.246094"/>
       <use xlink:href="#DejaVuSans-30" x="190.869141"/>
       <use xlink:href="#DejaVuSans-2d" x="254.492188"/>
       <use xlink:href="#DejaVuSans-31" x="290.576172"/>
       <use xlink:href="#DejaVuSans-32" x="354.199219"/>
      </g>
     </g>
    </g>
    <g id="xtick_41">
     <g id="line2d_41">
      <g>
       <use xlink:href="#m527dce9793" x="645.225446" y="362.394375" style="stroke: #000000; stroke-width: 0.8"/>
      </g>
     </g>
     <g id="text_41">
      <!-- 2021-01 -->
      <g transform="translate(647.984821 411.177188)rotate(-90)scale(0.1 -0.1)">
       <use xlink:href="#DejaVuSans-32"/>
       <use xlink:href="#DejaVuSans-30" x="63.623047"/>
       <use xlink:href="#DejaVuSans-32" x="127.246094"/>
       <use xlink:href="#DejaVuSans-31" x="190.869141"/>
       <use xlink:href="#DejaVuSans-2d" x="254.492188"/>
       <use xlink:href="#DejaVuSans-30" x="290.576172"/>
       <use xlink:href="#DejaVuSans-31" x="354.199219"/>
      </g>
     </g>
    </g>
    <g id="xtick_42">
     <g id="line2d_42">
      <g>
       <use xlink:href="#m527dce9793" x="658.511161" y="362.394375" style="stroke: #000000; stroke-width: 0.8"/>
      </g>
     </g>
     <g id="text_42">
      <!-- 2021-02 -->
      <g transform="translate(661.270536 411.177188)rotate(-90)scale(0.1 -0.1)">
       <use xlink:href="#DejaVuSans-32"/>
       <use xlink:href="#DejaVuSans-30" x="63.623047"/>
       <use xlink:href="#DejaVuSans-32" x="127.246094"/>
       <use xlink:href="#DejaVuSans-31" x="190.869141"/>
       <use xlink:href="#DejaVuSans-2d" x="254.492188"/>
       <use xlink:href="#DejaVuSans-30" x="290.576172"/>
       <use xlink:href="#DejaVuSans-32" x="354.199219"/>
      </g>
     </g>
    </g>
    <g id="xtick_43">
     <g id="line2d_43">
      <g>
       <use xlink:href="#m527dce9793" x="671.796875" y="362.394375" style="stroke: #000000; stroke-width: 0.8"/>
      </g>
     </g>
     <g id="text_43">
      <!-- 2021-03 -->
      <g transform="translate(674.55625 411.177188)rotate(-90)scale(0.1 -0.1)">
       <use xlink:href="#DejaVuSans-32"/>
       <use xlink:href="#DejaVuSans-30" x="63.623047"/>
       <use xlink:href="#DejaVuSans-32" x="127.246094"/>
       <use xlink:href="#DejaVuSans-31" x="190.869141"/>
       <use xlink:href="#DejaVuSans-2d" x="254.492188"/>
       <use xlink:href="#DejaVuSans-30" x="290.576172"/>
       <use xlink:href="#DejaVuSans-33" x="354.199219"/>
      </g>
     </g>
    </g>
    <g id="xtick_44">
     <g id="line2d_44">
      <g>
       <use xlink:href="#m527dce9793" x="685.082589" y="362.394375" style="stroke: #000000; stroke-width: 0.8"/>
      </g>
     </g>
     <g id="text_44">
      <!-- 2021-04 -->
      <g transform="translate(687.841964 411.177188)rotate(-90)scale(0.1 -0.1)">
       <use xlink:href="#DejaVuSans-32"/>
       <use xlink:href="#DejaVuSans-30" x="63.623047"/>
       <use xlink:href="#DejaVuSans-32" x="127.246094"/>
       <use xlink:href="#DejaVuSans-31" x="190.869141"/>
       <use xlink:href="#DejaVuSans-2d" x="254.492188"/>
       <use xlink:href="#DejaVuSans-30" x="290.576172"/>
       <use xlink:href="#DejaVuSans-34" x="354.199219"/>
      </g>
     </g>
    </g>
    <g id="xtick_45">
     <g id="line2d_45">
      <g>
       <use xlink:href="#m527dce9793" x="698.368304" y="362.394375" style="stroke: #000000; stroke-width: 0.8"/>
      </g>
     </g>
     <g id="text_45">
      <!-- 2021-05 -->
      <g transform="translate(701.127679 411.177188)rotate(-90)scale(0.1 -0.1)">
       <use xlink:href="#DejaVuSans-32"/>
       <use xlink:href="#DejaVuSans-30" x="63.623047"/>
       <use xlink:href="#DejaVuSans-32" x="127.246094"/>
       <use xlink:href="#DejaVuSans-31" x="190.869141"/>
       <use xlink:href="#DejaVuSans-2d" x="254.492188"/>
       <use xlink:href="#DejaVuSans-30" x="290.576172"/>
       <use xlink:href="#DejaVuSans-35" x="354.199219"/>
      </g>
     </g>
    </g>
    <g id="xtick_46">
     <g id="line2d_46">
      <g>
       <use xlink:href="#m527dce9793" x="711.654018" y="362.394375" style="stroke: #000000; stroke-width: 0.8"/>
      </g>
     </g>
     <g id="text_46">
      <!-- 2021-06 -->
      <g transform="translate(714.413393 411.177188)rotate(-90)scale(0.1 -0.1)">
       <use xlink:href="#DejaVuSans-32"/>
       <use xlink:href="#DejaVuSans-30" x="63.623047"/>
       <use xlink:href="#DejaVuSans-32" x="127.246094"/>
       <use xlink:href="#DejaVuSans-31" x="190.869141"/>
       <use xlink:href="#DejaVuSans-2d" x="254.492188"/>
       <use xlink:href="#DejaVuSans-30" x="290.576172"/>
       <use xlink:href="#DejaVuSans-36" x="354.199219"/>
      </g>
     </g>
    </g>
    <g id="xtick_47">
     <g id="line2d_47">
      <g>
       <use xlink:href="#m527dce9793" x="724.939732" y="362.394375" style="stroke: #000000; stroke-width: 0.8"/>
      </g>
     </g>
     <g id="text_47">
      <!-- 2021-07 -->
      <g transform="translate(727.699107 411.177188)rotate(-90)scale(0.1 -0.1)">
       <use xlink:href="#DejaVuSans-32"/>
       <use xlink:href="#DejaVuSans-30" x="63.623047"/>
       <use xlink:href="#DejaVuSans-32" x="127.246094"/>
       <use xlink:href="#DejaVuSans-31" x="190.869141"/>
       <use xlink:href="#DejaVuSans-2d" x="254.492188"/>
       <use xlink:href="#DejaVuSans-30" x="290.576172"/>
       <use xlink:href="#DejaVuSans-37" x="354.199219"/>
      </g>
     </g>
    </g>
    <g id="xtick_48">
     <g id="line2d_48">
      <g>
       <use xlink:href="#m527dce9793" x="738.225446" y="362.394375" style="stroke: #000000; stroke-width: 0.8"/>
      </g>
     </g>
     <g id="text_48">
      <!-- 2021-08 -->
      <g transform="translate(740.984821 411.177188)rotate(-90)scale(0.1 -0.1)">
       <use xlink:href="#DejaVuSans-32"/>
       <use xlink:href="#DejaVuSans-30" x="63.623047"/>
       <use xlink:href="#DejaVuSans-32" x="127.246094"/>
       <use xlink:href="#DejaVuSans-31" x="190.869141"/>
       <use xlink:href="#DejaVuSans-2d" x="254.492188"/>
       <use xlink:href="#DejaVuSans-30" x="290.576172"/>
       <use xlink:href="#DejaVuSans-38" x="354.199219"/>
      </g>
     </g>
    </g>
    <g id="xtick_49">
     <g id="line2d_49">
      <g>
       <use xlink:href="#m527dce9793" x="751.511161" y="362.394375" style="stroke: #000000; stroke-width: 0.8"/>
      </g>
     </g>
     <g id="text_49">
      <!-- 2021-09 -->
      <g transform="translate(754.270536 411.177188)rotate(-90)scale(0.1 -0.1)">
       <use xlink:href="#DejaVuSans-32"/>
       <use xlink:href="#DejaVuSans-30" x="63.623047"/>
       <use xlink:href="#DejaVuSans-32" x="127.246094"/>
       <use xlink:href="#DejaVuSans-31" x="190.869141"/>
       <use xlink:href="#DejaVuSans-2d" x="254.492188"/>
       <use xlink:href="#DejaVuSans-30" x="290.576172"/>
       <use xlink:href="#DejaVuSans-39" x="354.199219"/>
      </g>
     </g>
    </g>
    <g id="xtick_50">
     <g id="line2d_50">
      <g>
       <use xlink:href="#m527dce9793" x="764.796875" y="362.394375" style="stroke: #000000; stroke-width: 0.8"/>
      </g>
     </g>
     <g id="text_50">
      <!-- 2021-10 -->
      <g transform="translate(767.55625 411.177188)rotate(-90)scale(0.1 -0.1)">
       <use xlink:href="#DejaVuSans-32"/>
       <use xlink:href="#DejaVuSans-30" x="63.623047"/>
       <use xlink:href="#DejaVuSans-32" x="127.246094"/>
       <use xlink:href="#DejaVuSans-31" x="190.869141"/>
       <use xlink:href="#DejaVuSans-2d" x="254.492188"/>
       <use xlink:href="#DejaVuSans-31" x="290.576172"/>
       <use xlink:href="#DejaVuSans-30" x="354.199219"/>
      </g>
     </g>
    </g>
   </g>
   <g id="matplotlib.axis_2">
    <g id="ytick_1">
     <g id="line2d_51">
      <defs>
       <path id="m3eaccbd7c3" d="M 0 0 
L -3.5 0 
" style="stroke: #000000; stroke-width: 0.8"/>
      </defs>
      <g>
       <use xlink:href="#m3eaccbd7c3" x="104.496875" y="362.394375" style="stroke: #000000; stroke-width: 0.8"/>
      </g>
     </g>
     <g id="text_51">
      <!-- 0 -->
      <g transform="translate(78.409375 373.792031)scale(0.3 -0.3)">
       <use xlink:href="#DejaVuSans-30"/>
      </g>
     </g>
    </g>
    <g id="ytick_2">
     <g id="line2d_52">
      <g>
       <use xlink:href="#m3eaccbd7c3" x="104.496875" y="321.624375" style="stroke: #000000; stroke-width: 0.8"/>
      </g>
     </g>
     <g id="text_52">
      <!-- 25 -->
      <g transform="translate(59.321875 333.022031)scale(0.3 -0.3)">
       <use xlink:href="#DejaVuSans-32"/>
       <use xlink:href="#DejaVuSans-35" x="63.623047"/>
      </g>
     </g>
    </g>
    <g id="ytick_3">
     <g id="line2d_53">
      <g>
       <use xlink:href="#m3eaccbd7c3" x="104.496875" y="280.854375" style="stroke: #000000; stroke-width: 0.8"/>
      </g>
     </g>
     <g id="text_53">
      <!-- 50 -->
      <g transform="translate(59.321875 292.252031)scale(0.3 -0.3)">
       <use xlink:href="#DejaVuSans-35"/>
       <use xlink:href="#DejaVuSans-30" x="63.623047"/>
      </g>
     </g>
    </g>
    <g id="ytick_4">
     <g id="line2d_54">
      <g>
       <use xlink:href="#m3eaccbd7c3" x="104.496875" y="240.084375" style="stroke: #000000; stroke-width: 0.8"/>
      </g>
     </g>
     <g id="text_54">
      <!-- 75 -->
      <g transform="translate(59.321875 251.482031)scale(0.3 -0.3)">
       <use xlink:href="#DejaVuSans-37"/>
       <use xlink:href="#DejaVuSans-35" x="63.623047"/>
      </g>
     </g>
    </g>
    <g id="ytick_5">
     <g id="line2d_55">
      <g>
       <use xlink:href="#m3eaccbd7c3" x="104.496875" y="199.314375" style="stroke: #000000; stroke-width: 0.8"/>
      </g>
     </g>
     <g id="text_55">
      <!-- 100 -->
      <g transform="translate(40.234375 210.712031)scale(0.3 -0.3)">
       <use xlink:href="#DejaVuSans-31"/>
       <use xlink:href="#DejaVuSans-30" x="63.623047"/>
       <use xlink:href="#DejaVuSans-30" x="127.246094"/>
      </g>
     </g>
    </g>
    <g id="ytick_6">
     <g id="line2d_56">
      <g>
       <use xlink:href="#m3eaccbd7c3" x="104.496875" y="158.544375" style="stroke: #000000; stroke-width: 0.8"/>
      </g>
     </g>
     <g id="text_56">
      <!-- 125 -->
      <g transform="translate(40.234375 169.942031)scale(0.3 -0.3)">
       <use xlink:href="#DejaVuSans-31"/>
       <use xlink:href="#DejaVuSans-32" x="63.623047"/>
       <use xlink:href="#DejaVuSans-35" x="127.246094"/>
      </g>
     </g>
    </g>
    <g id="ytick_7">
     <g id="line2d_57">
      <g>
       <use xlink:href="#m3eaccbd7c3" x="104.496875" y="117.774375" style="stroke: #000000; stroke-width: 0.8"/>
      </g>
     </g>
     <g id="text_57">
      <!-- 150 -->
      <g transform="translate(40.234375 129.172031)scale(0.3 -0.3)">
       <use xlink:href="#DejaVuSans-31"/>
       <use xlink:href="#DejaVuSans-35" x="63.623047"/>
       <use xlink:href="#DejaVuSans-30" x="127.246094"/>
      </g>
     </g>
    </g>
    <g id="ytick_8">
     <g id="line2d_58">
      <g>
       <use xlink:href="#m3eaccbd7c3" x="104.496875" y="77.004375" style="stroke: #000000; stroke-width: 0.8"/>
      </g>
     </g>
     <g id="text_58">
      <!-- 175 -->
      <g transform="translate(40.234375 88.402031)scale(0.3 -0.3)">
       <use xlink:href="#DejaVuSans-31"/>
       <use xlink:href="#DejaVuSans-37" x="63.623047"/>
       <use xlink:href="#DejaVuSans-35" x="127.246094"/>
      </g>
     </g>
    </g>
    <g id="ytick_9">
     <g id="line2d_59">
      <g>
       <use xlink:href="#m3eaccbd7c3" x="104.496875" y="36.234375" style="stroke: #000000; stroke-width: 0.8"/>
      </g>
     </g>
     <g id="text_59">
      <!-- 200 -->
      <g transform="translate(40.234375 47.632031)scale(0.3 -0.3)">
       <use xlink:href="#DejaVuSans-32"/>
       <use xlink:href="#DejaVuSans-30" x="63.623047"/>
       <use xlink:href="#DejaVuSans-30" x="127.246094"/>
      </g>
     </g>
    </g>
    <g id="text_60">
     <!-- kWh/day -->
     <g transform="translate(29.995313 264.983906)rotate(-90)scale(0.3 -0.3)">
      <defs>
       <path id="DejaVuSans-6b" d="M 581 4863 
L 1159 4863 
L 1159 1991 
L 2875 3500 
L 3609 3500 
L 1753 1863 
L 3688 0 
L 2938 0 
L 1159 1709 
L 1159 0 
L 581 0 
L 581 4863 
z
" transform="scale(0.015625)"/>
       <path id="DejaVuSans-57" d="M 213 4666 
L 850 4666 
L 1831 722 
L 2809 4666 
L 3519 4666 
L 4500 722 
L 5478 4666 
L 6119 4666 
L 4947 0 
L 4153 0 
L 3169 4050 
L 2175 0 
L 1381 0 
L 213 4666 
z
" transform="scale(0.015625)"/>
       <path id="DejaVuSans-68" d="M 3513 2113 
L 3513 0 
L 2938 0 
L 2938 2094 
Q 2938 2591 2744 2837 
Q 2550 3084 2163 3084 
Q 1697 3084 1428 2787 
Q 1159 2491 1159 1978 
L 1159 0 
L 581 0 
L 581 4863 
L 1159 4863 
L 1159 2956 
Q 1366 3272 1645 3428 
Q 1925 3584 2291 3584 
Q 2894 3584 3203 3211 
Q 3513 2838 3513 2113 
z
" transform="scale(0.015625)"/>
       <path id="DejaVuSans-2f" d="M 1625 4666 
L 2156 4666 
L 531 -594 
L 0 -594 
L 1625 4666 
z
" transform="scale(0.015625)"/>
       <path id="DejaVuSans-64" d="M 2906 2969 
L 2906 4863 
L 3481 4863 
L 3481 0 
L 2906 0 
L 2906 525 
Q 2725 213 2448 61 
Q 2172 -91 1784 -91 
Q 1150 -91 751 415 
Q 353 922 353 1747 
Q 353 2572 751 3078 
Q 1150 3584 1784 3584 
Q 2172 3584 2448 3432 
Q 2725 3281 2906 2969 
z
M 947 1747 
Q 947 1113 1208 752 
Q 1469 391 1925 391 
Q 2381 391 2643 752 
Q 2906 1113 2906 1747 
Q 2906 2381 2643 2742 
Q 2381 3103 1925 3103 
Q 1469 3103 1208 2742 
Q 947 2381 947 1747 
z
" transform="scale(0.015625)"/>
       <path id="DejaVuSans-61" d="M 2194 1759 
Q 1497 1759 1228 1600 
Q 959 1441 959 1056 
Q 959 750 1161 570 
Q 1363 391 1709 391 
Q 2188 391 2477 730 
Q 2766 1069 2766 1631 
L 2766 1759 
L 2194 1759 
z
M 3341 1997 
L 3341 0 
L 2766 0 
L 2766 531 
Q 2569 213 2275 61 
Q 1981 -91 1556 -91 
Q 1019 -91 701 211 
Q 384 513 384 1019 
Q 384 1609 779 1909 
Q 1175 2209 1959 2209 
L 2766 2209 
L 2766 2266 
Q 2766 2663 2505 2880 
Q 2244 3097 1772 3097 
Q 1472 3097 1187 3025 
Q 903 2953 641 2809 
L 641 3341 
Q 956 3463 1253 3523 
Q 1550 3584 1831 3584 
Q 2591 3584 2966 3190 
Q 3341 2797 3341 1997 
z
" transform="scale(0.015625)"/>
       <path id="DejaVuSans-79" d="M 2059 -325 
Q 1816 -950 1584 -1140 
Q 1353 -1331 966 -1331 
L 506 -1331 
L 506 -850 
L 844 -850 
Q 1081 -850 1212 -737 
Q 1344 -625 1503 -206 
L 1606 56 
L 191 3500 
L 800 3500 
L 1894 763 
L 2988 3500 
L 3597 3500 
L 2059 -325 
z
" transform="scale(0.015625)"/>
      </defs>
      <use xlink:href="#DejaVuSans-6b"/>
      <use xlink:href="#DejaVuSans-57" x="57.910156"/>
      <use xlink:href="#DejaVuSans-68" x="156.787109"/>
      <use xlink:href="#DejaVuSans-2f" x="220.166016"/>
      <use xlink:href="#DejaVuSans-64" x="253.857422"/>
      <use xlink:href="#DejaVuSans-61" x="317.333984"/>
      <use xlink:href="#DejaVuSans-79" x="378.613281"/>
     </g>
    </g>
   </g>
   <g id="patch_103">
    <path d="M 104.496875 362.394375 
L 104.496875 36.234375 
" style="fill: none; stroke: #000000; stroke-width: 0.8; stroke-linejoin: miter; stroke-linecap: square"/>
   </g>
   <g id="patch_104">
    <path d="M 104.496875 362.394375 
L 774.096875 362.394375 
" style="fill: none; stroke: #000000; stroke-width: 0.8; stroke-linejoin: miter; stroke-linecap: square"/>
   </g>
   <g id="text_61">
    <!-- Average Daily Energy Consumption -->
    <g transform="translate(173.578906 29.995312)scale(0.3 -0.3)">
     <defs>
      <path id="DejaVuSans-41" d="M 2188 4044 
L 1331 1722 
L 3047 1722 
L 2188 4044 
z
M 1831 4666 
L 2547 4666 
L 4325 0 
L 3669 0 
L 3244 1197 
L 1141 1197 
L 716 0 
L 50 0 
L 1831 4666 
z
" transform="scale(0.015625)"/>
      <path id="DejaVuSans-76" d="M 191 3500 
L 800 3500 
L 1894 563 
L 2988 3500 
L 3597 3500 
L 2284 0 
L 1503 0 
L 191 3500 
z
" transform="scale(0.015625)"/>
      <path id="DejaVuSans-65" d="M 3597 1894 
L 3597 1613 
L 953 1613 
Q 991 1019 1311 708 
Q 1631 397 2203 397 
Q 2534 397 2845 478 
Q 3156 559 3463 722 
L 3463 178 
Q 3153 47 2828 -22 
Q 2503 -91 2169 -91 
Q 1331 -91 842 396 
Q 353 884 353 1716 
Q 353 2575 817 3079 
Q 1281 3584 2069 3584 
Q 2775 3584 3186 3129 
Q 3597 2675 3597 1894 
z
M 3022 2063 
Q 3016 2534 2758 2815 
Q 2500 3097 2075 3097 
Q 1594 3097 1305 2825 
Q 1016 2553 972 2059 
L 3022 2063 
z
" transform="scale(0.015625)"/>
      <path id="DejaVuSans-72" d="M 2631 2963 
Q 2534 3019 2420 3045 
Q 2306 3072 2169 3072 
Q 1681 3072 1420 2755 
Q 1159 2438 1159 1844 
L 1159 0 
L 581 0 
L 581 3500 
L 1159 3500 
L 1159 2956 
Q 1341 3275 1631 3429 
Q 1922 3584 2338 3584 
Q 2397 3584 2469 3576 
Q 2541 3569 2628 3553 
L 2631 2963 
z
" transform="scale(0.015625)"/>
      <path id="DejaVuSans-67" d="M 2906 1791 
Q 2906 2416 2648 2759 
Q 2391 3103 1925 3103 
Q 1463 3103 1205 2759 
Q 947 2416 947 1791 
Q 947 1169 1205 825 
Q 1463 481 1925 481 
Q 2391 481 2648 825 
Q 2906 1169 2906 1791 
z
M 3481 434 
Q 3481 -459 3084 -895 
Q 2688 -1331 1869 -1331 
Q 1566 -1331 1297 -1286 
Q 1028 -1241 775 -1147 
L 775 -588 
Q 1028 -725 1275 -790 
Q 1522 -856 1778 -856 
Q 2344 -856 2625 -561 
Q 2906 -266 2906 331 
L 2906 616 
Q 2728 306 2450 153 
Q 2172 0 1784 0 
Q 1141 0 747 490 
Q 353 981 353 1791 
Q 353 2603 747 3093 
Q 1141 3584 1784 3584 
Q 2172 3584 2450 3431 
Q 2728 3278 2906 2969 
L 2906 3500 
L 3481 3500 
L 3481 434 
z
" transform="scale(0.015625)"/>
      <path id="DejaVuSans-20" transform="scale(0.015625)"/>
      <path id="DejaVuSans-44" d="M 1259 4147 
L 1259 519 
L 2022 519 
Q 2988 519 3436 956 
Q 3884 1394 3884 2338 
Q 3884 3275 3436 3711 
Q 2988 4147 2022 4147 
L 1259 4147 
z
M 628 4666 
L 1925 4666 
Q 3281 4666 3915 4102 
Q 4550 3538 4550 2338 
Q 4550 1131 3912 565 
Q 3275 0 1925 0 
L 628 0 
L 628 4666 
z
" transform="scale(0.015625)"/>
      <path id="DejaVuSans-69" d="M 603 3500 
L 1178 3500 
L 1178 0 
L 603 0 
L 603 3500 
z
M 603 4863 
L 1178 4863 
L 1178 4134 
L 603 4134 
L 603 4863 
z
" transform="scale(0.015625)"/>
      <path id="DejaVuSans-6c" d="M 603 4863 
L 1178 4863 
L 1178 0 
L 603 0 
L 603 4863 
z
" transform="scale(0.015625)"/>
      <path id="DejaVuSans-45" d="M 628 4666 
L 3578 4666 
L 3578 4134 
L 1259 4134 
L 1259 2753 
L 3481 2753 
L 3481 2222 
L 1259 2222 
L 1259 531 
L 3634 531 
L 3634 0 
L 628 0 
L 628 4666 
z
" transform="scale(0.015625)"/>
      <path id="DejaVuSans-6e" d="M 3513 2113 
L 3513 0 
L 2938 0 
L 2938 2094 
Q 2938 2591 2744 2837 
Q 2550 3084 2163 3084 
Q 1697 3084 1428 2787 
Q 1159 2491 1159 1978 
L 1159 0 
L 581 0 
L 581 3500 
L 1159 3500 
L 1159 2956 
Q 1366 3272 1645 3428 
Q 1925 3584 2291 3584 
Q 2894 3584 3203 3211 
Q 3513 2838 3513 2113 
z
" transform="scale(0.015625)"/>
      <path id="DejaVuSans-43" d="M 4122 4306 
L 4122 3641 
Q 3803 3938 3442 4084 
Q 3081 4231 2675 4231 
Q 1875 4231 1450 3742 
Q 1025 3253 1025 2328 
Q 1025 1406 1450 917 
Q 1875 428 2675 428 
Q 3081 428 3442 575 
Q 3803 722 4122 1019 
L 4122 359 
Q 3791 134 3420 21 
Q 3050 -91 2638 -91 
Q 1578 -91 968 557 
Q 359 1206 359 2328 
Q 359 3453 968 4101 
Q 1578 4750 2638 4750 
Q 3056 4750 3426 4639 
Q 3797 4528 4122 4306 
z
" transform="scale(0.015625)"/>
      <path id="DejaVuSans-6f" d="M 1959 3097 
Q 1497 3097 1228 2736 
Q 959 2375 959 1747 
Q 959 1119 1226 758 
Q 1494 397 1959 397 
Q 2419 397 2687 759 
Q 2956 1122 2956 1747 
Q 2956 2369 2687 2733 
Q 2419 3097 1959 3097 
z
M 1959 3584 
Q 2709 3584 3137 3096 
Q 3566 2609 3566 1747 
Q 3566 888 3137 398 
Q 2709 -91 1959 -91 
Q 1206 -91 779 398 
Q 353 888 353 1747 
Q 353 2609 779 3096 
Q 1206 3584 1959 3584 
z
" transform="scale(0.015625)"/>
      <path id="DejaVuSans-73" d="M 2834 3397 
L 2834 2853 
Q 2591 2978 2328 3040 
Q 2066 3103 1784 3103 
Q 1356 3103 1142 2972 
Q 928 2841 928 2578 
Q 928 2378 1081 2264 
Q 1234 2150 1697 2047 
L 1894 2003 
Q 2506 1872 2764 1633 
Q 3022 1394 3022 966 
Q 3022 478 2636 193 
Q 2250 -91 1575 -91 
Q 1294 -91 989 -36 
Q 684 19 347 128 
L 347 722 
Q 666 556 975 473 
Q 1284 391 1588 391 
Q 1994 391 2212 530 
Q 2431 669 2431 922 
Q 2431 1156 2273 1281 
Q 2116 1406 1581 1522 
L 1381 1569 
Q 847 1681 609 1914 
Q 372 2147 372 2553 
Q 372 3047 722 3315 
Q 1072 3584 1716 3584 
Q 2034 3584 2315 3537 
Q 2597 3491 2834 3397 
z
" transform="scale(0.015625)"/>
      <path id="DejaVuSans-75" d="M 544 1381 
L 544 3500 
L 1119 3500 
L 1119 1403 
Q 1119 906 1312 657 
Q 1506 409 1894 409 
Q 2359 409 2629 706 
Q 2900 1003 2900 1516 
L 2900 3500 
L 3475 3500 
L 3475 0 
L 2900 0 
L 2900 538 
Q 2691 219 2414 64 
Q 2138 -91 1772 -91 
Q 1169 -91 856 284 
Q 544 659 544 1381 
z
M 1991 3584 
L 1991 3584 
z
" transform="scale(0.015625)"/>
      <path id="DejaVuSans-6d" d="M 3328 2828 
Q 3544 3216 3844 3400 
Q 4144 3584 4550 3584 
Q 5097 3584 5394 3201 
Q 5691 2819 5691 2113 
L 5691 0 
L 5113 0 
L 5113 2094 
Q 5113 2597 4934 2840 
Q 4756 3084 4391 3084 
Q 3944 3084 3684 2787 
Q 3425 2491 3425 1978 
L 3425 0 
L 2847 0 
L 2847 2094 
Q 2847 2600 2669 2842 
Q 2491 3084 2119 3084 
Q 1678 3084 1418 2786 
Q 1159 2488 1159 1978 
L 1159 0 
L 581 0 
L 581 3500 
L 1159 3500 
L 1159 2956 
Q 1356 3278 1631 3431 
Q 1906 3584 2284 3584 
Q 2666 3584 2933 3390 
Q 3200 3197 3328 2828 
z
" transform="scale(0.015625)"/>
      <path id="DejaVuSans-70" d="M 1159 525 
L 1159 -1331 
L 581 -1331 
L 581 3500 
L 1159 3500 
L 1159 2969 
Q 1341 3281 1617 3432 
Q 1894 3584 2278 3584 
Q 2916 3584 3314 3078 
Q 3713 2572 3713 1747 
Q 3713 922 3314 415 
Q 2916 -91 2278 -91 
Q 1894 -91 1617 61 
Q 1341 213 1159 525 
z
M 3116 1747 
Q 3116 2381 2855 2742 
Q 2594 3103 2138 3103 
Q 1681 3103 1420 2742 
Q 1159 2381 1159 1747 
Q 1159 1113 1420 752 
Q 1681 391 2138 391 
Q 2594 391 2855 752 
Q 3116 1113 3116 1747 
z
" transform="scale(0.015625)"/>
      <path id="DejaVuSans-74" d="M 1172 4494 
L 1172 3500 
L 2356 3500 
L 2356 3053 
L 1172 3053 
L 1172 1153 
Q 1172 725 1289 603 
Q 1406 481 1766 481 
L 2356 481 
L 2356 0 
L 1766 0 
Q 1100 0 847 248 
Q 594 497 594 1153 
L 594 3053 
L 172 3053 
L 172 3500 
L 594 3500 
L 594 4494 
L 1172 4494 
z
" transform="scale(0.015625)"/>
     </defs>
     <use xlink:href="#DejaVuSans-41"/>
     <use xlink:href="#DejaVuSans-76" x="62.533203"/>
     <use xlink:href="#DejaVuSans-65" x="121.712891"/>
     <use xlink:href="#DejaVuSans-72" x="183.236328"/>
     <use xlink:href="#DejaVuSans-61" x="224.349609"/>
     <use xlink:href="#DejaVuSans-67" x="285.628906"/>
     <use xlink:href="#DejaVuSans-65" x="349.105469"/>
     <use xlink:href="#DejaVuSans-20" x="410.628906"/>
     <use xlink:href="#DejaVuSans-44" x="442.416016"/>
     <use xlink:href="#DejaVuSans-61" x="519.417969"/>
     <use xlink:href="#DejaVuSans-69" x="580.697266"/>
     <use xlink:href="#DejaVuSans-6c" x="608.480469"/>
     <use xlink:href="#DejaVuSans-79" x="636.263672"/>
     <use xlink:href="#DejaVuSans-20" x="695.443359"/>
     <use xlink:href="#DejaVuSans-45" x="727.230469"/>
     <use xlink:href="#DejaVuSans-6e" x="790.414062"/>
     <use xlink:href="#DejaVuSans-65" x="853.792969"/>
     <use xlink:href="#DejaVuSans-72" x="915.316406"/>
     <use xlink:href="#DejaVuSans-67" x="954.679688"/>
     <use xlink:href="#DejaVuSans-79" x="1018.15625"/>
     <use xlink:href="#DejaVuSans-20" x="1077.335938"/>
     <use xlink:href="#DejaVuSans-43" x="1109.123047"/>
     <use xlink:href="#DejaVuSans-6f" x="1178.947266"/>
     <use xlink:href="#DejaVuSans-6e" x="1240.128906"/>
     <use xlink:href="#DejaVuSans-73" x="1303.507812"/>
     <use xlink:href="#DejaVuSans-75" x="1355.607422"/>
     <use xlink:href="#DejaVuSans-6d" x="1418.986328"/>
     <use xlink:href="#DejaVuSans-70" x="1516.398438"/>
     <use xlink:href="#DejaVuSans-74" x="1579.875"/>
     <use xlink:href="#DejaVuSans-69" x="1619.083984"/>
     <use xlink:href="#DejaVuSans-6f" x="1646.867188"/>
     <use xlink:href="#DejaVuSans-6e" x="1708.048828"/>
    </g>
   </g>
   <g id="legend_1">
    <g id="patch_105">
     <path d="M 552.413281 116.5786 
L 756.596875 116.5786 
Q 761.596875 116.5786 761.596875 111.5786 
L 761.596875 40.687975 
Q 761.596875 35.687975 756.596875 35.687975 
L 552.413281 35.687975 
Q 547.413281 35.687975 547.413281 40.687975 
L 547.413281 111.5786 
Q 547.413281 116.5786 552.413281 116.5786 
z
" style="fill: #ffffff; opacity: 0.8; stroke: #cccccc; stroke-linejoin: miter"/>
    </g>
    <g id="patch_106">
     <path d="M 557.413281 64.684069 
L 607.413281 64.684069 
L 607.413281 47.184069 
L 557.413281 47.184069 
z
" style="fill: #8c8c8c"/>
    </g>
    <g id="text_62">
     <!-- Gas -->
     <g transform="translate(627.413281 64.684069)scale(0.25 -0.25)">
      <defs>
       <path id="DejaVuSans-47" d="M 3809 666 
L 3809 1919 
L 2778 1919 
L 2778 2438 
L 4434 2438 
L 4434 434 
Q 4069 175 3628 42 
Q 3188 -91 2688 -91 
Q 1594 -91 976 548 
Q 359 1188 359 2328 
Q 359 3472 976 4111 
Q 1594 4750 2688 4750 
Q 3144 4750 3555 4637 
Q 3966 4525 4313 4306 
L 4313 3634 
Q 3963 3931 3569 4081 
Q 3175 4231 2741 4231 
Q 1884 4231 1454 3753 
Q 1025 3275 1025 2328 
Q 1025 1384 1454 906 
Q 1884 428 2741 428 
Q 3075 428 3337 486 
Q 3600 544 3809 666 
z
" transform="scale(0.015625)"/>
      </defs>
      <use xlink:href="#DejaVuSans-47"/>
      <use xlink:href="#DejaVuSans-61" x="77.490234"/>
      <use xlink:href="#DejaVuSans-73" x="138.769531"/>
     </g>
    </g>
    <g id="patch_107">
     <path d="M 557.413281 101.379381 
L 607.413281 101.379381 
L 607.413281 83.879381 
L 557.413281 83.879381 
z
" style="fill: #90cd97"/>
    </g>
    <g id="text_63">
     <!-- Electricity -->
     <g transform="translate(627.413281 101.379381)scale(0.25 -0.25)">
      <defs>
       <path id="DejaVuSans-63" d="M 3122 3366 
L 3122 2828 
Q 2878 2963 2633 3030 
Q 2388 3097 2138 3097 
Q 1578 3097 1268 2742 
Q 959 2388 959 1747 
Q 959 1106 1268 751 
Q 1578 397 2138 397 
Q 2388 397 2633 464 
Q 2878 531 3122 666 
L 3122 134 
Q 2881 22 2623 -34 
Q 2366 -91 2075 -91 
Q 1284 -91 818 406 
Q 353 903 353 1747 
Q 353 2603 823 3093 
Q 1294 3584 2113 3584 
Q 2378 3584 2631 3529 
Q 2884 3475 3122 3366 
z
" transform="scale(0.015625)"/>
      </defs>
      <use xlink:href="#DejaVuSans-45"/>
      <use xlink:href="#DejaVuSans-6c" x="63.183594"/>
      <use xlink:href="#DejaVuSans-65" x="90.966797"/>
      <use xlink:href="#DejaVuSans-63" x="152.490234"/>
      <use xlink:href="#DejaVuSans-74" x="207.470703"/>
      <use xlink:href="#DejaVuSans-72" x="246.679688"/>
      <use xlink:href="#DejaVuSans-69" x="287.792969"/>
      <use xlink:href="#DejaVuSans-63" x="315.576172"/>
      <use xlink:href="#DejaVuSans-69" x="370.556641"/>
      <use xlink:href="#DejaVuSans-74" x="398.339844"/>
      <use xlink:href="#DejaVuSans-79" x="437.548828"/>
     </g>
    </g>
   </g>
  </g>
 </g>
 <defs>
  <clipPath id="pb75f4ffe74">
   <rect x="104.496875" y="36.234375" width="669.6" height="326.16"/>
  </clipPath>
 </defs>
</svg>
