<?xml version="1.0" encoding="utf-8" standalone="no"?>
<!DOCTYPE svg PUBLIC "-//W3C//DTD SVG 1.1//EN"
  "http://www.w3.org/Graphics/SVG/1.1/DTD/svg11.dtd">
<svg xmlns:xlink="http://www.w3.org/1999/xlink" width="809.91875pt" height="418.377187pt" viewBox="0 0 809.91875 418.377187" xmlns="http://www.w3.org/2000/svg" version="1.1">
 <metadata>
  <rdf:RDF xmlns:dc="http://purl.org/dc/elements/1.1/" xmlns:cc="http://creativecommons.org/ns#" xmlns:rdf="http://www.w3.org/1999/02/22-rdf-syntax-ns#">
   <cc:Work>
    <dc:type rdf:resource="http://purl.org/dc/dcmitype/StillImage"/>
    <dc:date>2021-12-07T15:15:03.025447</dc:date>
    <dc:format>image/svg+xml</dc:format>
    <dc:creator>
     <cc:Agent>
      <dc:title>Matplotlib v3.5.0, https://matplotlib.org/</dc:title>
     </cc:Agent>
    </dc:creator>
   </cc:Work>
  </rdf:RDF>
 </metadata>
 <defs>
  <style type="text/css">*{stroke-linejoin: round; stroke-linecap: butt}</style>
 </defs>
 <g id="figure_1">
  <g id="patch_1">
   <path d="M 0 418.377187 
L 809.91875 418.377187 
L 809.91875 0 
L 0 0 
z
" style="fill: #ffffff"/>
  </g>
  <g id="axes_1">
   <g id="patch_2">
    <path d="M 133.11875 362.394375 
L 802.71875 362.394375 
L 802.71875 36.234375 
L 133.11875 36.234375 
z
" style="fill: #ffffff"/>
   </g>
   <g id="patch_3">
    <path d="M 136.440179 362.394375 
L 148.397321 362.394375 
L 148.397321 355.283155 
L 136.440179 355.283155 
z
" clip-path="url(#pa314925468)" style="fill: #f07e6e"/>
   </g>
   <g id="patch_4">
    <path d="M 149.725893 362.394375 
L 161.683036 362.394375 
L 161.683036 348.715674 
L 149.725893 348.715674 
z
" clip-path="url(#pa314925468)" style="fill: #f07e6e"/>
   </g>
   <g id="patch_5">
    <path d="M 163.011607 362.394375 
L 174.96875 362.394375 
L 174.96875 337.626654 
L 163.011607 337.626654 
z
" clip-path="url(#pa314925468)" style="fill: #f07e6e"/>
   </g>
   <g id="patch_6">
    <path d="M 176.297321 362.394375 
L 188.254464 362.394375 
L 188.254464 332.411302 
L 176.297321 332.411302 
z
" clip-path="url(#pa314925468)" style="fill: #f07e6e"/>
   </g>
   <g id="patch_7">
    <path d="M 189.583036 362.394375 
L 201.540179 362.394375 
L 201.540179 334.7401 
L 189.583036 334.7401 
z
" clip-path="url(#pa314925468)" style="fill: #f07e6e"/>
   </g>
   <g id="patch_8">
    <path d="M 202.86875 362.394375 
L 214.825893 362.394375 
L 214.825893 336.742978 
L 202.86875 336.742978 
z
" clip-path="url(#pa314925468)" style="fill: #f07e6e"/>
   </g>
   <g id="patch_9">
    <path d="M 216.154464 362.394375 
L 228.111607 362.394375 
L 228.111607 340.281135 
L 216.154464 340.281135 
z
" clip-path="url(#pa314925468)" style="fill: #f07e6e"/>
   </g>
   <g id="patch_10">
    <path d="M 229.440179 362.394375 
L 241.397321 362.394375 
L 241.397321 342.422946 
L 229.440179 342.422946 
z
" clip-path="url(#pa314925468)" style="fill: #f07e6e"/>
   </g>
   <g id="patch_11">
    <path d="M 242.725893 362.394375 
L 254.683036 362.394375 
L 254.683036 343.293984 
L 242.725893 343.293984 
z
" clip-path="url(#pa314925468)" style="fill: #f07e6e"/>
   </g>
   <g id="patch_12">
    <path d="M 256.011607 362.394375 
L 267.96875 362.394375 
L 267.96875 340.282901 
L 256.011607 340.282901 
z
" clip-path="url(#pa314925468)" style="fill: #f07e6e"/>
   </g>
   <g id="patch_13">
    <path d="M 269.297321 362.394375 
L 281.254464 362.394375 
L 281.254464 341.467425 
L 269.297321 341.467425 
z
" clip-path="url(#pa314925468)" style="fill: #f07e6e"/>
   </g>
   <g id="patch_14">
    <path d="M 282.583036 362.394375 
L 294.540179 362.394375 
L 294.540179 345.391462 
L 282.583036 345.391462 
z
" clip-path="url(#pa314925468)" style="fill: #f07e6e"/>
   </g>
   <g id="patch_15">
    <path d="M 295.86875 362.394375 
L 307.825893 362.394375 
L 307.825893 343.822019 
L 295.86875 343.822019 
z
" clip-path="url(#pa314925468)" style="fill: #f07e6e"/>
   </g>
   <g id="patch_16">
    <path d="M 309.154464 362.394375 
L 321.111607 362.394375 
L 321.111607 349.279989 
L 309.154464 349.279989 
z
" clip-path="url(#pa314925468)" style="fill: #f07e6e"/>
   </g>
   <g id="patch_17">
    <path d="M 322.440179 362.394375 
L 334.397321 362.394375 
L 334.397321 343.475542 
L 322.440179 343.475542 
z
" clip-path="url(#pa314925468)" style="fill: #f07e6e"/>
   </g>
   <g id="patch_18">
    <path d="M 335.725893 362.394375 
L 347.683036 362.394375 
L 347.683036 339.815889 
L 335.725893 339.815889 
z
" clip-path="url(#pa314925468)" style="fill: #f07e6e"/>
   </g>
   <g id="patch_19">
    <path d="M 349.011607 362.394375 
L 360.96875 362.394375 
L 360.96875 339.005377 
L 349.011607 339.005377 
z
" clip-path="url(#pa314925468)" style="fill: #f07e6e"/>
   </g>
   <g id="patch_20">
    <path d="M 362.297321 362.394375 
L 374.254464 362.394375 
L 374.254464 336.421892 
L 362.297321 336.421892 
z
" clip-path="url(#pa314925468)" style="fill: #f07e6e"/>
   </g>
   <g id="patch_21">
    <path d="M 375.583036 362.394375 
L 387.540179 362.394375 
L 387.540179 341.673158 
L 375.583036 341.673158 
z
" clip-path="url(#pa314925468)" style="fill: #f07e6e"/>
   </g>
   <g id="patch_22">
    <path d="M 388.86875 362.394375 
L 400.825893 362.394375 
L 400.825893 342.267984 
L 388.86875 342.267984 
z
" clip-path="url(#pa314925468)" style="fill: #f07e6e"/>
   </g>
   <g id="patch_23">
    <path d="M 402.154464 362.394375 
L 414.111607 362.394375 
L 414.111607 344.15531 
L 402.154464 344.15531 
z
" clip-path="url(#pa314925468)" style="fill: #f07e6e"/>
   </g>
   <g id="patch_24">
    <path d="M 415.440179 362.394375 
L 427.397321 362.394375 
L 427.397321 348.09521 
L 415.440179 348.09521 
z
" clip-path="url(#pa314925468)" style="fill: #f07e6e"/>
   </g>
   <g id="patch_25">
    <path d="M 428.725893 362.394375 
L 440.683036 362.394375 
L 440.683036 351.186366 
L 428.725893 351.186366 
z
" clip-path="url(#pa314925468)" style="fill: #f07e6e"/>
   </g>
   <g id="patch_26">
    <path d="M 442.011607 362.394375 
L 453.96875 362.394375 
L 453.96875 347.840391 
L 442.011607 347.840391 
z
" clip-path="url(#pa314925468)" style="fill: #f07e6e"/>
   </g>
   <g id="patch_27">
    <path d="M 455.297321 362.394375 
L 467.254464 362.394375 
L 467.254464 347.508277 
L 455.297321 347.508277 
z
" clip-path="url(#pa314925468)" style="fill: #f07e6e"/>
   </g>
   <g id="patch_28">
    <path d="M 468.583036 362.394375 
L 480.540179 362.394375 
L 480.540179 352.101917 
L 468.583036 352.101917 
z
" clip-path="url(#pa314925468)" style="fill: #f07e6e"/>
   </g>
   <g id="patch_29">
    <path d="M 481.86875 362.394375 
L 493.825893 362.394375 
L 493.825893 348.912474 
L 481.86875 348.912474 
z
" clip-path="url(#pa314925468)" style="fill: #f07e6e"/>
   </g>
   <g id="patch_30">
    <path d="M 495.154464 362.394375 
L 507.111607 362.394375 
L 507.111607 343.164126 
L 495.154464 343.164126 
z
" clip-path="url(#pa314925468)" style="fill: #f07e6e"/>
   </g>
   <g id="patch_31">
    <path d="M 508.440179 362.394375 
L 520.397321 362.394375 
L 520.397321 341.900015 
L 508.440179 341.900015 
z
" clip-path="url(#pa314925468)" style="fill: #f07e6e"/>
   </g>
   <g id="patch_32">
    <path d="M 521.725893 362.394375 
L 533.683036 362.394375 
L 533.683036 340.561559 
L 521.725893 340.561559 
z
" clip-path="url(#pa314925468)" style="fill: #f07e6e"/>
   </g>
   <g id="patch_33">
    <path d="M 535.011607 362.394375 
L 546.96875 362.394375 
L 546.96875 344.647413 
L 535.011607 344.647413 
z
" clip-path="url(#pa314925468)" style="fill: #f07e6e"/>
   </g>
   <g id="patch_34">
    <path d="M 548.297321 362.394375 
L 560.254464 362.394375 
L 560.254464 340.497772 
L 548.297321 340.497772 
z
" clip-path="url(#pa314925468)" style="fill: #f07e6e"/>
   </g>
   <g id="patch_35">
    <path d="M 561.583036 362.394375 
L 573.540179 362.394375 
L 573.540179 335.250857 
L 561.583036 335.250857 
z
" clip-path="url(#pa314925468)" style="fill: #f07e6e"/>
   </g>
   <g id="patch_36">
    <path d="M 574.86875 362.394375 
L 586.825893 362.394375 
L 586.825893 341.600307 
L 574.86875 341.600307 
z
" clip-path="url(#pa314925468)" style="fill: #f07e6e"/>
   </g>
   <g id="patch_37">
    <path d="M 588.154464 362.394375 
L 600.111607 362.394375 
L 600.111607 333.498901 
L 588.154464 333.498901 
z
" clip-path="url(#pa314925468)" style="fill: #f07e6e"/>
   </g>
   <g id="patch_38">
    <path d="M 601.440179 362.394375 
L 613.397321 362.394375 
L 613.397321 322.797153 
L 601.440179 322.797153 
z
" clip-path="url(#pa314925468)" style="fill: #f07e6e"/>
   </g>
   <g id="patch_39">
    <path d="M 614.725893 362.394375 
L 626.683036 362.394375 
L 626.683036 330.669088 
L 614.725893 330.669088 
z
" clip-path="url(#pa314925468)" style="fill: #f07e6e"/>
   </g>
   <g id="patch_40">
    <path d="M 628.011607 362.394375 
L 639.96875 362.394375 
L 639.96875 335.633509 
L 628.011607 335.633509 
z
" clip-path="url(#pa314925468)" style="fill: #f07e6e"/>
   </g>
   <g id="patch_41">
    <path d="M 641.297321 362.394375 
L 653.254464 362.394375 
L 653.254464 333.351225 
L 641.297321 333.351225 
z
" clip-path="url(#pa314925468)" style="fill: #f07e6e"/>
   </g>
   <g id="patch_42">
    <path d="M 654.583036 362.394375 
L 666.540179 362.394375 
L 666.540179 329.089898 
L 654.583036 329.089898 
z
" clip-path="url(#pa314925468)" style="fill: #f07e6e"/>
   </g>
   <g id="patch_43">
    <path d="M 667.86875 362.394375 
L 679.825893 362.394375 
L 679.825893 325.983522 
L 667.86875 325.983522 
z
" clip-path="url(#pa314925468)" style="fill: #f07e6e"/>
   </g>
   <g id="patch_44">
    <path d="M 681.154464 362.394375 
L 693.111607 362.394375 
L 693.111607 327.101447 
L 681.154464 327.101447 
z
" clip-path="url(#pa314925468)" style="fill: #f07e6e"/>
   </g>
   <g id="patch_45">
    <path d="M 694.440179 362.394375 
L 706.397321 362.394375 
L 706.397321 327.192246 
L 694.440179 327.192246 
z
" clip-path="url(#pa314925468)" style="fill: #f07e6e"/>
   </g>
   <g id="patch_46">
    <path d="M 707.725893 362.394375 
L 719.683036 362.394375 
L 719.683036 324.968457 
L 707.725893 324.968457 
z
" clip-path="url(#pa314925468)" style="fill: #f07e6e"/>
   </g>
   <g id="patch_47">
    <path d="M 721.011607 362.394375 
L 732.96875 362.394375 
L 732.96875 328.198673 
L 721.011607 328.198673 
z
" clip-path="url(#pa314925468)" style="fill: #f07e6e"/>
   </g>
   <g id="patch_48">
    <path d="M 734.297321 362.394375 
L 746.254464 362.394375 
L 746.254464 335.222611 
L 734.297321 335.222611 
z
" clip-path="url(#pa314925468)" style="fill: #f07e6e"/>
   </g>
   <g id="patch_49">
    <path d="M 747.583036 362.394375 
L 759.540179 362.394375 
L 759.540179 336.876341 
L 747.583036 336.876341 
z
" clip-path="url(#pa314925468)" style="fill: #f07e6e"/>
   </g>
   <g id="patch_50">
    <path d="M 760.86875 362.394375 
L 772.825893 362.394375 
L 772.825893 335.419593 
L 760.86875 335.419593 
z
" clip-path="url(#pa314925468)" style="fill: #f07e6e"/>
   </g>
   <g id="patch_51">
    <path d="M 774.154464 362.394375 
L 786.111607 362.394375 
L 786.111607 338.256924 
L 774.154464 338.256924 
z
" clip-path="url(#pa314925468)" style="fill: #f07e6e"/>
   </g>
   <g id="patch_52">
    <path d="M 787.440179 362.394375 
L 799.397321 362.394375 
L 799.397321 337.936931 
L 787.440179 337.936931 
z
" clip-path="url(#pa314925468)" style="fill: #f07e6e"/>
   </g>
   <g id="patch_53">
    <path d="M 136.440179 355.283155 
L 148.397321 355.283155 
L 148.397321 346.90923 
L 136.440179 346.90923 
z
" clip-path="url(#pa314925468)" style="fill: #eddd46"/>
   </g>
   <g id="patch_54">
    <path d="M 149.725893 348.715674 
L 161.683036 348.715674 
L 161.683036 328.243174 
L 149.725893 328.243174 
z
" clip-path="url(#pa314925468)" style="fill: #eddd46"/>
   </g>
   <g id="patch_55">
    <path d="M 163.011607 337.626654 
L 174.96875 337.626654 
L 174.96875 313.770587 
L 163.011607 313.770587 
z
" clip-path="url(#pa314925468)" style="fill: #eddd46"/>
   </g>
   <g id="patch_56">
    <path d="M 176.297321 332.411302 
L 188.254464 332.411302 
L 188.254464 312.596198 
L 176.297321 312.596198 
z
" clip-path="url(#pa314925468)" style="fill: #eddd46"/>
   </g>
   <g id="patch_57">
    <path d="M 189.583036 334.7401 
L 201.540179 334.7401 
L 201.540179 314.599272 
L 189.583036 314.599272 
z
" clip-path="url(#pa314925468)" style="fill: #eddd46"/>
   </g>
   <g id="patch_58">
    <path d="M 202.86875 336.742978 
L 214.825893 336.742978 
L 214.825893 317.785109 
L 202.86875 317.785109 
z
" clip-path="url(#pa314925468)" style="fill: #eddd46"/>
   </g>
   <g id="patch_59">
    <path d="M 216.154464 340.281135 
L 228.111607 340.281135 
L 228.111607 326.595461 
L 216.154464 326.595461 
z
" clip-path="url(#pa314925468)" style="fill: #eddd46"/>
   </g>
   <g id="patch_60">
    <path d="M 229.440179 342.422946 
L 241.397321 342.422946 
L 241.397321 327.627821 
L 229.440179 327.627821 
z
" clip-path="url(#pa314925468)" style="fill: #eddd46"/>
   </g>
   <g id="patch_61">
    <path d="M 242.725893 343.293984 
L 254.683036 343.293984 
L 254.683036 324.587555 
L 242.725893 324.587555 
z
" clip-path="url(#pa314925468)" style="fill: #eddd46"/>
   </g>
   <g id="patch_62">
    <path d="M 256.011607 340.282901 
L 267.96875 340.282901 
L 267.96875 312.350559 
L 256.011607 312.350559 
z
" clip-path="url(#pa314925468)" style="fill: #eddd46"/>
   </g>
   <g id="patch_63">
    <path d="M 269.297321 341.467425 
L 281.254464 341.467425 
L 281.254464 317.423209 
L 269.297321 317.423209 
z
" clip-path="url(#pa314925468)" style="fill: #eddd46"/>
   </g>
   <g id="patch_64">
    <path d="M 282.583036 345.391462 
L 294.540179 345.391462 
L 294.540179 328.577083 
L 282.583036 328.577083 
z
" clip-path="url(#pa314925468)" style="fill: #eddd46"/>
   </g>
   <g id="patch_65">
    <path d="M 295.86875 343.822019 
L 307.825893 343.822019 
L 307.825893 323.836787 
L 295.86875 323.836787 
z
" clip-path="url(#pa314925468)" style="fill: #eddd46"/>
   </g>
   <g id="patch_66">
    <path d="M 309.154464 349.279989 
L 321.111607 349.279989 
L 321.111607 331.871597 
L 309.154464 331.871597 
z
" clip-path="url(#pa314925468)" style="fill: #eddd46"/>
   </g>
   <g id="patch_67">
    <path d="M 322.440179 343.475542 
L 334.397321 343.475542 
L 334.397321 319.941949 
L 322.440179 319.941949 
z
" clip-path="url(#pa314925468)" style="fill: #eddd46"/>
   </g>
   <g id="patch_68">
    <path d="M 335.725893 339.815889 
L 347.683036 339.815889 
L 347.683036 320.804787 
L 335.725893 320.804787 
z
" clip-path="url(#pa314925468)" style="fill: #eddd46"/>
   </g>
   <g id="patch_69">
    <path d="M 349.011607 339.005377 
L 360.96875 339.005377 
L 360.96875 321.710328 
L 349.011607 321.710328 
z
" clip-path="url(#pa314925468)" style="fill: #eddd46"/>
   </g>
   <g id="patch_70">
    <path d="M 362.297321 336.421892 
L 374.254464 336.421892 
L 374.254464 317.533785 
L 362.297321 317.533785 
z
" clip-path="url(#pa314925468)" style="fill: #eddd46"/>
   </g>
   <g id="patch_71">
    <path d="M 375.583036 341.673158 
L 387.540179 341.673158 
L 387.540179 325.034514 
L 375.583036 325.034514 
z
" clip-path="url(#pa314925468)" style="fill: #eddd46"/>
   </g>
   <g id="patch_72">
    <path d="M 388.86875 342.267984 
L 400.825893 342.267984 
L 400.825893 327.391536 
L 388.86875 327.391536 
z
" clip-path="url(#pa314925468)" style="fill: #eddd46"/>
   </g>
   <g id="patch_73">
    <path d="M 402.154464 344.15531 
L 414.111607 344.15531 
L 414.111607 327.945619 
L 402.154464 327.945619 
z
" clip-path="url(#pa314925468)" style="fill: #eddd46"/>
   </g>
   <g id="patch_74">
    <path d="M 415.440179 348.09521 
L 427.397321 348.09521 
L 427.397321 329.771386 
L 415.440179 329.771386 
z
" clip-path="url(#pa314925468)" style="fill: #eddd46"/>
   </g>
   <g id="patch_75">
    <path d="M 428.725893 351.186366 
L 440.683036 351.186366 
L 440.683036 337.058266 
L 428.725893 337.058266 
z
" clip-path="url(#pa314925468)" style="fill: #eddd46"/>
   </g>
   <g id="patch_76">
    <path d="M 442.011607 347.840391 
L 453.96875 347.840391 
L 453.96875 333.284233 
L 442.011607 333.284233 
z
" clip-path="url(#pa314925468)" style="fill: #eddd46"/>
   </g>
   <g id="patch_77">
    <path d="M 455.297321 347.508277 
L 467.254464 347.508277 
L 467.254464 332.298893 
L 455.297321 332.298893 
z
" clip-path="url(#pa314925468)" style="fill: #eddd46"/>
   </g>
   <g id="patch_78">
    <path d="M 468.583036 352.101917 
L 480.540179 352.101917 
L 480.540179 339.712569 
L 468.583036 339.712569 
z
" clip-path="url(#pa314925468)" style="fill: #eddd46"/>
   </g>
   <g id="patch_79">
    <path d="M 481.86875 348.912474 
L 493.825893 348.912474 
L 493.825893 334.304855 
L 481.86875 334.304855 
z
" clip-path="url(#pa314925468)" style="fill: #eddd46"/>
   </g>
   <g id="patch_80">
    <path d="M 495.154464 343.164126 
L 507.111607 343.164126 
L 507.111607 328.567887 
L 495.154464 328.567887 
z
" clip-path="url(#pa314925468)" style="fill: #eddd46"/>
   </g>
   <g id="patch_81">
    <path d="M 508.440179 341.900015 
L 520.397321 341.900015 
L 520.397321 326.52688 
L 508.440179 326.52688 
z
" clip-path="url(#pa314925468)" style="fill: #eddd46"/>
   </g>
   <g id="patch_82">
    <path d="M 521.725893 340.561559 
L 533.683036 340.561559 
L 533.683036 325.320771 
L 521.725893 325.320771 
z
" clip-path="url(#pa314925468)" style="fill: #eddd46"/>
   </g>
   <g id="patch_83">
    <path d="M 535.011607 344.647413 
L 546.96875 344.647413 
L 546.96875 332.163201 
L 535.011607 332.163201 
z
" clip-path="url(#pa314925468)" style="fill: #eddd46"/>
   </g>
   <g id="patch_84">
    <path d="M 548.297321 340.497772 
L 560.254464 340.497772 
L 560.254464 321.533643 
L 548.297321 321.533643 
z
" clip-path="url(#pa314925468)" style="fill: #eddd46"/>
   </g>
   <g id="patch_85">
    <path d="M 561.583036 335.250857 
L 573.540179 335.250857 
L 573.540179 309.180042 
L 561.583036 309.180042 
z
" clip-path="url(#pa314925468)" style="fill: #eddd46"/>
   </g>
   <g id="patch_86">
    <path d="M 574.86875 341.600307 
L 586.825893 341.600307 
L 586.825893 319.76379 
L 574.86875 319.76379 
z
" clip-path="url(#pa314925468)" style="fill: #eddd46"/>
   </g>
   <g id="patch_87">
    <path d="M 588.154464 333.498901 
L 600.111607 333.498901 
L 600.111607 304.28443 
L 588.154464 304.28443 
z
" clip-path="url(#pa314925468)" style="fill: #eddd46"/>
   </g>
   <g id="patch_88">
    <path d="M 601.440179 322.797153 
L 613.397321 322.797153 
L 613.397321 289.320867 
L 601.440179 289.320867 
z
" clip-path="url(#pa314925468)" style="fill: #eddd46"/>
   </g>
   <g id="patch_89">
    <path d="M 614.725893 330.669088 
L 626.683036 330.669088 
L 626.683036 305.861886 
L 614.725893 305.861886 
z
" clip-path="url(#pa314925468)" style="fill: #eddd46"/>
   </g>
   <g id="patch_90">
    <path d="M 628.011607 335.633509 
L 639.96875 335.633509 
L 639.96875 309.600243 
L 628.011607 309.600243 
z
" clip-path="url(#pa314925468)" style="fill: #eddd46"/>
   </g>
   <g id="patch_91">
    <path d="M 641.297321 333.351225 
L 653.254464 333.351225 
L 653.254464 308.047111 
L 641.297321 308.047111 
z
" clip-path="url(#pa314925468)" style="fill: #eddd46"/>
   </g>
   <g id="patch_92">
    <path d="M 654.583036 329.089898 
L 666.540179 329.089898 
L 666.540179 301.978671 
L 654.583036 301.978671 
z
" clip-path="url(#pa314925468)" style="fill: #eddd46"/>
   </g>
   <g id="patch_93">
    <path d="M 667.86875 325.983522 
L 679.825893 325.983522 
L 679.825893 296.734168 
L 667.86875 296.734168 
z
" clip-path="url(#pa314925468)" style="fill: #eddd46"/>
   </g>
   <g id="patch_94">
    <path d="M 681.154464 327.101447 
L 693.111607 327.101447 
L 693.111607 299.460716 
L 681.154464 299.460716 
z
" clip-path="url(#pa314925468)" style="fill: #eddd46"/>
   </g>
   <g id="patch_95">
    <path d="M 694.440179 327.192246 
L 706.397321 327.192246 
L 706.397321 303.312346 
L 694.440179 303.312346 
z
" clip-path="url(#pa314925468)" style="fill: #eddd46"/>
   </g>
   <g id="patch_96">
    <path d="M 707.725893 324.968457 
L 719.683036 324.968457 
L 719.683036 296.395537 
L 707.725893 296.395537 
z
" clip-path="url(#pa314925468)" style="fill: #eddd46"/>
   </g>
   <g id="patch_97">
    <path d="M 721.011607 328.198673 
L 732.96875 328.198673 
L 732.96875 297.135195 
L 721.011607 297.135195 
z
" clip-path="url(#pa314925468)" style="fill: #eddd46"/>
   </g>
   <g id="patch_98">
    <path d="M 734.297321 335.222611 
L 746.254464 335.222611 
L 746.254464 303.639056 
L 734.297321 303.639056 
z
" clip-path="url(#pa314925468)" style="fill: #eddd46"/>
   </g>
   <g id="patch_99">
    <path d="M 747.583036 336.876341 
L 759.540179 336.876341 
L 759.540179 305.288108 
L 747.583036 305.288108 
z
" clip-path="url(#pa314925468)" style="fill: #eddd46"/>
   </g>
   <g id="patch_100">
    <path d="M 760.86875 335.419593 
L 772.825893 335.419593 
L 772.825893 307.823233 
L 760.86875 307.823233 
z
" clip-path="url(#pa314925468)" style="fill: #eddd46"/>
   </g>
   <g id="patch_101">
    <path d="M 774.154464 338.256924 
L 786.111607 338.256924 
L 786.111607 310.074123 
L 774.154464 310.074123 
z
" clip-path="url(#pa314925468)" style="fill: #eddd46"/>
   </g>
   <g id="patch_102">
    <path d="M 787.440179 337.936931 
L 799.397321 337.936931 
L 799.397321 304.690355 
L 787.440179 304.690355 
z
" clip-path="url(#pa314925468)" style="fill: #eddd46"/>
   </g>
   <g id="patch_103">
    <path d="M 136.440179 346.90923 
L 148.397321 346.90923 
L 148.397321 306.659844 
L 136.440179 306.659844 
z
" clip-path="url(#pa314925468)" style="fill: #90cd97"/>
   </g>
   <g id="patch_104">
    <path d="M 149.725893 328.243174 
L 161.683036 328.243174 
L 161.683036 259.832501 
L 149.725893 259.832501 
z
" clip-path="url(#pa314925468)" style="fill: #90cd97"/>
   </g>
   <g id="patch_105">
    <path d="M 163.011607 313.770587 
L 174.96875 313.770587 
L 174.96875 230.032124 
L 163.011607 230.032124 
z
" clip-path="url(#pa314925468)" style="fill: #90cd97"/>
   </g>
   <g id="patch_106">
    <path d="M 176.297321 312.596198 
L 188.254464 312.596198 
L 188.254464 222.285212 
L 176.297321 222.285212 
z
" clip-path="url(#pa314925468)" style="fill: #90cd97"/>
   </g>
   <g id="patch_107">
    <path d="M 189.583036 314.599272 
L 201.540179 314.599272 
L 201.540179 227.210136 
L 189.583036 227.210136 
z
" clip-path="url(#pa314925468)" style="fill: #90cd97"/>
   </g>
   <g id="patch_108">
    <path d="M 202.86875 317.785109 
L 214.825893 317.785109 
L 214.825893 238.207143 
L 202.86875 238.207143 
z
" clip-path="url(#pa314925468)" style="fill: #90cd97"/>
   </g>
   <g id="patch_109">
    <path d="M 216.154464 326.595461 
L 228.111607 326.595461 
L 228.111607 272.845652 
L 216.154464 272.845652 
z
" clip-path="url(#pa314925468)" style="fill: #90cd97"/>
   </g>
   <g id="patch_110">
    <path d="M 229.440179 327.627821 
L 241.397321 327.627821 
L 241.397321 267.10992 
L 229.440179 267.10992 
z
" clip-path="url(#pa314925468)" style="fill: #90cd97"/>
   </g>
   <g id="patch_111">
    <path d="M 242.725893 324.587555 
L 254.683036 324.587555 
L 254.683036 260.962568 
L 242.725893 260.962568 
z
" clip-path="url(#pa314925468)" style="fill: #90cd97"/>
   </g>
   <g id="patch_112">
    <path d="M 256.011607 312.350559 
L 267.96875 312.350559 
L 267.96875 240.005734 
L 256.011607 240.005734 
z
" clip-path="url(#pa314925468)" style="fill: #90cd97"/>
   </g>
   <g id="patch_113">
    <path d="M 269.297321 317.423209 
L 281.254464 317.423209 
L 281.254464 245.114437 
L 269.297321 245.114437 
z
" clip-path="url(#pa314925468)" style="fill: #90cd97"/>
   </g>
   <g id="patch_114">
    <path d="M 282.583036 328.577083 
L 294.540179 328.577083 
L 294.540179 265.865468 
L 282.583036 265.865468 
z
" clip-path="url(#pa314925468)" style="fill: #90cd97"/>
   </g>
   <g id="patch_115">
    <path d="M 295.86875 323.836787 
L 307.825893 323.836787 
L 307.825893 234.494959 
L 295.86875 234.494959 
z
" clip-path="url(#pa314925468)" style="fill: #90cd97"/>
   </g>
   <g id="patch_116">
    <path d="M 309.154464 331.871597 
L 321.111607 331.871597 
L 321.111607 278.199867 
L 309.154464 278.199867 
z
" clip-path="url(#pa314925468)" style="fill: #90cd97"/>
   </g>
   <g id="patch_117">
    <path d="M 322.440179 319.941949 
L 334.397321 319.941949 
L 334.397321 245.558893 
L 322.440179 245.558893 
z
" clip-path="url(#pa314925468)" style="fill: #90cd97"/>
   </g>
   <g id="patch_118">
    <path d="M 335.725893 320.804787 
L 347.683036 320.804787 
L 347.683036 246.828961 
L 335.725893 246.828961 
z
" clip-path="url(#pa314925468)" style="fill: #90cd97"/>
   </g>
   <g id="patch_119">
    <path d="M 349.011607 321.710328 
L 360.96875 321.710328 
L 360.96875 248.382653 
L 349.011607 248.382653 
z
" clip-path="url(#pa314925468)" style="fill: #90cd97"/>
   </g>
   <g id="patch_120">
    <path d="M 362.297321 317.533785 
L 374.254464 317.533785 
L 374.254464 256.037223 
L 362.297321 256.037223 
z
" clip-path="url(#pa314925468)" style="fill: #90cd97"/>
   </g>
   <g id="patch_121">
    <path d="M 375.583036 325.034514 
L 387.540179 325.034514 
L 387.540179 273.844653 
L 375.583036 273.844653 
z
" clip-path="url(#pa314925468)" style="fill: #90cd97"/>
   </g>
   <g id="patch_122">
    <path d="M 388.86875 327.391536 
L 400.825893 327.391536 
L 400.825893 279.496462 
L 388.86875 279.496462 
z
" clip-path="url(#pa314925468)" style="fill: #90cd97"/>
   </g>
   <g id="patch_123">
    <path d="M 402.154464 327.945619 
L 414.111607 327.945619 
L 414.111607 279.13337 
L 402.154464 279.13337 
z
" clip-path="url(#pa314925468)" style="fill: #90cd97"/>
   </g>
   <g id="patch_124">
    <path d="M 415.440179 329.771386 
L 427.397321 329.771386 
L 427.397321 281.02258 
L 415.440179 281.02258 
z
" clip-path="url(#pa314925468)" style="fill: #90cd97"/>
   </g>
   <g id="patch_125">
    <path d="M 428.725893 337.058266 
L 440.683036 337.058266 
L 440.683036 292.418218 
L 428.725893 292.418218 
z
" clip-path="url(#pa314925468)" style="fill: #90cd97"/>
   </g>
   <g id="patch_126">
    <path d="M 442.011607 333.284233 
L 453.96875 333.284233 
L 453.96875 277.413387 
L 442.011607 277.413387 
z
" clip-path="url(#pa314925468)" style="fill: #90cd97"/>
   </g>
   <g id="patch_127">
    <path d="M 455.297321 332.298893 
L 467.254464 332.298893 
L 467.254464 274.295064 
L 455.297321 274.295064 
z
" clip-path="url(#pa314925468)" style="fill: #90cd97"/>
   </g>
   <g id="patch_128">
    <path d="M 468.583036 339.712569 
L 480.540179 339.712569 
L 480.540179 277.759308 
L 468.583036 277.759308 
z
" clip-path="url(#pa314925468)" style="fill: #90cd97"/>
   </g>
   <g id="patch_129">
    <path d="M 481.86875 334.304855 
L 493.825893 334.304855 
L 493.825893 264.095342 
L 481.86875 264.095342 
z
" clip-path="url(#pa314925468)" style="fill: #90cd97"/>
   </g>
   <g id="patch_130">
    <path d="M 495.154464 328.567887 
L 507.111607 328.567887 
L 507.111607 277.520512 
L 495.154464 277.520512 
z
" clip-path="url(#pa314925468)" style="fill: #90cd97"/>
   </g>
   <g id="patch_131">
    <path d="M 508.440179 326.52688 
L 520.397321 326.52688 
L 520.397321 270.037502 
L 508.440179 270.037502 
z
" clip-path="url(#pa314925468)" style="fill: #90cd97"/>
   </g>
   <g id="patch_132">
    <path d="M 521.725893 325.320771 
L 533.683036 325.320771 
L 533.683036 275.061355 
L 521.725893 275.061355 
z
" clip-path="url(#pa314925468)" style="fill: #90cd97"/>
   </g>
   <g id="patch_133">
    <path d="M 535.011607 332.163201 
L 546.96875 332.163201 
L 546.96875 286.304403 
L 535.011607 286.304403 
z
" clip-path="url(#pa314925468)" style="fill: #90cd97"/>
   </g>
   <g id="patch_134">
    <path d="M 548.297321 321.533643 
L 560.254464 321.533643 
L 560.254464 249.742269 
L 548.297321 249.742269 
z
" clip-path="url(#pa314925468)" style="fill: #90cd97"/>
   </g>
   <g id="patch_135">
    <path d="M 561.583036 309.180042 
L 573.540179 309.180042 
L 573.540179 204.959278 
L 561.583036 204.959278 
z
" clip-path="url(#pa314925468)" style="fill: #90cd97"/>
   </g>
   <g id="patch_136">
    <path d="M 574.86875 319.76379 
L 586.825893 319.76379 
L 586.825893 208.509281 
L 574.86875 208.509281 
z
" clip-path="url(#pa314925468)" style="fill: #90cd97"/>
   </g>
   <g id="patch_137">
    <path d="M 588.154464 304.28443 
L 600.111607 304.28443 
L 600.111607 141.280534 
L 588.154464 141.280534 
z
" clip-path="url(#pa314925468)" style="fill: #90cd97"/>
   </g>
   <g id="patch_138">
    <path d="M 601.440179 289.320867 
L 613.397321 289.320867 
L 613.397321 102.608168 
L 601.440179 102.608168 
z
" clip-path="url(#pa314925468)" style="fill: #90cd97"/>
   </g>
   <g id="patch_139">
    <path d="M 614.725893 305.861886 
L 626.683036 305.861886 
L 626.683036 177.654913 
L 614.725893 177.654913 
z
" clip-path="url(#pa314925468)" style="fill: #90cd97"/>
   </g>
   <g id="patch_140">
    <path d="M 628.011607 309.600243 
L 639.96875 309.600243 
L 639.96875 189.236481 
L 628.011607 189.236481 
z
" clip-path="url(#pa314925468)" style="fill: #90cd97"/>
   </g>
   <g id="patch_141">
    <path d="M 641.297321 308.047111 
L 653.254464 308.047111 
L 653.254464 215.215141 
L 641.297321 215.215141 
z
" clip-path="url(#pa314925468)" style="fill: #90cd97"/>
   </g>
   <g id="patch_142">
    <path d="M 654.583036 301.978671 
L 666.540179 301.978671 
L 666.540179 211.834508 
L 654.583036 211.834508 
z
" clip-path="url(#pa314925468)" style="fill: #90cd97"/>
   </g>
   <g id="patch_143">
    <path d="M 667.86875 296.734168 
L 679.825893 296.734168 
L 679.825893 208.60956 
L 667.86875 208.60956 
z
" clip-path="url(#pa314925468)" style="fill: #90cd97"/>
   </g>
   <g id="patch_144">
    <path d="M 681.154464 299.460716 
L 693.111607 299.460716 
L 693.111607 222.354478 
L 681.154464 222.354478 
z
" clip-path="url(#pa314925468)" style="fill: #90cd97"/>
   </g>
   <g id="patch_145">
    <path d="M 694.440179 303.312346 
L 706.397321 303.312346 
L 706.397321 226.730745 
L 694.440179 226.730745 
z
" clip-path="url(#pa314925468)" style="fill: #90cd97"/>
   </g>
   <g id="patch_146">
    <path d="M 707.725893 296.395537 
L 719.683036 296.395537 
L 719.683036 203.867279 
L 707.725893 203.867279 
z
" clip-path="url(#pa314925468)" style="fill: #90cd97"/>
   </g>
   <g id="patch_147">
    <path d="M 721.011607 297.135195 
L 732.96875 297.135195 
L 732.96875 216.823498 
L 721.011607 216.823498 
z
" clip-path="url(#pa314925468)" style="fill: #90cd97"/>
   </g>
   <g id="patch_148">
    <path d="M 734.297321 303.639056 
L 746.254464 303.639056 
L 746.254464 229.298297 
L 734.297321 229.298297 
z
" clip-path="url(#pa314925468)" style="fill: #90cd97"/>
   </g>
   <g id="patch_149">
    <path d="M 747.583036 305.288108 
L 759.540179 305.288108 
L 759.540179 209.089028 
L 747.583036 209.089028 
z
" clip-path="url(#pa314925468)" style="fill: #90cd97"/>
   </g>
   <g id="patch_150">
    <path d="M 760.86875 307.823233 
L 772.825893 307.823233 
L 772.825893 226.603395 
L 760.86875 226.603395 
z
" clip-path="url(#pa314925468)" style="fill: #90cd97"/>
   </g>
   <g id="patch_151">
    <path d="M 774.154464 310.074123 
L 786.111607 310.074123 
L 786.111607 217.527472 
L 774.154464 217.527472 
z
" clip-path="url(#pa314925468)" style="fill: #90cd97"/>
   </g>
   <g id="patch_152">
    <path d="M 787.440179 304.690355 
L 799.397321 304.690355 
L 799.397321 214.806043 
L 787.440179 214.806043 
z
" clip-path="url(#pa314925468)" style="fill: #90cd97"/>
   </g>
   <g id="matplotlib.axis_1">
    <g id="xtick_1">
     <g id="line2d_1">
      <defs>
       <path id="mba2bb96e39" d="M 0 0 
L 0 3.5 
" style="stroke: #000000; stroke-width: 0.8"/>
      </defs>
      <g>
       <use xlink:href="#mba2bb96e39" x="142.41875" y="362.394375" style="stroke: #000000; stroke-width: 0.8"/>
      </g>
     </g>
     <g id="text_1">
      <!-- 2017-09 -->
      <g transform="translate(145.178125 411.177188)rotate(-90)scale(0.1 -0.1)">
       <defs>
        <path id="DejaVuSans-32" d="M 1228 531 
L 3431 531 
L 3431 0 
L 469 0 
L 469 531 
Q 828 903 1448 1529 
Q 2069 2156 2228 2338 
Q 2531 2678 2651 2914 
Q 2772 3150 2772 3378 
Q 2772 3750 2511 3984 
Q 2250 4219 1831 4219 
Q 1534 4219 1204 4116 
Q 875 4013 500 3803 
L 500 4441 
Q 881 4594 1212 4672 
Q 1544 4750 1819 4750 
Q 2544 4750 2975 4387 
Q 3406 4025 3406 3419 
Q 3406 3131 3298 2873 
Q 3191 2616 2906 2266 
Q 2828 2175 2409 1742 
Q 1991 1309 1228 531 
z
" transform="scale(0.015625)"/>
        <path id="DejaVuSans-30" d="M 2034 4250 
Q 1547 4250 1301 3770 
Q 1056 3291 1056 2328 
Q 1056 1369 1301 889 
Q 1547 409 2034 409 
Q 2525 409 2770 889 
Q 3016 1369 3016 2328 
Q 3016 3291 2770 3770 
Q 2525 4250 2034 4250 
z
M 2034 4750 
Q 2819 4750 3233 4129 
Q 3647 3509 3647 2328 
Q 3647 1150 3233 529 
Q 2819 -91 2034 -91 
Q 1250 -91 836 529 
Q 422 1150 422 2328 
Q 422 3509 836 4129 
Q 1250 4750 2034 4750 
z
" transform="scale(0.015625)"/>
        <path id="DejaVuSans-31" d="M 794 531 
L 1825 531 
L 1825 4091 
L 703 3866 
L 703 4441 
L 1819 4666 
L 2450 4666 
L 2450 531 
L 3481 531 
L 3481 0 
L 794 0 
L 794 531 
z
" transform="scale(0.015625)"/>
        <path id="DejaVuSans-37" d="M 525 4666 
L 3525 4666 
L 3525 4397 
L 1831 0 
L 1172 0 
L 2766 4134 
L 525 4134 
L 525 4666 
z
" transform="scale(0.015625)"/>
        <path id="DejaVuSans-2d" d="M 313 2009 
L 1997 2009 
L 1997 1497 
L 313 1497 
L 313 2009 
z
" transform="scale(0.015625)"/>
        <path id="DejaVuSans-39" d="M 703 97 
L 703 672 
Q 941 559 1184 500 
Q 1428 441 1663 441 
Q 2288 441 2617 861 
Q 2947 1281 2994 2138 
Q 2813 1869 2534 1725 
Q 2256 1581 1919 1581 
Q 1219 1581 811 2004 
Q 403 2428 403 3163 
Q 403 3881 828 4315 
Q 1253 4750 1959 4750 
Q 2769 4750 3195 4129 
Q 3622 3509 3622 2328 
Q 3622 1225 3098 567 
Q 2575 -91 1691 -91 
Q 1453 -91 1209 -44 
Q 966 3 703 97 
z
M 1959 2075 
Q 2384 2075 2632 2365 
Q 2881 2656 2881 3163 
Q 2881 3666 2632 3958 
Q 2384 4250 1959 4250 
Q 1534 4250 1286 3958 
Q 1038 3666 1038 3163 
Q 1038 2656 1286 2365 
Q 1534 2075 1959 2075 
z
" transform="scale(0.015625)"/>
       </defs>
       <use xlink:href="#DejaVuSans-32"/>
       <use xlink:href="#DejaVuSans-30" x="63.623047"/>
       <use xlink:href="#DejaVuSans-31" x="127.246094"/>
       <use xlink:href="#DejaVuSans-37" x="190.869141"/>
       <use xlink:href="#DejaVuSans-2d" x="254.492188"/>
       <use xlink:href="#DejaVuSans-30" x="290.576172"/>
       <use xlink:href="#DejaVuSans-39" x="354.199219"/>
      </g>
     </g>
    </g>
    <g id="xtick_2">
     <g id="line2d_2">
      <g>
       <use xlink:href="#mba2bb96e39" x="155.704464" y="362.394375" style="stroke: #000000; stroke-width: 0.8"/>
      </g>
     </g>
     <g id="text_2">
      <!-- 2017-10 -->
      <g transform="translate(158.463839 411.177188)rotate(-90)scale(0.1 -0.1)">
       <use xlink:href="#DejaVuSans-32"/>
       <use xlink:href="#DejaVuSans-30" x="63.623047"/>
       <use xlink:href="#DejaVuSans-31" x="127.246094"/>
       <use xlink:href="#DejaVuSans-37" x="190.869141"/>
       <use xlink:href="#DejaVuSans-2d" x="254.492188"/>
       <use xlink:href="#DejaVuSans-31" x="290.576172"/>
       <use xlink:href="#DejaVuSans-30" x="354.199219"/>
      </g>
     </g>
    </g>
    <g id="xtick_3">
     <g id="line2d_3">
      <g>
       <use xlink:href="#mba2bb96e39" x="168.990179" y="362.394375" style="stroke: #000000; stroke-width: 0.8"/>
      </g>
     </g>
     <g id="text_3">
      <!-- 2017-11 -->
      <g transform="translate(171.749554 411.177188)rotate(-90)scale(0.1 -0.1)">
       <use xlink:href="#DejaVuSans-32"/>
       <use xlink:href="#DejaVuSans-30" x="63.623047"/>
       <use xlink:href="#DejaVuSans-31" x="127.246094"/>
       <use xlink:href="#DejaVuSans-37" x="190.869141"/>
       <use xlink:href="#DejaVuSans-2d" x="254.492188"/>
       <use xlink:href="#DejaVuSans-31" x="290.576172"/>
       <use xlink:href="#DejaVuSans-31" x="354.199219"/>
      </g>
     </g>
    </g>
    <g id="xtick_4">
     <g id="line2d_4">
      <g>
       <use xlink:href="#mba2bb96e39" x="182.275893" y="362.394375" style="stroke: #000000; stroke-width: 0.8"/>
      </g>
     </g>
     <g id="text_4">
      <!-- 2017-12 -->
      <g transform="translate(185.035268 411.177188)rotate(-90)scale(0.1 -0.1)">
       <use xlink:href="#DejaVuSans-32"/>
       <use xlink:href="#DejaVuSans-30" x="63.623047"/>
       <use xlink:href="#DejaVuSans-31" x="127.246094"/>
       <use xlink:href="#DejaVuSans-37" x="190.869141"/>
       <use xlink:href="#DejaVuSans-2d" x="254.492188"/>
       <use xlink:href="#DejaVuSans-31" x="290.576172"/>
       <use xlink:href="#DejaVuSans-32" x="354.199219"/>
      </g>
     </g>
    </g>
    <g id="xtick_5">
     <g id="line2d_5">
      <g>
       <use xlink:href="#mba2bb96e39" x="195.561607" y="362.394375" style="stroke: #000000; stroke-width: 0.8"/>
      </g>
     </g>
     <g id="text_5">
      <!-- 2018-01 -->
      <g transform="translate(198.320982 411.177188)rotate(-90)scale(0.1 -0.1)">
       <defs>
        <path id="DejaVuSans-38" d="M 2034 2216 
Q 1584 2216 1326 1975 
Q 1069 1734 1069 1313 
Q 1069 891 1326 650 
Q 1584 409 2034 409 
Q 2484 409 2743 651 
Q 3003 894 3003 1313 
Q 3003 1734 2745 1975 
Q 2488 2216 2034 2216 
z
M 1403 2484 
Q 997 2584 770 2862 
Q 544 3141 544 3541 
Q 544 4100 942 4425 
Q 1341 4750 2034 4750 
Q 2731 4750 3128 4425 
Q 3525 4100 3525 3541 
Q 3525 3141 3298 2862 
Q 3072 2584 2669 2484 
Q 3125 2378 3379 2068 
Q 3634 1759 3634 1313 
Q 3634 634 3220 271 
Q 2806 -91 2034 -91 
Q 1263 -91 848 271 
Q 434 634 434 1313 
Q 434 1759 690 2068 
Q 947 2378 1403 2484 
z
M 1172 3481 
Q 1172 3119 1398 2916 
Q 1625 2713 2034 2713 
Q 2441 2713 2670 2916 
Q 2900 3119 2900 3481 
Q 2900 3844 2670 4047 
Q 2441 4250 2034 4250 
Q 1625 4250 1398 4047 
Q 1172 3844 1172 3481 
z
" transform="scale(0.015625)"/>
       </defs>
       <use xlink:href="#DejaVuSans-32"/>
       <use xlink:href="#DejaVuSans-30" x="63.623047"/>
       <use xlink:href="#DejaVuSans-31" x="127.246094"/>
       <use xlink:href="#DejaVuSans-38" x="190.869141"/>
       <use xlink:href="#DejaVuSans-2d" x="254.492188"/>
       <use xlink:href="#DejaVuSans-30" x="290.576172"/>
       <use xlink:href="#DejaVuSans-31" x="354.199219"/>
      </g>
     </g>
    </g>
    <g id="xtick_6">
     <g id="line2d_6">
      <g>
       <use xlink:href="#mba2bb96e39" x="208.847321" y="362.394375" style="stroke: #000000; stroke-width: 0.8"/>
      </g>
     </g>
     <g id="text_6">
      <!-- 2018-02 -->
      <g transform="translate(211.606696 411.177188)rotate(-90)scale(0.1 -0.1)">
       <use xlink:href="#DejaVuSans-32"/>
       <use xlink:href="#DejaVuSans-30" x="63.623047"/>
       <use xlink:href="#DejaVuSans-31" x="127.246094"/>
       <use xlink:href="#DejaVuSans-38" x="190.869141"/>
       <use xlink:href="#DejaVuSans-2d" x="254.492188"/>
       <use xlink:href="#DejaVuSans-30" x="290.576172"/>
       <use xlink:href="#DejaVuSans-32" x="354.199219"/>
      </g>
     </g>
    </g>
    <g id="xtick_7">
     <g id="line2d_7">
      <g>
       <use xlink:href="#mba2bb96e39" x="222.133036" y="362.394375" style="stroke: #000000; stroke-width: 0.8"/>
      </g>
     </g>
     <g id="text_7">
      <!-- 2018-03 -->
      <g transform="translate(224.892411 411.177188)rotate(-90)scale(0.1 -0.1)">
       <defs>
        <path id="DejaVuSans-33" d="M 2597 2516 
Q 3050 2419 3304 2112 
Q 3559 1806 3559 1356 
Q 3559 666 3084 287 
Q 2609 -91 1734 -91 
Q 1441 -91 1130 -33 
Q 819 25 488 141 
L 488 750 
Q 750 597 1062 519 
Q 1375 441 1716 441 
Q 2309 441 2620 675 
Q 2931 909 2931 1356 
Q 2931 1769 2642 2001 
Q 2353 2234 1838 2234 
L 1294 2234 
L 1294 2753 
L 1863 2753 
Q 2328 2753 2575 2939 
Q 2822 3125 2822 3475 
Q 2822 3834 2567 4026 
Q 2313 4219 1838 4219 
Q 1578 4219 1281 4162 
Q 984 4106 628 3988 
L 628 4550 
Q 988 4650 1302 4700 
Q 1616 4750 1894 4750 
Q 2613 4750 3031 4423 
Q 3450 4097 3450 3541 
Q 3450 3153 3228 2886 
Q 3006 2619 2597 2516 
z
" transform="scale(0.015625)"/>
       </defs>
       <use xlink:href="#DejaVuSans-32"/>
       <use xlink:href="#DejaVuSans-30" x="63.623047"/>
       <use xlink:href="#DejaVuSans-31" x="127.246094"/>
       <use xlink:href="#DejaVuSans-38" x="190.869141"/>
       <use xlink:href="#DejaVuSans-2d" x="254.492188"/>
       <use xlink:href="#DejaVuSans-30" x="290.576172"/>
       <use xlink:href="#DejaVuSans-33" x="354.199219"/>
      </g>
     </g>
    </g>
    <g id="xtick_8">
     <g id="line2d_8">
      <g>
       <use xlink:href="#mba2bb96e39" x="235.41875" y="362.394375" style="stroke: #000000; stroke-width: 0.8"/>
      </g>
     </g>
     <g id="text_8">
      <!-- 2018-04 -->
      <g transform="translate(238.178125 411.177188)rotate(-90)scale(0.1 -0.1)">
       <defs>
        <path id="DejaVuSans-34" d="M 2419 4116 
L 825 1625 
L 2419 1625 
L 2419 4116 
z
M 2253 4666 
L 3047 4666 
L 3047 1625 
L 3713 1625 
L 3713 1100 
L 3047 1100 
L 3047 0 
L 2419 0 
L 2419 1100 
L 313 1100 
L 313 1709 
L 2253 4666 
z
" transform="scale(0.015625)"/>
       </defs>
       <use xlink:href="#DejaVuSans-32"/>
       <use xlink:href="#DejaVuSans-30" x="63.623047"/>
       <use xlink:href="#DejaVuSans-31" x="127.246094"/>
       <use xlink:href="#DejaVuSans-38" x="190.869141"/>
       <use xlink:href="#DejaVuSans-2d" x="254.492188"/>
       <use xlink:href="#DejaVuSans-30" x="290.576172"/>
       <use xlink:href="#DejaVuSans-34" x="354.199219"/>
      </g>
     </g>
    </g>
    <g id="xtick_9">
     <g id="line2d_9">
      <g>
       <use xlink:href="#mba2bb96e39" x="248.704464" y="362.394375" style="stroke: #000000; stroke-width: 0.8"/>
      </g>
     </g>
     <g id="text_9">
      <!-- 2018-05 -->
      <g transform="translate(251.463839 411.177188)rotate(-90)scale(0.1 -0.1)">
       <defs>
        <path id="DejaVuSans-35" d="M 691 4666 
L 3169 4666 
L 3169 4134 
L 1269 4134 
L 1269 2991 
Q 1406 3038 1543 3061 
Q 1681 3084 1819 3084 
Q 2600 3084 3056 2656 
Q 3513 2228 3513 1497 
Q 3513 744 3044 326 
Q 2575 -91 1722 -91 
Q 1428 -91 1123 -41 
Q 819 9 494 109 
L 494 744 
Q 775 591 1075 516 
Q 1375 441 1709 441 
Q 2250 441 2565 725 
Q 2881 1009 2881 1497 
Q 2881 1984 2565 2268 
Q 2250 2553 1709 2553 
Q 1456 2553 1204 2497 
Q 953 2441 691 2322 
L 691 4666 
z
" transform="scale(0.015625)"/>
       </defs>
       <use xlink:href="#DejaVuSans-32"/>
       <use xlink:href="#DejaVuSans-30" x="63.623047"/>
       <use xlink:href="#DejaVuSans-31" x="127.246094"/>
       <use xlink:href="#DejaVuSans-38" x="190.869141"/>
       <use xlink:href="#DejaVuSans-2d" x="254.492188"/>
       <use xlink:href="#DejaVuSans-30" x="290.576172"/>
       <use xlink:href="#DejaVuSans-35" x="354.199219"/>
      </g>
     </g>
    </g>
    <g id="xtick_10">
     <g id="line2d_10">
      <g>
       <use xlink:href="#mba2bb96e39" x="261.990179" y="362.394375" style="stroke: #000000; stroke-width: 0.8"/>
      </g>
     </g>
     <g id="text_10">
      <!-- 2018-06 -->
      <g transform="translate(264.749554 411.177188)rotate(-90)scale(0.1 -0.1)">
       <defs>
        <path id="DejaVuSans-36" d="M 2113 2584 
Q 1688 2584 1439 2293 
Q 1191 2003 1191 1497 
Q 1191 994 1439 701 
Q 1688 409 2113 409 
Q 2538 409 2786 701 
Q 3034 994 3034 1497 
Q 3034 2003 2786 2293 
Q 2538 2584 2113 2584 
z
M 3366 4563 
L 3366 3988 
Q 3128 4100 2886 4159 
Q 2644 4219 2406 4219 
Q 1781 4219 1451 3797 
Q 1122 3375 1075 2522 
Q 1259 2794 1537 2939 
Q 1816 3084 2150 3084 
Q 2853 3084 3261 2657 
Q 3669 2231 3669 1497 
Q 3669 778 3244 343 
Q 2819 -91 2113 -91 
Q 1303 -91 875 529 
Q 447 1150 447 2328 
Q 447 3434 972 4092 
Q 1497 4750 2381 4750 
Q 2619 4750 2861 4703 
Q 3103 4656 3366 4563 
z
" transform="scale(0.015625)"/>
       </defs>
       <use xlink:href="#DejaVuSans-32"/>
       <use xlink:href="#DejaVuSans-30" x="63.623047"/>
       <use xlink:href="#DejaVuSans-31" x="127.246094"/>
       <use xlink:href="#DejaVuSans-38" x="190.869141"/>
       <use xlink:href="#DejaVuSans-2d" x="254.492188"/>
       <use xlink:href="#DejaVuSans-30" x="290.576172"/>
       <use xlink:href="#DejaVuSans-36" x="354.199219"/>
      </g>
     </g>
    </g>
    <g id="xtick_11">
     <g id="line2d_11">
      <g>
       <use xlink:href="#mba2bb96e39" x="275.275893" y="362.394375" style="stroke: #000000; stroke-width: 0.8"/>
      </g>
     </g>
     <g id="text_11">
      <!-- 2018-07 -->
      <g transform="translate(278.035268 411.177188)rotate(-90)scale(0.1 -0.1)">
       <use xlink:href="#DejaVuSans-32"/>
       <use xlink:href="#DejaVuSans-30" x="63.623047"/>
       <use xlink:href="#DejaVuSans-31" x="127.246094"/>
       <use xlink:href="#DejaVuSans-38" x="190.869141"/>
       <use xlink:href="#DejaVuSans-2d" x="254.492188"/>
       <use xlink:href="#DejaVuSans-30" x="290.576172"/>
       <use xlink:href="#DejaVuSans-37" x="354.199219"/>
      </g>
     </g>
    </g>
    <g id="xtick_12">
     <g id="line2d_12">
      <g>
       <use xlink:href="#mba2bb96e39" x="288.561607" y="362.394375" style="stroke: #000000; stroke-width: 0.8"/>
      </g>
     </g>
     <g id="text_12">
      <!-- 2018-08 -->
      <g transform="translate(291.320982 411.177188)rotate(-90)scale(0.1 -0.1)">
       <use xlink:href="#DejaVuSans-32"/>
       <use xlink:href="#DejaVuSans-30" x="63.623047"/>
       <use xlink:href="#DejaVuSans-31" x="127.246094"/>
       <use xlink:href="#DejaVuSans-38" x="190.869141"/>
       <use xlink:href="#DejaVuSans-2d" x="254.492188"/>
       <use xlink:href="#DejaVuSans-30" x="290.576172"/>
       <use xlink:href="#DejaVuSans-38" x="354.199219"/>
      </g>
     </g>
    </g>
    <g id="xtick_13">
     <g id="line2d_13">
      <g>
       <use xlink:href="#mba2bb96e39" x="301.847321" y="362.394375" style="stroke: #000000; stroke-width: 0.8"/>
      </g>
     </g>
     <g id="text_13">
      <!-- 2018-09 -->
      <g transform="translate(304.606696 411.177188)rotate(-90)scale(0.1 -0.1)">
       <use xlink:href="#DejaVuSans-32"/>
       <use xlink:href="#DejaVuSans-30" x="63.623047"/>
       <use xlink:href="#DejaVuSans-31" x="127.246094"/>
       <use xlink:href="#DejaVuSans-38" x="190.869141"/>
       <use xlink:href="#DejaVuSans-2d" x="254.492188"/>
       <use xlink:href="#DejaVuSans-30" x="290.576172"/>
       <use xlink:href="#DejaVuSans-39" x="354.199219"/>
      </g>
     </g>
    </g>
    <g id="xtick_14">
     <g id="line2d_14">
      <g>
       <use xlink:href="#mba2bb96e39" x="315.133036" y="362.394375" style="stroke: #000000; stroke-width: 0.8"/>
      </g>
     </g>
     <g id="text_14">
      <!-- 2018-10 -->
      <g transform="translate(317.892411 411.177188)rotate(-90)scale(0.1 -0.1)">
       <use xlink:href="#DejaVuSans-32"/>
       <use xlink:href="#DejaVuSans-30" x="63.623047"/>
       <use xlink:href="#DejaVuSans-31" x="127.246094"/>
       <use xlink:href="#DejaVuSans-38" x="190.869141"/>
       <use xlink:href="#DejaVuSans-2d" x="254.492188"/>
       <use xlink:href="#DejaVuSans-31" x="290.576172"/>
       <use xlink:href="#DejaVuSans-30" x="354.199219"/>
      </g>
     </g>
    </g>
    <g id="xtick_15">
     <g id="line2d_15">
      <g>
       <use xlink:href="#mba2bb96e39" x="328.41875" y="362.394375" style="stroke: #000000; stroke-width: 0.8"/>
      </g>
     </g>
     <g id="text_15">
      <!-- 2018-11 -->
      <g transform="translate(331.178125 411.177188)rotate(-90)scale(0.1 -0.1)">
       <use xlink:href="#DejaVuSans-32"/>
       <use xlink:href="#DejaVuSans-30" x="63.623047"/>
       <use xlink:href="#DejaVuSans-31" x="127.246094"/>
       <use xlink:href="#DejaVuSans-38" x="190.869141"/>
       <use xlink:href="#DejaVuSans-2d" x="254.492188"/>
       <use xlink:href="#DejaVuSans-31" x="290.576172"/>
       <use xlink:href="#DejaVuSans-31" x="354.199219"/>
      </g>
     </g>
    </g>
    <g id="xtick_16">
     <g id="line2d_16">
      <g>
       <use xlink:href="#mba2bb96e39" x="341.704464" y="362.394375" style="stroke: #000000; stroke-width: 0.8"/>
      </g>
     </g>
     <g id="text_16">
      <!-- 2018-12 -->
      <g transform="translate(344.463839 411.177188)rotate(-90)scale(0.1 -0.1)">
       <use xlink:href="#DejaVuSans-32"/>
       <use xlink:href="#DejaVuSans-30" x="63.623047"/>
       <use xlink:href="#DejaVuSans-31" x="127.246094"/>
       <use xlink:href="#DejaVuSans-38" x="190.869141"/>
       <use xlink:href="#DejaVuSans-2d" x="254.492188"/>
       <use xlink:href="#DejaVuSans-31" x="290.576172"/>
       <use xlink:href="#DejaVuSans-32" x="354.199219"/>
      </g>
     </g>
    </g>
    <g id="xtick_17">
     <g id="line2d_17">
      <g>
       <use xlink:href="#mba2bb96e39" x="354.990179" y="362.394375" style="stroke: #000000; stroke-width: 0.8"/>
      </g>
     </g>
     <g id="text_17">
      <!-- 2019-01 -->
      <g transform="translate(357.749554 411.177188)rotate(-90)scale(0.1 -0.1)">
       <use xlink:href="#DejaVuSans-32"/>
       <use xlink:href="#DejaVuSans-30" x="63.623047"/>
       <use xlink:href="#DejaVuSans-31" x="127.246094"/>
       <use xlink:href="#DejaVuSans-39" x="190.869141"/>
       <use xlink:href="#DejaVuSans-2d" x="254.492188"/>
       <use xlink:href="#DejaVuSans-30" x="290.576172"/>
       <use xlink:href="#DejaVuSans-31" x="354.199219"/>
      </g>
     </g>
    </g>
    <g id="xtick_18">
     <g id="line2d_18">
      <g>
       <use xlink:href="#mba2bb96e39" x="368.275893" y="362.394375" style="stroke: #000000; stroke-width: 0.8"/>
      </g>
     </g>
     <g id="text_18">
      <!-- 2019-02 -->
      <g transform="translate(371.035268 411.177188)rotate(-90)scale(0.1 -0.1)">
       <use xlink:href="#DejaVuSans-32"/>
       <use xlink:href="#DejaVuSans-30" x="63.623047"/>
       <use xlink:href="#DejaVuSans-31" x="127.246094"/>
       <use xlink:href="#DejaVuSans-39" x="190.869141"/>
       <use xlink:href="#DejaVuSans-2d" x="254.492188"/>
       <use xlink:href="#DejaVuSans-30" x="290.576172"/>
       <use xlink:href="#DejaVuSans-32" x="354.199219"/>
      </g>
     </g>
    </g>
    <g id="xtick_19">
     <g id="line2d_19">
      <g>
       <use xlink:href="#mba2bb96e39" x="381.561607" y="362.394375" style="stroke: #000000; stroke-width: 0.8"/>
      </g>
     </g>
     <g id="text_19">
      <!-- 2019-03 -->
      <g transform="translate(384.320982 411.177188)rotate(-90)scale(0.1 -0.1)">
       <use xlink:href="#DejaVuSans-32"/>
       <use xlink:href="#DejaVuSans-30" x="63.623047"/>
       <use xlink:href="#DejaVuSans-31" x="127.246094"/>
       <use xlink:href="#DejaVuSans-39" x="190.869141"/>
       <use xlink:href="#DejaVuSans-2d" x="254.492188"/>
       <use xlink:href="#DejaVuSans-30" x="290.576172"/>
       <use xlink:href="#DejaVuSans-33" x="354.199219"/>
      </g>
     </g>
    </g>
    <g id="xtick_20">
     <g id="line2d_20">
      <g>
       <use xlink:href="#mba2bb96e39" x="394.847321" y="362.394375" style="stroke: #000000; stroke-width: 0.8"/>
      </g>
     </g>
     <g id="text_20">
      <!-- 2019-04 -->
      <g transform="translate(397.606696 411.177188)rotate(-90)scale(0.1 -0.1)">
       <use xlink:href="#DejaVuSans-32"/>
       <use xlink:href="#DejaVuSans-30" x="63.623047"/>
       <use xlink:href="#DejaVuSans-31" x="127.246094"/>
       <use xlink:href="#DejaVuSans-39" x="190.869141"/>
       <use xlink:href="#DejaVuSans-2d" x="254.492188"/>
       <use xlink:href="#DejaVuSans-30" x="290.576172"/>
       <use xlink:href="#DejaVuSans-34" x="354.199219"/>
      </g>
     </g>
    </g>
    <g id="xtick_21">
     <g id="line2d_21">
      <g>
       <use xlink:href="#mba2bb96e39" x="408.133036" y="362.394375" style="stroke: #000000; stroke-width: 0.8"/>
      </g>
     </g>
     <g id="text_21">
      <!-- 2019-05 -->
      <g transform="translate(410.892411 411.177188)rotate(-90)scale(0.1 -0.1)">
       <use xlink:href="#DejaVuSans-32"/>
       <use xlink:href="#DejaVuSans-30" x="63.623047"/>
       <use xlink:href="#DejaVuSans-31" x="127.246094"/>
       <use xlink:href="#DejaVuSans-39" x="190.869141"/>
       <use xlink:href="#DejaVuSans-2d" x="254.492188"/>
       <use xlink:href="#DejaVuSans-30" x="290.576172"/>
       <use xlink:href="#DejaVuSans-35" x="354.199219"/>
      </g>
     </g>
    </g>
    <g id="xtick_22">
     <g id="line2d_22">
      <g>
       <use xlink:href="#mba2bb96e39" x="421.41875" y="362.394375" style="stroke: #000000; stroke-width: 0.8"/>
      </g>
     </g>
     <g id="text_22">
      <!-- 2019-06 -->
      <g transform="translate(424.178125 411.177188)rotate(-90)scale(0.1 -0.1)">
       <use xlink:href="#DejaVuSans-32"/>
       <use xlink:href="#DejaVuSans-30" x="63.623047"/>
       <use xlink:href="#DejaVuSans-31" x="127.246094"/>
       <use xlink:href="#DejaVuSans-39" x="190.869141"/>
       <use xlink:href="#DejaVuSans-2d" x="254.492188"/>
       <use xlink:href="#DejaVuSans-30" x="290.576172"/>
       <use xlink:href="#DejaVuSans-36" x="354.199219"/>
      </g>
     </g>
    </g>
    <g id="xtick_23">
     <g id="line2d_23">
      <g>
       <use xlink:href="#mba2bb96e39" x="434.704464" y="362.394375" style="stroke: #000000; stroke-width: 0.8"/>
      </g>
     </g>
     <g id="text_23">
      <!-- 2019-07 -->
      <g transform="translate(437.463839 411.177188)rotate(-90)scale(0.1 -0.1)">
       <use xlink:href="#DejaVuSans-32"/>
       <use xlink:href="#DejaVuSans-30" x="63.623047"/>
       <use xlink:href="#DejaVuSans-31" x="127.246094"/>
       <use xlink:href="#DejaVuSans-39" x="190.869141"/>
       <use xlink:href="#DejaVuSans-2d" x="254.492188"/>
       <use xlink:href="#DejaVuSans-30" x="290.576172"/>
       <use xlink:href="#DejaVuSans-37" x="354.199219"/>
      </g>
     </g>
    </g>
    <g id="xtick_24">
     <g id="line2d_24">
      <g>
       <use xlink:href="#mba2bb96e39" x="447.990179" y="362.394375" style="stroke: #000000; stroke-width: 0.8"/>
      </g>
     </g>
     <g id="text_24">
      <!-- 2019-08 -->
      <g transform="translate(450.749554 411.177188)rotate(-90)scale(0.1 -0.1)">
       <use xlink:href="#DejaVuSans-32"/>
       <use xlink:href="#DejaVuSans-30" x="63.623047"/>
       <use xlink:href="#DejaVuSans-31" x="127.246094"/>
       <use xlink:href="#DejaVuSans-39" x="190.869141"/>
       <use xlink:href="#DejaVuSans-2d" x="254.492188"/>
       <use xlink:href="#DejaVuSans-30" x="290.576172"/>
       <use xlink:href="#DejaVuSans-38" x="354.199219"/>
      </g>
     </g>
    </g>
    <g id="xtick_25">
     <g id="line2d_25">
      <g>
       <use xlink:href="#mba2bb96e39" x="461.275893" y="362.394375" style="stroke: #000000; stroke-width: 0.8"/>
      </g>
     </g>
     <g id="text_25">
      <!-- 2019-09 -->
      <g transform="translate(464.035268 411.177188)rotate(-90)scale(0.1 -0.1)">
       <use xlink:href="#DejaVuSans-32"/>
       <use xlink:href="#DejaVuSans-30" x="63.623047"/>
       <use xlink:href="#DejaVuSans-31" x="127.246094"/>
       <use xlink:href="#DejaVuSans-39" x="190.869141"/>
       <use xlink:href="#DejaVuSans-2d" x="254.492188"/>
       <use xlink:href="#DejaVuSans-30" x="290.576172"/>
       <use xlink:href="#DejaVuSans-39" x="354.199219"/>
      </g>
     </g>
    </g>
    <g id="xtick_26">
     <g id="line2d_26">
      <g>
       <use xlink:href="#mba2bb96e39" x="474.561607" y="362.394375" style="stroke: #000000; stroke-width: 0.8"/>
      </g>
     </g>
     <g id="text_26">
      <!-- 2019-10 -->
      <g transform="translate(477.320982 411.177188)rotate(-90)scale(0.1 -0.1)">
       <use xlink:href="#DejaVuSans-32"/>
       <use xlink:href="#DejaVuSans-30" x="63.623047"/>
       <use xlink:href="#DejaVuSans-31" x="127.246094"/>
       <use xlink:href="#DejaVuSans-39" x="190.869141"/>
       <use xlink:href="#DejaVuSans-2d" x="254.492188"/>
       <use xlink:href="#DejaVuSans-31" x="290.576172"/>
       <use xlink:href="#DejaVuSans-30" x="354.199219"/>
      </g>
     </g>
    </g>
    <g id="xtick_27">
     <g id="line2d_27">
      <g>
       <use xlink:href="#mba2bb96e39" x="487.847321" y="362.394375" style="stroke: #000000; stroke-width: 0.8"/>
      </g>
     </g>
     <g id="text_27">
      <!-- 2019-11 -->
      <g transform="translate(490.606696 411.177188)rotate(-90)scale(0.1 -0.1)">
       <use xlink:href="#DejaVuSans-32"/>
       <use xlink:href="#DejaVuSans-30" x="63.623047"/>
       <use xlink:href="#DejaVuSans-31" x="127.246094"/>
       <use xlink:href="#DejaVuSans-39" x="190.869141"/>
       <use xlink:href="#DejaVuSans-2d" x="254.492188"/>
       <use xlink:href="#DejaVuSans-31" x="290.576172"/>
       <use xlink:href="#DejaVuSans-31" x="354.199219"/>
      </g>
     </g>
    </g>
    <g id="xtick_28">
     <g id="line2d_28">
      <g>
       <use xlink:href="#mba2bb96e39" x="501.133036" y="362.394375" style="stroke: #000000; stroke-width: 0.8"/>
      </g>
     </g>
     <g id="text_28">
      <!-- 2019-12 -->
      <g transform="translate(503.892411 411.177188)rotate(-90)scale(0.1 -0.1)">
       <use xlink:href="#DejaVuSans-32"/>
       <use xlink:href="#DejaVuSans-30" x="63.623047"/>
       <use xlink:href="#DejaVuSans-31" x="127.246094"/>
       <use xlink:href="#DejaVuSans-39" x="190.869141"/>
       <use xlink:href="#DejaVuSans-2d" x="254.492188"/>
       <use xlink:href="#DejaVuSans-31" x="290.576172"/>
       <use xlink:href="#DejaVuSans-32" x="354.199219"/>
      </g>
     </g>
    </g>
    <g id="xtick_29">
     <g id="line2d_29">
      <g>
       <use xlink:href="#mba2bb96e39" x="514.41875" y="362.394375" style="stroke: #000000; stroke-width: 0.8"/>
      </g>
     </g>
     <g id="text_29">
      <!-- 2020-01 -->
      <g transform="translate(517.178125 411.177188)rotate(-90)scale(0.1 -0.1)">
       <use xlink:href="#DejaVuSans-32"/>
       <use xlink:href="#DejaVuSans-30" x="63.623047"/>
       <use xlink:href="#DejaVuSans-32" x="127.246094"/>
       <use xlink:href="#DejaVuSans-30" x="190.869141"/>
       <use xlink:href="#DejaVuSans-2d" x="254.492188"/>
       <use xlink:href="#DejaVuSans-30" x="290.576172"/>
       <use xlink:href="#DejaVuSans-31" x="354.199219"/>
      </g>
     </g>
    </g>
    <g id="xtick_30">
     <g id="line2d_30">
      <g>
       <use xlink:href="#mba2bb96e39" x="527.704464" y="362.394375" style="stroke: #000000; stroke-width: 0.8"/>
      </g>
     </g>
     <g id="text_30">
      <!-- 2020-02 -->
      <g transform="translate(530.463839 411.177188)rotate(-90)scale(0.1 -0.1)">
       <use xlink:href="#DejaVuSans-32"/>
       <use xlink:href="#DejaVuSans-30" x="63.623047"/>
       <use xlink:href="#DejaVuSans-32" x="127.246094"/>
       <use xlink:href="#DejaVuSans-30" x="190.869141"/>
       <use xlink:href="#DejaVuSans-2d" x="254.492188"/>
       <use xlink:href="#DejaVuSans-30" x="290.576172"/>
       <use xlink:href="#DejaVuSans-32" x="354.199219"/>
      </g>
     </g>
    </g>
    <g id="xtick_31">
     <g id="line2d_31">
      <g>
       <use xlink:href="#mba2bb96e39" x="540.990179" y="362.394375" style="stroke: #000000; stroke-width: 0.8"/>
      </g>
     </g>
     <g id="text_31">
      <!-- 2020-03 -->
      <g transform="translate(543.749554 411.177188)rotate(-90)scale(0.1 -0.1)">
       <use xlink:href="#DejaVuSans-32"/>
       <use xlink:href="#DejaVuSans-30" x="63.623047"/>
       <use xlink:href="#DejaVuSans-32" x="127.246094"/>
       <use xlink:href="#DejaVuSans-30" x="190.869141"/>
       <use xlink:href="#DejaVuSans-2d" x="254.492188"/>
       <use xlink:href="#DejaVuSans-30" x="290.576172"/>
       <use xlink:href="#DejaVuSans-33" x="354.199219"/>
      </g>
     </g>
    </g>
    <g id="xtick_32">
     <g id="line2d_32">
      <g>
       <use xlink:href="#mba2bb96e39" x="554.275893" y="362.394375" style="stroke: #000000; stroke-width: 0.8"/>
      </g>
     </g>
     <g id="text_32">
      <!-- 2020-04 -->
      <g transform="translate(557.035268 411.177188)rotate(-90)scale(0.1 -0.1)">
       <use xlink:href="#DejaVuSans-32"/>
       <use xlink:href="#DejaVuSans-30" x="63.623047"/>
       <use xlink:href="#DejaVuSans-32" x="127.246094"/>
       <use xlink:href="#DejaVuSans-30" x="190.869141"/>
       <use xlink:href="#DejaVuSans-2d" x="254.492188"/>
       <use xlink:href="#DejaVuSans-30" x="290.576172"/>
       <use xlink:href="#DejaVuSans-34" x="354.199219"/>
      </g>
     </g>
    </g>
    <g id="xtick_33">
     <g id="line2d_33">
      <g>
       <use xlink:href="#mba2bb96e39" x="567.561607" y="362.394375" style="stroke: #000000; stroke-width: 0.8"/>
      </g>
     </g>
     <g id="text_33">
      <!-- 2020-05 -->
      <g transform="translate(570.320982 411.177188)rotate(-90)scale(0.1 -0.1)">
       <use xlink:href="#DejaVuSans-32"/>
       <use xlink:href="#DejaVuSans-30" x="63.623047"/>
       <use xlink:href="#DejaVuSans-32" x="127.246094"/>
       <use xlink:href="#DejaVuSans-30" x="190.869141"/>
       <use xlink:href="#DejaVuSans-2d" x="254.492188"/>
       <use xlink:href="#DejaVuSans-30" x="290.576172"/>
       <use xlink:href="#DejaVuSans-35" x="354.199219"/>
      </g>
     </g>
    </g>
    <g id="xtick_34">
     <g id="line2d_34">
      <g>
       <use xlink:href="#mba2bb96e39" x="580.847321" y="362.394375" style="stroke: #000000; stroke-width: 0.8"/>
      </g>
     </g>
     <g id="text_34">
      <!-- 2020-06 -->
      <g transform="translate(583.606696 411.177188)rotate(-90)scale(0.1 -0.1)">
       <use xlink:href="#DejaVuSans-32"/>
       <use xlink:href="#DejaVuSans-30" x="63.623047"/>
       <use xlink:href="#DejaVuSans-32" x="127.246094"/>
       <use xlink:href="#DejaVuSans-30" x="190.869141"/>
       <use xlink:href="#DejaVuSans-2d" x="254.492188"/>
       <use xlink:href="#DejaVuSans-30" x="290.576172"/>
       <use xlink:href="#DejaVuSans-36" x="354.199219"/>
      </g>
     </g>
    </g>
    <g id="xtick_35">
     <g id="line2d_35">
      <g>
       <use xlink:href="#mba2bb96e39" x="594.133036" y="362.394375" style="stroke: #000000; stroke-width: 0.8"/>
      </g>
     </g>
     <g id="text_35">
      <!-- 2020-07 -->
      <g transform="translate(596.892411 411.177188)rotate(-90)scale(0.1 -0.1)">
       <use xlink:href="#DejaVuSans-32"/>
       <use xlink:href="#DejaVuSans-30" x="63.623047"/>
       <use xlink:href="#DejaVuSans-32" x="127.246094"/>
       <use xlink:href="#DejaVuSans-30" x="190.869141"/>
       <use xlink:href="#DejaVuSans-2d" x="254.492188"/>
       <use xlink:href="#DejaVuSans-30" x="290.576172"/>
       <use xlink:href="#DejaVuSans-37" x="354.199219"/>
      </g>
     </g>
    </g>
    <g id="xtick_36">
     <g id="line2d_36">
      <g>
       <use xlink:href="#mba2bb96e39" x="607.41875" y="362.394375" style="stroke: #000000; stroke-width: 0.8"/>
      </g>
     </g>
     <g id="text_36">
      <!-- 2020-08 -->
      <g transform="translate(610.178125 411.177188)rotate(-90)scale(0.1 -0.1)">
       <use xlink:href="#DejaVuSans-32"/>
       <use xlink:href="#DejaVuSans-30" x="63.623047"/>
       <use xlink:href="#DejaVuSans-32" x="127.246094"/>
       <use xlink:href="#DejaVuSans-30" x="190.869141"/>
       <use xlink:href="#DejaVuSans-2d" x="254.492188"/>
       <use xlink:href="#DejaVuSans-30" x="290.576172"/>
       <use xlink:href="#DejaVuSans-38" x="354.199219"/>
      </g>
     </g>
    </g>
    <g id="xtick_37">
     <g id="line2d_37">
      <g>
       <use xlink:href="#mba2bb96e39" x="620.704464" y="362.394375" style="stroke: #000000; stroke-width: 0.8"/>
      </g>
     </g>
     <g id="text_37">
      <!-- 2020-09 -->
      <g transform="translate(623.463839 411.177188)rotate(-90)scale(0.1 -0.1)">
       <use xlink:href="#DejaVuSans-32"/>
       <use xlink:href="#DejaVuSans-30" x="63.623047"/>
       <use xlink:href="#DejaVuSans-32" x="127.246094"/>
       <use xlink:href="#DejaVuSans-30" x="190.869141"/>
       <use xlink:href="#DejaVuSans-2d" x="254.492188"/>
       <use xlink:href="#DejaVuSans-30" x="290.576172"/>
       <use xlink:href="#DejaVuSans-39" x="354.199219"/>
      </g>
     </g>
    </g>
    <g id="xtick_38">
     <g id="line2d_38">
      <g>
       <use xlink:href="#mba2bb96e39" x="633.990179" y="362.394375" style="stroke: #000000; stroke-width: 0.8"/>
      </g>
     </g>
     <g id="text_38">
      <!-- 2020-10 -->
      <g transform="translate(636.749554 411.177188)rotate(-90)scale(0.1 -0.1)">
       <use xlink:href="#DejaVuSans-32"/>
       <use xlink:href="#DejaVuSans-30" x="63.623047"/>
       <use xlink:href="#DejaVuSans-32" x="127.246094"/>
       <use xlink:href="#DejaVuSans-30" x="190.869141"/>
       <use xlink:href="#DejaVuSans-2d" x="254.492188"/>
       <use xlink:href="#DejaVuSans-31" x="290.576172"/>
       <use xlink:href="#DejaVuSans-30" x="354.199219"/>
      </g>
     </g>
    </g>
    <g id="xtick_39">
     <g id="line2d_39">
      <g>
       <use xlink:href="#mba2bb96e39" x="647.275893" y="362.394375" style="stroke: #000000; stroke-width: 0.8"/>
      </g>
     </g>
     <g id="text_39">
      <!-- 2020-11 -->
      <g transform="translate(650.035268 411.177188)rotate(-90)scale(0.1 -0.1)">
       <use xlink:href="#DejaVuSans-32"/>
       <use xlink:href="#DejaVuSans-30" x="63.623047"/>
       <use xlink:href="#DejaVuSans-32" x="127.246094"/>
       <use xlink:href="#DejaVuSans-30" x="190.869141"/>
       <use xlink:href="#DejaVuSans-2d" x="254.492188"/>
       <use xlink:href="#DejaVuSans-31" x="290.576172"/>
       <use xlink:href="#DejaVuSans-31" x="354.199219"/>
      </g>
     </g>
    </g>
    <g id="xtick_40">
     <g id="line2d_40">
      <g>
       <use xlink:href="#mba2bb96e39" x="660.561607" y="362.394375" style="stroke: #000000; stroke-width: 0.8"/>
      </g>
     </g>
     <g id="text_40">
      <!-- 2020-12 -->
      <g transform="translate(663.320982 411.177188)rotate(-90)scale(0.1 -0.1)">
       <use xlink:href="#DejaVuSans-32"/>
       <use xlink:href="#DejaVuSans-30" x="63.623047"/>
       <use xlink:href="#DejaVuSans-32" x="127.246094"/>
       <use xlink:href="#DejaVuSans-30" x="190.869141"/>
       <use xlink:href="#DejaVuSans-2d" x="254.492188"/>
       <use xlink:href="#DejaVuSans-31" x="290.576172"/>
       <use xlink:href="#DejaVuSans-32" x="354.199219"/>
      </g>
     </g>
    </g>
    <g id="xtick_41">
     <g id="line2d_41">
      <g>
       <use xlink:href="#mba2bb96e39" x="673.847321" y="362.394375" style="stroke: #000000; stroke-width: 0.8"/>
      </g>
     </g>
     <g id="text_41">
      <!-- 2021-01 -->
      <g transform="translate(676.606696 411.177188)rotate(-90)scale(0.1 -0.1)">
       <use xlink:href="#DejaVuSans-32"/>
       <use xlink:href="#DejaVuSans-30" x="63.623047"/>
       <use xlink:href="#DejaVuSans-32" x="127.246094"/>
       <use xlink:href="#DejaVuSans-31" x="190.869141"/>
       <use xlink:href="#DejaVuSans-2d" x="254.492188"/>
       <use xlink:href="#DejaVuSans-30" x="290.576172"/>
       <use xlink:href="#DejaVuSans-31" x="354.199219"/>
      </g>
     </g>
    </g>
    <g id="xtick_42">
     <g id="line2d_42">
      <g>
       <use xlink:href="#mba2bb96e39" x="687.133036" y="362.394375" style="stroke: #000000; stroke-width: 0.8"/>
      </g>
     </g>
     <g id="text_42">
      <!-- 2021-02 -->
      <g transform="translate(689.892411 411.177188)rotate(-90)scale(0.1 -0.1)">
       <use xlink:href="#DejaVuSans-32"/>
       <use xlink:href="#DejaVuSans-30" x="63.623047"/>
       <use xlink:href="#DejaVuSans-32" x="127.246094"/>
       <use xlink:href="#DejaVuSans-31" x="190.869141"/>
       <use xlink:href="#DejaVuSans-2d" x="254.492188"/>
       <use xlink:href="#DejaVuSans-30" x="290.576172"/>
       <use xlink:href="#DejaVuSans-32" x="354.199219"/>
      </g>
     </g>
    </g>
    <g id="xtick_43">
     <g id="line2d_43">
      <g>
       <use xlink:href="#mba2bb96e39" x="700.41875" y="362.394375" style="stroke: #000000; stroke-width: 0.8"/>
      </g>
     </g>
     <g id="text_43">
      <!-- 2021-03 -->
      <g transform="translate(703.178125 411.177188)rotate(-90)scale(0.1 -0.1)">
       <use xlink:href="#DejaVuSans-32"/>
       <use xlink:href="#DejaVuSans-30" x="63.623047"/>
       <use xlink:href="#DejaVuSans-32" x="127.246094"/>
       <use xlink:href="#DejaVuSans-31" x="190.869141"/>
       <use xlink:href="#DejaVuSans-2d" x="254.492188"/>
       <use xlink:href="#DejaVuSans-30" x="290.576172"/>
       <use xlink:href="#DejaVuSans-33" x="354.199219"/>
      </g>
     </g>
    </g>
    <g id="xtick_44">
     <g id="line2d_44">
      <g>
       <use xlink:href="#mba2bb96e39" x="713.704464" y="362.394375" style="stroke: #000000; stroke-width: 0.8"/>
      </g>
     </g>
     <g id="text_44">
      <!-- 2021-04 -->
      <g transform="translate(716.463839 411.177188)rotate(-90)scale(0.1 -0.1)">
       <use xlink:href="#DejaVuSans-32"/>
       <use xlink:href="#DejaVuSans-30" x="63.623047"/>
       <use xlink:href="#DejaVuSans-32" x="127.246094"/>
       <use xlink:href="#DejaVuSans-31" x="190.869141"/>
       <use xlink:href="#DejaVuSans-2d" x="254.492188"/>
       <use xlink:href="#DejaVuSans-30" x="290.576172"/>
       <use xlink:href="#DejaVuSans-34" x="354.199219"/>
      </g>
     </g>
    </g>
    <g id="xtick_45">
     <g id="line2d_45">
      <g>
       <use xlink:href="#mba2bb96e39" x="726.990179" y="362.394375" style="stroke: #000000; stroke-width: 0.8"/>
      </g>
     </g>
     <g id="text_45">
      <!-- 2021-05 -->
      <g transform="translate(729.749554 411.177188)rotate(-90)scale(0.1 -0.1)">
       <use xlink:href="#DejaVuSans-32"/>
       <use xlink:href="#DejaVuSans-30" x="63.623047"/>
       <use xlink:href="#DejaVuSans-32" x="127.246094"/>
       <use xlink:href="#DejaVuSans-31" x="190.869141"/>
       <use xlink:href="#DejaVuSans-2d" x="254.492188"/>
       <use xlink:href="#DejaVuSans-30" x="290.576172"/>
       <use xlink:href="#DejaVuSans-35" x="354.199219"/>
      </g>
     </g>
    </g>
    <g id="xtick_46">
     <g id="line2d_46">
      <g>
       <use xlink:href="#mba2bb96e39" x="740.275893" y="362.394375" style="stroke: #000000; stroke-width: 0.8"/>
      </g>
     </g>
     <g id="text_46">
      <!-- 2021-06 -->
      <g transform="translate(743.035268 411.177188)rotate(-90)scale(0.1 -0.1)">
       <use xlink:href="#DejaVuSans-32"/>
       <use xlink:href="#DejaVuSans-30" x="63.623047"/>
       <use xlink:href="#DejaVuSans-32" x="127.246094"/>
       <use xlink:href="#DejaVuSans-31" x="190.869141"/>
       <use xlink:href="#DejaVuSans-2d" x="254.492188"/>
       <use xlink:href="#DejaVuSans-30" x="290.576172"/>
       <use xlink:href="#DejaVuSans-36" x="354.199219"/>
      </g>
     </g>
    </g>
    <g id="xtick_47">
     <g id="line2d_47">
      <g>
       <use xlink:href="#mba2bb96e39" x="753.561607" y="362.394375" style="stroke: #000000; stroke-width: 0.8"/>
      </g>
     </g>
     <g id="text_47">
      <!-- 2021-07 -->
      <g transform="translate(756.320982 411.177188)rotate(-90)scale(0.1 -0.1)">
       <use xlink:href="#DejaVuSans-32"/>
       <use xlink:href="#DejaVuSans-30" x="63.623047"/>
       <use xlink:href="#DejaVuSans-32" x="127.246094"/>
       <use xlink:href="#DejaVuSans-31" x="190.869141"/>
       <use xlink:href="#DejaVuSans-2d" x="254.492188"/>
       <use xlink:href="#DejaVuSans-30" x="290.576172"/>
       <use xlink:href="#DejaVuSans-37" x="354.199219"/>
      </g>
     </g>
    </g>
    <g id="xtick_48">
     <g id="line2d_48">
      <g>
       <use xlink:href="#mba2bb96e39" x="766.847321" y="362.394375" style="stroke: #000000; stroke-width: 0.8"/>
      </g>
     </g>
     <g id="text_48">
      <!-- 2021-08 -->
      <g transform="translate(769.606696 411.177188)rotate(-90)scale(0.1 -0.1)">
       <use xlink:href="#DejaVuSans-32"/>
       <use xlink:href="#DejaVuSans-30" x="63.623047"/>
       <use xlink:href="#DejaVuSans-32" x="127.246094"/>
       <use xlink:href="#DejaVuSans-31" x="190.869141"/>
       <use xlink:href="#DejaVuSans-2d" x="254.492188"/>
       <use xlink:href="#DejaVuSans-30" x="290.576172"/>
       <use xlink:href="#DejaVuSans-38" x="354.199219"/>
      </g>
     </g>
    </g>
    <g id="xtick_49">
     <g id="line2d_49">
      <g>
       <use xlink:href="#mba2bb96e39" x="780.133036" y="362.394375" style="stroke: #000000; stroke-width: 0.8"/>
      </g>
     </g>
     <g id="text_49">
      <!-- 2021-09 -->
      <g transform="translate(782.892411 411.177188)rotate(-90)scale(0.1 -0.1)">
       <use xlink:href="#DejaVuSans-32"/>
       <use xlink:href="#DejaVuSans-30" x="63.623047"/>
       <use xlink:href="#DejaVuSans-32" x="127.246094"/>
       <use xlink:href="#DejaVuSans-31" x="190.869141"/>
       <use xlink:href="#DejaVuSans-2d" x="254.492188"/>
       <use xlink:href="#DejaVuSans-30" x="290.576172"/>
       <use xlink:href="#DejaVuSans-39" x="354.199219"/>
      </g>
     </g>
    </g>
    <g id="xtick_50">
     <g id="line2d_50">
      <g>
       <use xlink:href="#mba2bb96e39" x="793.41875" y="362.394375" style="stroke: #000000; stroke-width: 0.8"/>
      </g>
     </g>
     <g id="text_50">
      <!-- 2021-10 -->
      <g transform="translate(796.178125 411.177188)rotate(-90)scale(0.1 -0.1)">
       <use xlink:href="#DejaVuSans-32"/>
       <use xlink:href="#DejaVuSans-30" x="63.623047"/>
       <use xlink:href="#DejaVuSans-32" x="127.246094"/>
       <use xlink:href="#DejaVuSans-31" x="190.869141"/>
       <use xlink:href="#DejaVuSans-2d" x="254.492188"/>
       <use xlink:href="#DejaVuSans-31" x="290.576172"/>
       <use xlink:href="#DejaVuSans-30" x="354.199219"/>
      </g>
     </g>
    </g>
   </g>
   <g id="matplotlib.axis_2">
    <g id="ytick_1">
     <g id="line2d_51">
      <defs>
       <path id="m6f8ba5afb8" d="M 0 0 
L -3.5 0 
" style="stroke: #000000; stroke-width: 0.8"/>
      </defs>
      <g>
       <use xlink:href="#m6f8ba5afb8" x="133.11875" y="362.394375" style="stroke: #000000; stroke-width: 0.8"/>
      </g>
     </g>
     <g id="text_51">
      <!-- 0 -->
      <g transform="translate(107.03125 373.792031)scale(0.3 -0.3)">
       <use xlink:href="#DejaVuSans-30"/>
      </g>
     </g>
    </g>
    <g id="ytick_2">
     <g id="line2d_52">
      <g>
       <use xlink:href="#m6f8ba5afb8" x="133.11875" y="253.674375" style="stroke: #000000; stroke-width: 0.8"/>
      </g>
     </g>
     <g id="text_52">
      <!-- 500 -->
      <g transform="translate(68.85625 265.072031)scale(0.3 -0.3)">
       <use xlink:href="#DejaVuSans-35"/>
       <use xlink:href="#DejaVuSans-30" x="63.623047"/>
       <use xlink:href="#DejaVuSans-30" x="127.246094"/>
      </g>
     </g>
    </g>
    <g id="ytick_3">
     <g id="line2d_53">
      <g>
       <use xlink:href="#m6f8ba5afb8" x="133.11875" y="144.954375" style="stroke: #000000; stroke-width: 0.8"/>
      </g>
     </g>
     <g id="text_53">
      <!-- 1,000 -->
      <g transform="translate(40.234375 156.352031)scale(0.3 -0.3)">
       <defs>
        <path id="DejaVuSans-2c" d="M 750 794 
L 1409 794 
L 1409 256 
L 897 -744 
L 494 -744 
L 750 256 
L 750 794 
z
" transform="scale(0.015625)"/>
       </defs>
       <use xlink:href="#DejaVuSans-31"/>
       <use xlink:href="#DejaVuSans-2c" x="63.623047"/>
       <use xlink:href="#DejaVuSans-30" x="95.410156"/>
       <use xlink:href="#DejaVuSans-30" x="159.033203"/>
       <use xlink:href="#DejaVuSans-30" x="222.65625"/>
      </g>
     </g>
    </g>
    <g id="ytick_4">
     <g id="line2d_54">
      <g>
       <use xlink:href="#m6f8ba5afb8" x="133.11875" y="36.234375" style="stroke: #000000; stroke-width: 0.8"/>
      </g>
     </g>
     <g id="text_54">
      <!-- 1,500 -->
      <g transform="translate(40.234375 47.632031)scale(0.3 -0.3)">
       <use xlink:href="#DejaVuSans-31"/>
       <use xlink:href="#DejaVuSans-2c" x="63.623047"/>
       <use xlink:href="#DejaVuSans-35" x="95.410156"/>
       <use xlink:href="#DejaVuSans-30" x="159.033203"/>
       <use xlink:href="#DejaVuSans-30" x="222.65625"/>
      </g>
     </g>
    </g>
    <g id="text_55">
     <!-- kWh -->
     <g transform="translate(29.995312 232.337812)rotate(-90)scale(0.3 -0.3)">
      <defs>
       <path id="DejaVuSans-6b" d="M 581 4863 
L 1159 4863 
L 1159 1991 
L 2875 3500 
L 3609 3500 
L 1753 1863 
L 3688 0 
L 2938 0 
L 1159 1709 
L 1159 0 
L 581 0 
L 581 4863 
z
" transform="scale(0.015625)"/>
       <path id="DejaVuSans-57" d="M 213 4666 
L 850 4666 
L 1831 722 
L 2809 4666 
L 3519 4666 
L 4500 722 
L 5478 4666 
L 6119 4666 
L 4947 0 
L 4153 0 
L 3169 4050 
L 2175 0 
L 1381 0 
L 213 4666 
z
" transform="scale(0.015625)"/>
       <path id="DejaVuSans-68" d="M 3513 2113 
L 3513 0 
L 2938 0 
L 2938 2094 
Q 2938 2591 2744 2837 
Q 2550 3084 2163 3084 
Q 1697 3084 1428 2787 
Q 1159 2491 1159 1978 
L 1159 0 
L 581 0 
L 581 4863 
L 1159 4863 
L 1159 2956 
Q 1366 3272 1645 3428 
Q 1925 3584 2291 3584 
Q 2894 3584 3203 3211 
Q 3513 2838 3513 2113 
z
" transform="scale(0.015625)"/>
      </defs>
      <use xlink:href="#DejaVuSans-6b"/>
      <use xlink:href="#DejaVuSans-57" x="57.910156"/>
      <use xlink:href="#DejaVuSans-68" x="156.787109"/>
     </g>
    </g>
   </g>
   <g id="line2d_55">
    <path d="M 580.847321 362.394375 
L 580.847321 36.234375 
" clip-path="url(#pa314925468)" style="fill: none; stroke-dasharray: 5.55,2.4; stroke-dashoffset: 0; stroke: #000000; stroke-width: 1.5"/>
   </g>
   <g id="patch_153">
    <path d="M 133.11875 362.394375 
L 133.11875 36.234375 
" style="fill: none; stroke: #000000; stroke-width: 0.8; stroke-linejoin: miter; stroke-linecap: square"/>
   </g>
   <g id="patch_154">
    <path d="M 133.11875 362.394375 
L 802.71875 362.394375 
" style="fill: none; stroke: #000000; stroke-width: 0.8; stroke-linejoin: miter; stroke-linecap: square"/>
   </g>
   <g id="text_56">
    <!-- Monthly Electricity Consumption -->
    <g transform="translate(224.471094 29.995312)scale(0.3 -0.3)">
     <defs>
      <path id="DejaVuSans-4d" d="M 628 4666 
L 1569 4666 
L 2759 1491 
L 3956 4666 
L 4897 4666 
L 4897 0 
L 4281 0 
L 4281 4097 
L 3078 897 
L 2444 897 
L 1241 4097 
L 1241 0 
L 628 0 
L 628 4666 
z
" transform="scale(0.015625)"/>
      <path id="DejaVuSans-6f" d="M 1959 3097 
Q 1497 3097 1228 2736 
Q 959 2375 959 1747 
Q 959 1119 1226 758 
Q 1494 397 1959 397 
Q 2419 397 2687 759 
Q 2956 1122 2956 1747 
Q 2956 2369 2687 2733 
Q 2419 3097 1959 3097 
z
M 1959 3584 
Q 2709 3584 3137 3096 
Q 3566 2609 3566 1747 
Q 3566 888 3137 398 
Q 2709 -91 1959 -91 
Q 1206 -91 779 398 
Q 353 888 353 1747 
Q 353 2609 779 3096 
Q 1206 3584 1959 3584 
z
" transform="scale(0.015625)"/>
      <path id="DejaVuSans-6e" d="M 3513 2113 
L 3513 0 
L 2938 0 
L 2938 2094 
Q 2938 2591 2744 2837 
Q 2550 3084 2163 3084 
Q 1697 3084 1428 2787 
Q 1159 2491 1159 1978 
L 1159 0 
L 581 0 
L 581 3500 
L 1159 3500 
L 1159 2956 
Q 1366 3272 1645 3428 
Q 1925 3584 2291 3584 
Q 2894 3584 3203 3211 
Q 3513 2838 3513 2113 
z
" transform="scale(0.015625)"/>
      <path id="DejaVuSans-74" d="M 1172 4494 
L 1172 3500 
L 2356 3500 
L 2356 3053 
L 1172 3053 
L 1172 1153 
Q 1172 725 1289 603 
Q 1406 481 1766 481 
L 2356 481 
L 2356 0 
L 1766 0 
Q 1100 0 847 248 
Q 594 497 594 1153 
L 594 3053 
L 172 3053 
L 172 3500 
L 594 3500 
L 594 4494 
L 1172 4494 
z
" transform="scale(0.015625)"/>
      <path id="DejaVuSans-6c" d="M 603 4863 
L 1178 4863 
L 1178 0 
L 603 0 
L 603 4863 
z
" transform="scale(0.015625)"/>
      <path id="DejaVuSans-79" d="M 2059 -325 
Q 1816 -950 1584 -1140 
Q 1353 -1331 966 -1331 
L 506 -1331 
L 506 -850 
L 844 -850 
Q 1081 -850 1212 -737 
Q 1344 -625 1503 -206 
L 1606 56 
L 191 3500 
L 800 3500 
L 1894 763 
L 2988 3500 
L 3597 3500 
L 2059 -325 
z
" transform="scale(0.015625)"/>
      <path id="DejaVuSans-20" transform="scale(0.015625)"/>
      <path id="DejaVuSans-45" d="M 628 4666 
L 3578 4666 
L 3578 4134 
L 1259 4134 
L 1259 2753 
L 3481 2753 
L 3481 2222 
L 1259 2222 
L 1259 531 
L 3634 531 
L 3634 0 
L 628 0 
L 628 4666 
z
" transform="scale(0.015625)"/>
      <path id="DejaVuSans-65" d="M 3597 1894 
L 3597 1613 
L 953 1613 
Q 991 1019 1311 708 
Q 1631 397 2203 397 
Q 2534 397 2845 478 
Q 3156 559 3463 722 
L 3463 178 
Q 3153 47 2828 -22 
Q 2503 -91 2169 -91 
Q 1331 -91 842 396 
Q 353 884 353 1716 
Q 353 2575 817 3079 
Q 1281 3584 2069 3584 
Q 2775 3584 3186 3129 
Q 3597 2675 3597 1894 
z
M 3022 2063 
Q 3016 2534 2758 2815 
Q 2500 3097 2075 3097 
Q 1594 3097 1305 2825 
Q 1016 2553 972 2059 
L 3022 2063 
z
" transform="scale(0.015625)"/>
      <path id="DejaVuSans-63" d="M 3122 3366 
L 3122 2828 
Q 2878 2963 2633 3030 
Q 2388 3097 2138 3097 
Q 1578 3097 1268 2742 
Q 959 2388 959 1747 
Q 959 1106 1268 751 
Q 1578 397 2138 397 
Q 2388 397 2633 464 
Q 2878 531 3122 666 
L 3122 134 
Q 2881 22 2623 -34 
Q 2366 -91 2075 -91 
Q 1284 -91 818 406 
Q 353 903 353 1747 
Q 353 2603 823 3093 
Q 1294 3584 2113 3584 
Q 2378 3584 2631 3529 
Q 2884 3475 3122 3366 
z
" transform="scale(0.015625)"/>
      <path id="DejaVuSans-72" d="M 2631 2963 
Q 2534 3019 2420 3045 
Q 2306 3072 2169 3072 
Q 1681 3072 1420 2755 
Q 1159 2438 1159 1844 
L 1159 0 
L 581 0 
L 581 3500 
L 1159 3500 
L 1159 2956 
Q 1341 3275 1631 3429 
Q 1922 3584 2338 3584 
Q 2397 3584 2469 3576 
Q 2541 3569 2628 3553 
L 2631 2963 
z
" transform="scale(0.015625)"/>
      <path id="DejaVuSans-69" d="M 603 3500 
L 1178 3500 
L 1178 0 
L 603 0 
L 603 3500 
z
M 603 4863 
L 1178 4863 
L 1178 4134 
L 603 4134 
L 603 4863 
z
" transform="scale(0.015625)"/>
      <path id="DejaVuSans-43" d="M 4122 4306 
L 4122 3641 
Q 3803 3938 3442 4084 
Q 3081 4231 2675 4231 
Q 1875 4231 1450 3742 
Q 1025 3253 1025 2328 
Q 1025 1406 1450 917 
Q 1875 428 2675 428 
Q 3081 428 3442 575 
Q 3803 722 4122 1019 
L 4122 359 
Q 3791 134 3420 21 
Q 3050 -91 2638 -91 
Q 1578 -91 968 557 
Q 359 1206 359 2328 
Q 359 3453 968 4101 
Q 1578 4750 2638 4750 
Q 3056 4750 3426 4639 
Q 3797 4528 4122 4306 
z
" transform="scale(0.015625)"/>
      <path id="DejaVuSans-73" d="M 2834 3397 
L 2834 2853 
Q 2591 2978 2328 3040 
Q 2066 3103 1784 3103 
Q 1356 3103 1142 2972 
Q 928 2841 928 2578 
Q 928 2378 1081 2264 
Q 1234 2150 1697 2047 
L 1894 2003 
Q 2506 1872 2764 1633 
Q 3022 1394 3022 966 
Q 3022 478 2636 193 
Q 2250 -91 1575 -91 
Q 1294 -91 989 -36 
Q 684 19 347 128 
L 347 722 
Q 666 556 975 473 
Q 1284 391 1588 391 
Q 1994 391 2212 530 
Q 2431 669 2431 922 
Q 2431 1156 2273 1281 
Q 2116 1406 1581 1522 
L 1381 1569 
Q 847 1681 609 1914 
Q 372 2147 372 2553 
Q 372 3047 722 3315 
Q 1072 3584 1716 3584 
Q 2034 3584 2315 3537 
Q 2597 3491 2834 3397 
z
" transform="scale(0.015625)"/>
      <path id="DejaVuSans-75" d="M 544 1381 
L 544 3500 
L 1119 3500 
L 1119 1403 
Q 1119 906 1312 657 
Q 1506 409 1894 409 
Q 2359 409 2629 706 
Q 2900 1003 2900 1516 
L 2900 3500 
L 3475 3500 
L 3475 0 
L 2900 0 
L 2900 538 
Q 2691 219 2414 64 
Q 2138 -91 1772 -91 
Q 1169 -91 856 284 
Q 544 659 544 1381 
z
M 1991 3584 
L 1991 3584 
z
" transform="scale(0.015625)"/>
      <path id="DejaVuSans-6d" d="M 3328 2828 
Q 3544 3216 3844 3400 
Q 4144 3584 4550 3584 
Q 5097 3584 5394 3201 
Q 5691 2819 5691 2113 
L 5691 0 
L 5113 0 
L 5113 2094 
Q 5113 2597 4934 2840 
Q 4756 3084 4391 3084 
Q 3944 3084 3684 2787 
Q 3425 2491 3425 1978 
L 3425 0 
L 2847 0 
L 2847 2094 
Q 2847 2600 2669 2842 
Q 2491 3084 2119 3084 
Q 1678 3084 1418 2786 
Q 1159 2488 1159 1978 
L 1159 0 
L 581 0 
L 581 3500 
L 1159 3500 
L 1159 2956 
Q 1356 3278 1631 3431 
Q 1906 3584 2284 3584 
Q 2666 3584 2933 3390 
Q 3200 3197 3328 2828 
z
" transform="scale(0.015625)"/>
      <path id="DejaVuSans-70" d="M 1159 525 
L 1159 -1331 
L 581 -1331 
L 581 3500 
L 1159 3500 
L 1159 2969 
Q 1341 3281 1617 3432 
Q 1894 3584 2278 3584 
Q 2916 3584 3314 3078 
Q 3713 2572 3713 1747 
Q 3713 922 3314 415 
Q 2916 -91 2278 -91 
Q 1894 -91 1617 61 
Q 1341 213 1159 525 
z
M 3116 1747 
Q 3116 2381 2855 2742 
Q 2594 3103 2138 3103 
Q 1681 3103 1420 2742 
Q 1159 2381 1159 1747 
Q 1159 1113 1420 752 
Q 1681 391 2138 391 
Q 2594 391 2855 752 
Q 3116 1113 3116 1747 
z
" transform="scale(0.015625)"/>
     </defs>
     <use xlink:href="#DejaVuSans-4d"/>
     <use xlink:href="#DejaVuSans-6f" x="86.279297"/>
     <use xlink:href="#DejaVuSans-6e" x="147.460938"/>
     <use xlink:href="#DejaVuSans-74" x="210.839844"/>
     <use xlink:href="#DejaVuSans-68" x="250.048828"/>
     <use xlink:href="#DejaVuSans-6c" x="313.427734"/>
     <use xlink:href="#DejaVuSans-79" x="341.210938"/>
     <use xlink:href="#DejaVuSans-20" x="400.390625"/>
     <use xlink:href="#DejaVuSans-45" x="432.177734"/>
     <use xlink:href="#DejaVuSans-6c" x="495.361328"/>
     <use xlink:href="#DejaVuSans-65" x="523.144531"/>
     <use xlink:href="#DejaVuSans-63" x="584.667969"/>
     <use xlink:href="#DejaVuSans-74" x="639.648438"/>
     <use xlink:href="#DejaVuSans-72" x="678.857422"/>
     <use xlink:href="#DejaVuSans-69" x="719.970703"/>
     <use xlink:href="#DejaVuSans-63" x="747.753906"/>
     <use xlink:href="#DejaVuSans-69" x="802.734375"/>
     <use xlink:href="#DejaVuSans-74" x="830.517578"/>
     <use xlink:href="#DejaVuSans-79" x="869.726562"/>
     <use xlink:href="#DejaVuSans-20" x="928.90625"/>
     <use xlink:href="#DejaVuSans-43" x="960.693359"/>
     <use xlink:href="#DejaVuSans-6f" x="1030.517578"/>
     <use xlink:href="#DejaVuSans-6e" x="1091.699219"/>
     <use xlink:href="#DejaVuSans-73" x="1155.078125"/>
     <use xlink:href="#DejaVuSans-75" x="1207.177734"/>
     <use xlink:href="#DejaVuSans-6d" x="1270.556641"/>
     <use xlink:href="#DejaVuSans-70" x="1367.96875"/>
     <use xlink:href="#DejaVuSans-74" x="1431.445312"/>
     <use xlink:href="#DejaVuSans-69" x="1470.654297"/>
     <use xlink:href="#DejaVuSans-6f" x="1498.4375"/>
     <use xlink:href="#DejaVuSans-6e" x="1559.619141"/>
    </g>
   </g>
   <g id="legend_1">
    <g id="patch_155">
     <path d="M 147.11875 140.303125 
L 300.4625 140.303125 
Q 304.4625 140.303125 304.4625 136.303125 
L 304.4625 50.234375 
Q 304.4625 46.234375 300.4625 46.234375 
L 147.11875 46.234375 
Q 143.11875 46.234375 143.11875 50.234375 
L 143.11875 136.303125 
Q 143.11875 140.303125 147.11875 140.303125 
z
" style="fill: #ffffff; opacity: 0.8; stroke: #cccccc; stroke-linejoin: miter"/>
    </g>
    <g id="patch_156">
     <path d="M 151.11875 69.43125 
L 191.11875 69.43125 
L 191.11875 55.43125 
L 151.11875 55.43125 
z
" style="fill: #f07e6e"/>
    </g>
    <g id="text_57">
     <!-- Off Peak -->
     <g transform="translate(207.11875 69.43125)scale(0.2 -0.2)">
      <defs>
       <path id="DejaVuSans-4f" d="M 2522 4238 
Q 1834 4238 1429 3725 
Q 1025 3213 1025 2328 
Q 1025 1447 1429 934 
Q 1834 422 2522 422 
Q 3209 422 3611 934 
Q 4013 1447 4013 2328 
Q 4013 3213 3611 3725 
Q 3209 4238 2522 4238 
z
M 2522 4750 
Q 3503 4750 4090 4092 
Q 4678 3434 4678 2328 
Q 4678 1225 4090 567 
Q 3503 -91 2522 -91 
Q 1538 -91 948 565 
Q 359 1222 359 2328 
Q 359 3434 948 4092 
Q 1538 4750 2522 4750 
z
" transform="scale(0.015625)"/>
       <path id="DejaVuSans-66" d="M 2375 4863 
L 2375 4384 
L 1825 4384 
Q 1516 4384 1395 4259 
Q 1275 4134 1275 3809 
L 1275 3500 
L 2222 3500 
L 2222 3053 
L 1275 3053 
L 1275 0 
L 697 0 
L 697 3053 
L 147 3053 
L 147 3500 
L 697 3500 
L 697 3744 
Q 697 4328 969 4595 
Q 1241 4863 1831 4863 
L 2375 4863 
z
" transform="scale(0.015625)"/>
       <path id="DejaVuSans-50" d="M 1259 4147 
L 1259 2394 
L 2053 2394 
Q 2494 2394 2734 2622 
Q 2975 2850 2975 3272 
Q 2975 3691 2734 3919 
Q 2494 4147 2053 4147 
L 1259 4147 
z
M 628 4666 
L 2053 4666 
Q 2838 4666 3239 4311 
Q 3641 3956 3641 3272 
Q 3641 2581 3239 2228 
Q 2838 1875 2053 1875 
L 1259 1875 
L 1259 0 
L 628 0 
L 628 4666 
z
" transform="scale(0.015625)"/>
       <path id="DejaVuSans-61" d="M 2194 1759 
Q 1497 1759 1228 1600 
Q 959 1441 959 1056 
Q 959 750 1161 570 
Q 1363 391 1709 391 
Q 2188 391 2477 730 
Q 2766 1069 2766 1631 
L 2766 1759 
L 2194 1759 
z
M 3341 1997 
L 3341 0 
L 2766 0 
L 2766 531 
Q 2569 213 2275 61 
Q 1981 -91 1556 -91 
Q 1019 -91 701 211 
Q 384 513 384 1019 
Q 384 1609 779 1909 
Q 1175 2209 1959 2209 
L 2766 2209 
L 2766 2266 
Q 2766 2663 2505 2880 
Q 2244 3097 1772 3097 
Q 1472 3097 1187 3025 
Q 903 2953 641 2809 
L 641 3341 
Q 956 3463 1253 3523 
Q 1550 3584 1831 3584 
Q 2591 3584 2966 3190 
Q 3341 2797 3341 1997 
z
" transform="scale(0.015625)"/>
      </defs>
      <use xlink:href="#DejaVuSans-4f"/>
      <use xlink:href="#DejaVuSans-66" x="78.710938"/>
      <use xlink:href="#DejaVuSans-66" x="113.916016"/>
      <use xlink:href="#DejaVuSans-20" x="149.121094"/>
      <use xlink:href="#DejaVuSans-50" x="180.908203"/>
      <use xlink:href="#DejaVuSans-65" x="237.585938"/>
      <use xlink:href="#DejaVuSans-61" x="299.109375"/>
      <use xlink:href="#DejaVuSans-6b" x="360.388672"/>
     </g>
    </g>
    <g id="patch_157">
     <path d="M 151.11875 98.7875 
L 191.11875 98.7875 
L 191.11875 84.7875 
L 151.11875 84.7875 
z
" style="fill: #eddd46"/>
    </g>
    <g id="text_58">
     <!-- Mid Peak -->
     <g transform="translate(207.11875 98.7875)scale(0.2 -0.2)">
      <defs>
       <path id="DejaVuSans-64" d="M 2906 2969 
L 2906 4863 
L 3481 4863 
L 3481 0 
L 2906 0 
L 2906 525 
Q 2725 213 2448 61 
Q 2172 -91 1784 -91 
Q 1150 -91 751 415 
Q 353 922 353 1747 
Q 353 2572 751 3078 
Q 1150 3584 1784 3584 
Q 2172 3584 2448 3432 
Q 2725 3281 2906 2969 
z
M 947 1747 
Q 947 1113 1208 752 
Q 1469 391 1925 391 
Q 2381 391 2643 752 
Q 2906 1113 2906 1747 
Q 2906 2381 2643 2742 
Q 2381 3103 1925 3103 
Q 1469 3103 1208 2742 
Q 947 2381 947 1747 
z
" transform="scale(0.015625)"/>
      </defs>
      <use xlink:href="#DejaVuSans-4d"/>
      <use xlink:href="#DejaVuSans-69" x="86.279297"/>
      <use xlink:href="#DejaVuSans-64" x="114.0625"/>
      <use xlink:href="#DejaVuSans-20" x="177.539062"/>
      <use xlink:href="#DejaVuSans-50" x="209.326172"/>
      <use xlink:href="#DejaVuSans-65" x="266.003906"/>
      <use xlink:href="#DejaVuSans-61" x="327.527344"/>
      <use xlink:href="#DejaVuSans-6b" x="388.806641"/>
     </g>
    </g>
    <g id="patch_158">
     <path d="M 151.11875 128.14375 
L 191.11875 128.14375 
L 191.11875 114.14375 
L 151.11875 114.14375 
z
" style="fill: #90cd97"/>
    </g>
    <g id="text_59">
     <!-- On Peak -->
     <g transform="translate(207.11875 128.14375)scale(0.2 -0.2)">
      <use xlink:href="#DejaVuSans-4f"/>
      <use xlink:href="#DejaVuSans-6e" x="78.710938"/>
      <use xlink:href="#DejaVuSans-20" x="142.089844"/>
      <use xlink:href="#DejaVuSans-50" x="173.876953"/>
      <use xlink:href="#DejaVuSans-65" x="230.554688"/>
      <use xlink:href="#DejaVuSans-61" x="292.078125"/>
      <use xlink:href="#DejaVuSans-6b" x="353.357422"/>
     </g>
    </g>
   </g>
  </g>
 </g>
 <defs>
  <clipPath id="pa314925468">
   <rect x="133.11875" y="36.234375" width="669.6" height="326.16"/>
  </clipPath>
 </defs>
</svg>
